<svg width="55" height="55" viewBox="0 0 55 55" fill="none" xmlns="http://www.w3.org/2000/svg">
<path d="M27.4931 18.3294C22.4435 18.3294 18.3225 22.4504 18.3225 27.5C18.3225 32.5496 22.4435 36.6705 27.4931 36.6705C32.5428 36.6705 36.6637 32.5496 36.6637 27.5C36.6637 22.4504 32.5428 18.3294 27.4931 18.3294ZM54.9979 27.5C54.9979 23.7025 55.0323 19.9392 54.819 16.1486C54.6058 11.7456 53.6013 7.83797 50.3817 4.61831C47.1552 1.39174 43.2543 0.39419 38.8514 0.180921C35.0538 -0.0323489 31.2907 0.00204575 27.5 0.00204575C23.7024 0.00204575 19.9393 -0.0323489 16.1486 0.180921C11.7456 0.39419 7.83796 1.39862 4.6183 4.61831C1.39174 7.84481 0.39419 11.7456 0.18092 16.1486C-0.0323493 19.9461 0.00204582 23.7093 0.00204582 27.5C0.00204582 31.2907 -0.0323493 35.0607 0.18092 38.8514C0.39419 43.2543 1.39862 47.162 4.6183 50.3817C7.8448 53.6083 11.7456 54.6058 16.1486 54.819C19.9461 55.0324 23.7093 54.998 27.5 54.998C31.2975 54.998 35.0608 55.0324 38.8514 54.819C43.2543 54.6058 47.162 53.6013 50.3817 50.3817C53.6083 47.1552 54.6058 43.2543 54.819 38.8514C55.0392 35.0607 54.9979 31.2975 54.9979 27.5ZM27.4931 41.6101C19.6848 41.6101 13.3829 35.3084 13.3829 27.5C13.3829 19.6916 19.6848 13.3899 27.4931 13.3899C35.3015 13.3899 41.6033 19.6916 41.6033 27.5C41.6033 35.3084 35.3015 41.6101 27.4931 41.6101ZM42.1812 16.1073C40.358 16.1073 38.8858 14.635 38.8858 12.812C38.8858 10.9888 40.358 9.51659 42.1812 9.51659C44.0043 9.51659 45.4765 10.9888 45.4765 12.812C45.4771 13.2448 45.3922 13.6736 45.2268 14.0736C45.0613 14.4737 44.8187 14.8372 44.5126 15.1433C44.2064 15.4494 43.8429 15.6921 43.4429 15.8576C43.0428 16.0229 42.6141 16.1078 42.1812 16.1073Z" fill="white"/>
</svg>
