<svg width="318" height="51" viewBox="0 0 318 51" fill="none" xmlns="http://www.w3.org/2000/svg">
<rect width="318" height="51" rx="5" fill="#F62228"/>
<path d="M98.0625 18H100V29.4375C100 30.4583 99.8125 31.3255 99.4375 32.0391C99.0625 32.7526 98.5339 33.2943 97.8516 33.6641C97.1693 34.0339 96.3646 34.2187 95.4375 34.2187C94.5625 34.2187 93.7839 34.0599 93.1016 33.7422C92.4193 33.4193 91.8828 32.9609 91.4922 32.3672C91.1016 31.7734 90.9063 31.0677 90.9063 30.25H92.8125C92.8125 30.7031 92.9245 31.099 93.1484 31.4375C93.3776 31.7708 93.6901 32.0312 94.0859 32.2187C94.4818 32.4062 94.9323 32.5 95.4375 32.5C95.9948 32.5 96.4688 32.3828 96.8594 32.1484C97.25 31.9141 97.5469 31.5703 97.75 31.1172C97.9583 30.6589 98.0625 30.099 98.0625 29.4375V18ZM111.195 29.0937V22H113.039V34H111.195V31.9687H111.07C110.789 32.5781 110.352 33.0964 109.758 33.5234C109.164 33.9453 108.414 34.1563 107.508 34.1563C106.758 34.1563 106.091 33.9922 105.508 33.6641C104.924 33.3307 104.466 32.8307 104.133 32.1641C103.799 31.4922 103.633 30.6458 103.633 29.625V22H105.477V29.5C105.477 30.375 105.721 31.0729 106.211 31.5938C106.706 32.1146 107.336 32.375 108.102 32.375C108.56 32.375 109.026 32.2578 109.5 32.0234C109.979 31.7891 110.38 31.4297 110.703 30.9453C111.031 30.4609 111.195 29.8437 111.195 29.0937ZM118.26 26.7812V34H116.416V22H118.197V23.875H118.354C118.635 23.2656 119.062 22.776 119.635 22.4063C120.208 22.0313 120.947 21.8438 121.854 21.8438C122.666 21.8438 123.377 22.0104 123.986 22.3437C124.596 22.6719 125.07 23.1719 125.408 23.8437C125.747 24.5104 125.916 25.3542 125.916 26.375V34H124.072V26.5C124.072 25.5573 123.827 24.8229 123.338 24.2969C122.848 23.7656 122.176 23.5 121.322 23.5C120.734 23.5 120.208 23.6276 119.744 23.8828C119.286 24.138 118.924 24.5104 118.658 25C118.393 25.4896 118.26 26.0833 118.26 26.7812ZM129.285 34V22H131.129V34H129.285ZM130.223 20C129.863 20 129.553 19.8776 129.293 19.6328C129.038 19.388 128.91 19.0938 128.91 18.75C128.91 18.4063 129.038 18.112 129.293 17.8672C129.553 17.6224 129.863 17.5 130.223 17.5C130.582 17.5 130.889 17.6224 131.145 17.8672C131.405 18.112 131.535 18.4063 131.535 18.75C131.535 19.0938 131.405 19.388 131.145 19.6328C130.889 19.8776 130.582 20 130.223 20ZM139.381 34.25C138.298 34.25 137.347 33.9922 136.529 33.4766C135.717 32.9609 135.081 32.2396 134.623 31.3125C134.17 30.3854 133.943 29.3021 133.943 28.0625C133.943 26.8125 134.17 25.7214 134.623 24.7891C135.081 23.8568 135.717 23.1328 136.529 22.6172C137.347 22.1016 138.298 21.8438 139.381 21.8438C140.464 21.8438 141.412 22.1016 142.225 22.6172C143.042 23.1328 143.678 23.8568 144.131 24.7891C144.589 25.7214 144.818 26.8125 144.818 28.0625C144.818 29.3021 144.589 30.3854 144.131 31.3125C143.678 32.2396 143.042 32.9609 142.225 33.4766C141.412 33.9922 140.464 34.25 139.381 34.25ZM139.381 32.5938C140.204 32.5938 140.881 32.3828 141.412 31.9609C141.943 31.5391 142.337 30.9844 142.592 30.2969C142.847 29.6094 142.975 28.8646 142.975 28.0625C142.975 27.2604 142.847 26.513 142.592 25.8203C142.337 25.1276 141.943 24.5677 141.412 24.1406C140.881 23.7135 140.204 23.5 139.381 23.5C138.558 23.5 137.881 23.7135 137.35 24.1406C136.818 24.5677 136.425 25.1276 136.17 25.8203C135.915 26.513 135.787 27.2604 135.787 28.0625C135.787 28.8646 135.915 29.6094 136.17 30.2969C136.425 30.9844 136.818 31.5391 137.35 31.9609C137.881 32.3828 138.558 32.5938 139.381 32.5938ZM147.633 34V22H149.414V23.8125H149.539C149.758 23.2188 150.154 22.737 150.727 22.3672C151.299 21.9974 151.945 21.8125 152.664 21.8125C152.799 21.8125 152.969 21.8151 153.172 21.8203C153.375 21.8255 153.529 21.8333 153.633 21.8438V23.7187C153.57 23.7031 153.427 23.6797 153.203 23.6484C152.984 23.612 152.753 23.5937 152.508 23.5937C151.924 23.5937 151.404 23.7161 150.945 23.9609C150.492 24.2005 150.133 24.5339 149.867 24.9609C149.607 25.3828 149.477 25.8646 149.477 26.4062V34H147.633ZM162.256 34V18H167.85C168.964 18 169.883 18.1927 170.607 18.5781C171.331 18.9583 171.87 19.4714 172.225 20.1172C172.579 20.7578 172.756 21.4687 172.756 22.25C172.756 22.9375 172.633 23.5052 172.389 23.9531C172.149 24.401 171.831 24.7552 171.436 25.0156C171.045 25.276 170.62 25.4687 170.162 25.5937V25.75C170.652 25.7812 171.144 25.9531 171.639 26.2656C172.133 26.5781 172.548 27.026 172.881 27.6094C173.214 28.1927 173.381 28.9062 173.381 29.75C173.381 30.5521 173.199 31.2734 172.834 31.9141C172.469 32.5547 171.894 33.0625 171.107 33.4375C170.321 33.8125 169.298 34 168.037 34H162.256ZM164.193 32.2812H168.037C169.303 32.2812 170.201 32.0365 170.732 31.5469C171.269 31.0521 171.537 30.4531 171.537 29.75C171.537 29.2083 171.399 28.7083 171.123 28.25C170.847 27.7865 170.454 27.4167 169.943 27.1406C169.433 26.8594 168.829 26.7188 168.131 26.7188H164.193V32.2812ZM164.193 25.0312H167.787C168.37 25.0312 168.896 24.9167 169.365 24.6875C169.839 24.4583 170.214 24.1354 170.49 23.7187C170.771 23.3021 170.912 22.8125 170.912 22.25C170.912 21.5469 170.667 20.9505 170.178 20.4609C169.688 19.9661 168.912 19.7187 167.85 19.7187H164.193V25.0312ZM181.189 34.25C180.106 34.25 179.156 33.9922 178.338 33.4766C177.525 32.9609 176.89 32.2396 176.432 31.3125C175.979 30.3854 175.752 29.3021 175.752 28.0625C175.752 26.8125 175.979 25.7214 176.432 24.7891C176.89 23.8568 177.525 23.1328 178.338 22.6172C179.156 22.1016 180.106 21.8438 181.189 21.8438C182.273 21.8438 183.221 22.1016 184.033 22.6172C184.851 23.1328 185.486 23.8568 185.939 24.7891C186.398 25.7214 186.627 26.8125 186.627 28.0625C186.627 29.3021 186.398 30.3854 185.939 31.3125C185.486 32.2396 184.851 32.9609 184.033 33.4766C183.221 33.9922 182.273 34.25 181.189 34.25ZM181.189 32.5938C182.012 32.5938 182.689 32.3828 183.221 31.9609C183.752 31.5391 184.145 30.9844 184.4 30.2969C184.656 29.6094 184.783 28.8646 184.783 28.0625C184.783 27.2604 184.656 26.513 184.4 25.8203C184.145 25.1276 183.752 24.5677 183.221 24.1406C182.689 23.7135 182.012 23.5 181.189 23.5C180.367 23.5 179.689 23.7135 179.158 24.1406C178.627 24.5677 178.234 25.1276 177.979 25.8203C177.723 26.513 177.596 27.2604 177.596 28.0625C177.596 28.8646 177.723 29.6094 177.979 30.2969C178.234 30.9844 178.627 31.5391 179.158 31.9609C179.689 32.3828 180.367 32.5938 181.189 32.5938ZM191.752 34L188.096 22H190.033L192.627 31.1875H192.752L195.314 22H197.283L199.814 31.1562H199.939L202.533 22H204.471L200.814 34H199.002L196.377 24.7812H196.189L193.564 34H191.752ZM208.752 18V34H206.908V18H208.752ZM212.129 34V22H213.973V34H212.129ZM213.066 20C212.707 20 212.397 19.8776 212.137 19.6328C211.882 19.388 211.754 19.0938 211.754 18.75C211.754 18.4063 211.882 18.112 212.137 17.8672C212.397 17.6224 212.707 17.5 213.066 17.5C213.426 17.5 213.733 17.6224 213.988 17.8672C214.249 18.112 214.379 18.4063 214.379 18.75C214.379 19.0938 214.249 19.388 213.988 19.6328C213.733 19.8776 213.426 20 213.066 20ZM219.193 26.7812V34H217.35V22H219.131V23.875H219.287C219.568 23.2656 219.995 22.776 220.568 22.4063C221.141 22.0313 221.881 21.8438 222.787 21.8438C223.6 21.8438 224.311 22.0104 224.92 22.3437C225.529 22.6719 226.003 23.1719 226.342 23.8437C226.68 24.5104 226.85 25.3542 226.85 26.375V34H225.006V26.5C225.006 25.5573 224.761 24.8229 224.271 24.2969C223.782 23.7656 223.11 23.5 222.256 23.5C221.667 23.5 221.141 23.6276 220.678 23.8828C220.219 24.138 219.857 24.5104 219.592 25C219.326 25.4896 219.193 26.0833 219.193 26.7812ZM235.062 38.75C234.172 38.75 233.406 38.6354 232.766 38.4063C232.125 38.1823 231.591 37.8854 231.164 37.5156C230.742 37.151 230.406 36.7604 230.156 36.3438L231.625 35.3125C231.792 35.5313 232.003 35.7813 232.258 36.0625C232.513 36.349 232.862 36.5964 233.305 36.8047C233.753 37.0182 234.339 37.125 235.062 37.125C236.031 37.125 236.831 36.8906 237.461 36.4219C238.091 35.9531 238.406 35.2187 238.406 34.2187V31.7812H238.25C238.115 32 237.922 32.2708 237.672 32.5938C237.427 32.9115 237.073 33.1953 236.609 33.4453C236.151 33.6901 235.531 33.8125 234.75 33.8125C233.781 33.8125 232.911 33.5833 232.141 33.125C231.375 32.6667 230.768 32 230.32 31.125C229.878 30.25 229.656 29.1875 229.656 27.9375C229.656 26.7083 229.872 25.638 230.305 24.7266C230.737 23.8099 231.339 23.1016 232.109 22.6016C232.88 22.0964 233.771 21.8438 234.781 21.8438C235.563 21.8438 236.182 21.974 236.641 22.2344C237.104 22.4896 237.458 22.7812 237.703 23.1094C237.953 23.4323 238.146 23.6979 238.281 23.9062H238.469V22H240.25V34.3438C240.25 35.375 240.016 36.2135 239.547 36.8594C239.083 37.5104 238.458 37.987 237.672 38.2891C236.891 38.5964 236.021 38.75 235.062 38.75ZM235 32.1562C235.74 32.1562 236.365 31.987 236.875 31.6484C237.385 31.3099 237.773 30.8229 238.039 30.1875C238.305 29.5521 238.438 28.7917 238.438 27.9062C238.438 27.0417 238.307 26.2786 238.047 25.6172C237.786 24.9557 237.401 24.4375 236.891 24.0625C236.38 23.6875 235.75 23.5 235 23.5C234.219 23.5 233.568 23.6979 233.047 24.0937C232.531 24.4896 232.143 25.0208 231.883 25.6875C231.628 26.3542 231.5 27.0937 231.5 27.9062C231.5 28.7396 231.63 29.4766 231.891 30.1172C232.156 30.7526 232.547 31.2526 233.063 31.6172C233.583 31.9766 234.229 32.1562 235 32.1562Z" fill="white"/>
<path d="M41.8215 17.5L31 30.6404L20.1785 17.5H41.8215Z" stroke="white" stroke-width="3"/>
</svg>
