<svg width="1440" height="201" viewBox="0 0 1440 201" fill="none" xmlns="http://www.w3.org/2000/svg">
<path d="M0 2.03515C0 0.930585 0.895431 0.0351562 2 0.0351562H1431.27C1433.39 0.0351562 1434.05 2.91119 1432.14 3.83589L1236.81 98.2344C1235.3 98.9624 1235.3 101.108 1236.81 101.836L1432.14 196.234C1434.05 197.159 1433.39 200.035 1431.27 200.035H2.00003C0.895457 200.035 0 199.14 0 198.035V2.03515Z" fill="#016FB9"/>
<line x1="1367.82" y1="165.535" x2="200.903" y2="165.535" stroke="#1B1B1B"/>
<path d="M705.786 23.8352V42.0352H708.906V23.8352H705.786ZM711.662 42.0352C713.516 42.0352 715.146 41.6625 716.55 40.9172C717.954 40.1545 719.046 39.0972 719.826 37.7452C720.623 36.3758 721.022 34.7725 721.022 32.9352C721.022 31.0978 720.623 29.5032 719.826 28.1512C719.046 26.7818 717.954 25.7245 716.55 24.9792C715.146 24.2165 713.516 23.8352 711.662 23.8352H707.684V26.7212H711.584C712.485 26.7212 713.317 26.8512 714.08 27.1112C714.842 27.3712 715.501 27.7612 716.056 28.2812C716.628 28.8012 717.07 29.4512 717.382 30.2312C717.711 31.0112 717.876 31.9125 717.876 32.9352C717.876 33.9578 717.711 34.8592 717.382 35.6392C717.07 36.4192 716.628 37.0692 716.056 37.5892C715.501 38.1092 714.842 38.4992 714.08 38.7592C713.317 39.0192 712.485 39.1492 711.584 39.1492H707.684V42.0352H711.662ZM728.982 42.2952C730.369 42.2952 731.556 42.0265 732.544 41.4892C733.532 40.9518 734.338 40.1458 734.962 39.0712L732.544 38.0832C732.163 38.7245 731.686 39.2012 731.114 39.5132C730.542 39.8252 729.875 39.9812 729.112 39.9812C728.384 39.9812 727.76 39.8252 727.24 39.5132C726.738 39.2012 726.356 38.7505 726.096 38.1612C725.836 37.5545 725.706 36.8178 725.706 35.9512C725.724 35.0845 725.862 34.3565 726.122 33.7672C726.382 33.1778 726.764 32.7272 727.266 32.4152C727.769 32.1032 728.376 31.9472 729.086 31.9472C729.676 31.9472 730.187 32.0772 730.62 32.3372C731.071 32.5972 731.418 32.9612 731.66 33.4292C731.92 33.8972 732.05 34.4518 732.05 35.0932C732.05 35.2145 732.016 35.3705 731.946 35.5612C731.894 35.7345 731.842 35.8732 731.79 35.9772L732.648 34.7812H724.536V36.7052H735.04C735.058 36.6358 735.066 36.5232 735.066 36.3672C735.084 36.2112 735.092 36.0638 735.092 35.9252C735.092 34.6425 734.85 33.5505 734.364 32.6492C733.896 31.7305 733.22 31.0285 732.336 30.5432C731.452 30.0578 730.378 29.8152 729.112 29.8152C727.847 29.8152 726.746 30.0752 725.81 30.5952C724.874 31.0978 724.146 31.8172 723.626 32.7532C723.124 33.6892 722.872 34.7898 722.872 36.0552C722.872 37.3032 723.124 38.3952 723.626 39.3312C724.129 40.2672 724.84 40.9952 725.758 41.5152C726.694 42.0352 727.769 42.2952 728.982 42.2952ZM739.541 38.3172C739.541 37.9358 739.627 37.6152 739.801 37.3552C739.991 37.0952 740.269 36.8958 740.633 36.7572C740.997 36.6012 741.473 36.5232 742.063 36.5232C742.739 36.5232 743.38 36.6098 743.987 36.7832C744.593 36.9565 745.165 37.2338 745.703 37.6152V36.1852C745.547 35.9945 745.278 35.7865 744.897 35.5612C744.515 35.3185 744.03 35.1105 743.441 34.9372C742.869 34.7638 742.184 34.6772 741.387 34.6772C739.896 34.6772 738.743 35.0238 737.929 35.7172C737.114 36.3932 736.707 37.3118 736.707 38.4732C736.707 39.2878 736.897 39.9812 737.279 40.5532C737.66 41.1252 738.171 41.5585 738.813 41.8532C739.454 42.1478 740.147 42.2952 740.893 42.2952C741.586 42.2952 742.262 42.1738 742.921 41.9312C743.597 41.6712 744.151 41.2898 744.585 40.7872C745.035 40.2672 745.261 39.6258 745.261 38.8632L744.845 37.3032C744.845 37.8925 744.697 38.4125 744.403 38.8632C744.125 39.2965 743.753 39.6258 743.285 39.8512C742.834 40.0765 742.331 40.1892 741.777 40.1892C741.343 40.1892 740.953 40.1198 740.607 39.9812C740.277 39.8425 740.017 39.6345 739.827 39.3572C739.636 39.0625 739.541 38.7158 739.541 38.3172ZM738.657 33.1952C738.83 33.0738 739.09 32.9265 739.437 32.7532C739.801 32.5625 740.225 32.4065 740.711 32.2852C741.213 32.1465 741.742 32.0772 742.297 32.0772C742.661 32.0772 742.999 32.1118 743.311 32.1812C743.623 32.2505 743.891 32.3632 744.117 32.5192C744.342 32.6752 744.515 32.8745 744.637 33.1172C744.775 33.3598 744.845 33.6718 744.845 34.0532V42.0352H747.601V33.5072C747.601 32.7098 747.384 32.0425 746.951 31.5052C746.517 30.9505 745.919 30.5258 745.157 30.2312C744.411 29.9365 743.545 29.7892 742.557 29.7892C741.447 29.7892 740.459 29.9452 739.593 30.2572C738.743 30.5692 738.05 30.8898 737.513 31.2192L738.657 33.1952ZM750.874 21.7552V42.0352H753.682V21.7552H750.874ZM767.641 32.6492H770.787C771.931 32.6492 772.937 32.4845 773.803 32.1552C774.687 31.8258 775.372 31.3492 775.857 30.7252C776.36 30.0838 776.611 29.3125 776.611 28.4112C776.611 27.3712 776.36 26.5132 775.857 25.8372C775.372 25.1612 774.687 24.6585 773.803 24.3292C772.937 23.9998 771.931 23.8352 770.787 23.8352H765.301V42.0352H771.099C772.382 42.0352 773.509 41.8532 774.479 41.4892C775.467 41.1078 776.239 40.5272 776.793 39.7472C777.365 38.9672 777.651 37.9792 777.651 36.7832C777.651 35.9165 777.478 35.1712 777.131 34.5472C776.785 33.9232 776.299 33.4118 775.675 33.0132C775.069 32.6145 774.375 32.3198 773.595 32.1292C772.815 31.9385 771.983 31.8432 771.099 31.8432H767.641V33.5332H770.917C771.437 33.5332 771.914 33.5938 772.347 33.7152C772.781 33.8192 773.153 34.0012 773.465 34.2612C773.795 34.5038 774.046 34.8158 774.219 35.1972C774.41 35.5612 774.505 35.9858 774.505 36.4712C774.505 37.1472 774.349 37.7105 774.037 38.1612C773.725 38.6118 773.301 38.9498 772.763 39.1752C772.226 39.4005 771.611 39.5132 770.917 39.5132H768.369V26.3572H770.579C771.429 26.3572 772.122 26.5652 772.659 26.9812C773.197 27.3972 773.465 27.9865 773.465 28.7492C773.465 29.2518 773.344 29.6852 773.101 30.0492C772.859 30.3958 772.521 30.6645 772.087 30.8552C771.654 31.0458 771.151 31.1412 770.579 31.1412H767.641V32.6492Z" fill="white"/>
<path d="M39.7555 59.8652L39.9505 70.3952H45.7355L45.8655 59.8652H39.7555ZM39.9505 109.59L39.7555 120.315H45.8655L45.6705 109.59H39.9505ZM51.6505 80.2752L57.6955 76.5702C56.9588 74.9668 55.9188 73.4285 54.5755 71.9552C53.2755 70.4818 51.6288 69.2685 49.6355 68.3152C47.6855 67.3618 45.3455 66.8852 42.6155 66.8852C39.8855 66.8852 37.4371 67.4052 35.2705 68.4452C33.1038 69.4852 31.3921 70.8718 30.1355 72.6052C28.9221 74.3385 28.3155 76.2668 28.3155 78.3902C28.3155 80.5568 28.7055 82.3985 29.4855 83.9152C30.2655 85.4318 31.2621 86.7318 32.4755 87.8152C33.6888 88.8552 34.9671 89.7218 36.3105 90.4152C37.6971 91.0652 38.9538 91.5852 40.0805 91.9752C41.8138 92.6252 43.4388 93.3185 44.9555 94.0552C46.5155 94.7918 47.7721 95.7018 48.7255 96.7852C49.7221 97.8252 50.2205 99.1902 50.2205 100.88C50.2205 102.18 49.9605 103.307 49.4405 104.26C48.9638 105.17 48.2055 105.863 47.1655 106.34C46.1688 106.817 44.8905 107.055 43.3305 107.055C41.5538 107.055 39.9721 106.687 38.5855 105.95C37.2421 105.213 36.0071 104.152 34.8805 102.765C33.7538 101.378 32.7138 99.6885 31.7605 97.6952L25.8455 101.53C26.7988 103.87 28.1205 105.95 29.8105 107.77C31.5005 109.59 33.4721 111.042 35.7255 112.125C37.9788 113.165 40.4055 113.685 43.0055 113.685C46.2555 113.685 49.0071 113.165 51.2605 112.125C53.5138 111.042 55.2471 109.503 56.4605 107.51C57.6738 105.517 58.2805 103.198 58.2805 100.555C58.2805 98.5185 57.9338 96.7418 57.2405 95.2252C56.5471 93.7085 55.6371 92.4302 54.5105 91.3902C53.3838 90.3068 52.1271 89.3968 50.7405 88.6602C49.3971 87.9235 48.0755 87.3168 46.7755 86.8402C44.9555 86.1468 43.2438 85.4535 41.6405 84.7602C40.0371 84.0668 38.7371 83.2435 37.7405 82.2902C36.7438 81.3368 36.2455 80.1235 36.2455 78.6502C36.2455 77.5235 36.4621 76.5702 36.8955 75.7902C37.3721 74.9668 38.0871 74.3385 39.0405 73.9052C40.0371 73.4718 41.2938 73.2552 42.8105 73.2552C44.2838 73.2552 45.5621 73.5802 46.6455 74.2302C47.7288 74.8802 48.6605 75.7468 49.4405 76.8302C50.2638 77.8702 51.0005 79.0185 51.6505 80.2752ZM66.5146 78.1952L77.0446 75.2702V113.035H84.6496V66.8202L66.5146 70.9152V78.1952ZM128.566 98.2152C128.566 95.1385 127.959 92.4735 126.746 90.2202C125.532 87.9668 123.886 86.2118 121.806 84.9552C119.726 83.6985 117.429 83.0702 114.916 83.0702C113.659 83.0702 112.424 83.2002 111.211 83.4602C109.997 83.7202 108.827 84.1318 107.701 84.6952L110.561 74.2952H128.111V67.5352H104.776L98.6008 92.5602C100.161 91.6068 101.591 90.8702 102.891 90.3502C104.234 89.8302 105.534 89.4835 106.791 89.3102C108.091 89.0935 109.391 88.9852 110.691 88.9852C112.467 88.9852 114.092 89.3318 115.566 90.0252C117.039 90.7185 118.209 91.7152 119.076 93.0152C119.942 94.3152 120.376 95.8968 120.376 97.7602C120.376 99.5802 119.986 101.162 119.206 102.505C118.469 103.848 117.386 104.867 115.956 105.56C114.526 106.253 112.771 106.6 110.691 106.6C109.261 106.6 107.831 106.318 106.401 105.755C104.971 105.148 103.627 104.368 102.371 103.415C101.157 102.418 100.096 101.335 99.1858 100.165L94.7008 105.69C95.8708 107.12 97.2358 108.463 98.7958 109.72C100.356 110.933 102.197 111.908 104.321 112.645C106.444 113.382 108.892 113.75 111.666 113.75C113.876 113.75 115.977 113.447 117.971 112.84C120.007 112.19 121.827 111.237 123.431 109.98C125.034 108.68 126.291 107.055 127.201 105.105C128.111 103.155 128.566 100.858 128.566 98.2152Z" fill="white"/>
<line x1="201.402" y1="0.0351562" x2="201.402" y2="200.035" stroke="#1B1B1B"/>
<path d="M266.844 70.4352V90.0352H270.148V70.4352H266.844ZM268.804 73.3472H272.752C273.891 73.3472 274.805 73.6178 275.496 74.1592C276.187 74.6818 276.532 75.4658 276.532 76.5112C276.532 77.5565 276.187 78.3498 275.496 78.8912C274.805 79.4325 273.891 79.7032 272.752 79.7032H268.804V82.6152H272.752C274.171 82.6152 275.403 82.3725 276.448 81.8872C277.512 81.3832 278.333 80.6738 278.912 79.7592C279.491 78.8445 279.78 77.7618 279.78 76.5112C279.78 75.2605 279.491 74.1872 278.912 73.2912C278.333 72.3765 277.512 71.6765 276.448 71.1912C275.403 70.6872 274.171 70.4352 272.752 70.4352H268.804V73.3472ZM282.668 72.0312C282.668 72.5352 282.854 72.9738 283.228 73.3472C283.62 73.7018 284.068 73.8792 284.572 73.8792C285.113 73.8792 285.561 73.7018 285.916 73.3472C286.289 72.9738 286.476 72.5352 286.476 72.0312C286.476 71.5085 286.289 71.0698 285.916 70.7152C285.561 70.3605 285.113 70.1832 284.572 70.1832C284.068 70.1832 283.62 70.3605 283.228 70.7152C282.854 71.0698 282.668 71.5085 282.668 72.0312ZM283.088 77.1552V90.0352H286.056V77.1552H283.088ZM296.209 79.9552L288.705 90.0352H300.745V87.2352H294.081L301.445 77.1552H289.685V79.9552H296.209ZM310.647 79.9552L303.143 90.0352H315.183V87.2352H308.519L315.883 77.1552H304.123V79.9552H310.647ZM320.149 86.0312C320.149 85.6205 320.242 85.2752 320.428 84.9952C320.634 84.7152 320.933 84.5005 321.325 84.3512C321.717 84.1832 322.23 84.0992 322.865 84.0992C323.593 84.0992 324.283 84.1925 324.937 84.3792C325.59 84.5658 326.206 84.8645 326.785 85.2752V83.7352C326.617 83.5298 326.327 83.3058 325.917 83.0632C325.506 82.8018 324.983 82.5778 324.349 82.3912C323.733 82.2045 322.995 82.1112 322.137 82.1112C320.531 82.1112 319.29 82.4845 318.413 83.2312C317.535 83.9592 317.097 84.9485 317.097 86.1992C317.097 87.0765 317.302 87.8232 317.713 88.4392C318.123 89.0552 318.674 89.5218 319.365 89.8392C320.055 90.1565 320.802 90.3152 321.605 90.3152C322.351 90.3152 323.079 90.1845 323.789 89.9232C324.517 89.6432 325.114 89.2325 325.581 88.6912C326.066 88.1312 326.309 87.4405 326.309 86.6192L325.861 84.9392C325.861 85.5738 325.702 86.1338 325.385 86.6192C325.086 87.0858 324.685 87.4405 324.181 87.6832C323.695 87.9258 323.154 88.0472 322.557 88.0472C322.09 88.0472 321.67 87.9725 321.297 87.8232C320.942 87.6738 320.662 87.4498 320.457 87.1512C320.251 86.8338 320.149 86.4605 320.149 86.0312ZM319.197 80.5152C319.383 80.3845 319.663 80.2258 320.037 80.0392C320.429 79.8338 320.886 79.6658 321.409 79.5352C321.95 79.3858 322.519 79.3112 323.117 79.3112C323.509 79.3112 323.873 79.3485 324.209 79.4232C324.545 79.4978 324.834 79.6192 325.077 79.7872C325.319 79.9552 325.506 80.1698 325.637 80.4312C325.786 80.6925 325.861 81.0285 325.861 81.4392V90.0352H328.829V80.8512C328.829 79.9925 328.595 79.2738 328.129 78.6952C327.662 78.0978 327.018 77.6405 326.197 77.3232C325.394 77.0058 324.461 76.8472 323.397 76.8472C322.202 76.8472 321.138 77.0152 320.205 77.3512C319.29 77.6872 318.543 78.0325 317.965 78.3872L319.197 80.5152ZM334.258 86.9552L331.794 94.2072L334.034 94.8232L337.282 87.8232L334.258 86.9552ZM352.241 80.2352C352.241 78.8352 352.549 77.6218 353.165 76.5952C353.8 75.5498 354.621 74.7472 355.629 74.1872C356.656 73.6085 357.766 73.3192 358.961 73.3192C359.894 73.3192 360.734 73.4405 361.481 73.6832C362.228 73.9258 362.9 74.2618 363.497 74.6912C364.113 75.1018 364.645 75.5685 365.093 76.0912V72.1712C364.272 71.4992 363.385 70.9858 362.433 70.6312C361.481 70.2765 360.286 70.0992 358.849 70.0992C357.412 70.0992 356.068 70.3418 354.817 70.8272C353.585 71.3125 352.512 72.0125 351.597 72.9272C350.682 73.8418 349.964 74.9245 349.441 76.1752C348.937 77.4072 348.685 78.7605 348.685 80.2352C348.685 81.7098 348.937 83.0725 349.441 84.3232C349.964 85.5552 350.682 86.6285 351.597 87.5432C352.512 88.4578 353.585 89.1578 354.817 89.6432C356.068 90.1285 357.412 90.3712 358.849 90.3712C360.286 90.3712 361.481 90.1938 362.433 89.8392C363.385 89.4845 364.272 88.9712 365.093 88.2992V84.3792C364.645 84.9018 364.113 85.3778 363.497 85.8072C362.9 86.2178 362.228 86.5445 361.481 86.7872C360.734 87.0298 359.894 87.1512 358.961 87.1512C357.766 87.1512 356.656 86.8712 355.629 86.3112C354.621 85.7325 353.8 84.9205 353.165 83.8752C352.549 82.8298 352.241 81.6165 352.241 80.2352ZM371.936 68.1952H368.912V90.0352H371.936V68.1952ZM377.2 82.1952V90.0352H380.252V81.7752C380.252 80.6738 380.084 79.7592 379.748 79.0312C379.412 78.2845 378.908 77.7245 378.236 77.3512C377.583 76.9778 376.78 76.7912 375.828 76.7912C374.858 76.7912 374.027 77.0338 373.336 77.5192C372.664 78.0045 372.142 78.6485 371.768 79.4512C371.395 80.2538 371.208 81.1685 371.208 82.1952H371.936C371.936 81.6165 372.058 81.1125 372.3 80.6832C372.543 80.2538 372.879 79.9178 373.308 79.6752C373.738 79.4325 374.232 79.3112 374.792 79.3112C375.632 79.3112 376.239 79.5538 376.612 80.0392C377.004 80.5245 377.2 81.2432 377.2 82.1952ZM383.976 72.0312C383.976 72.5352 384.163 72.9738 384.536 73.3472C384.928 73.7018 385.376 73.8792 385.88 73.8792C386.422 73.8792 386.87 73.7018 387.224 73.3472C387.598 72.9738 387.784 72.5352 387.784 72.0312C387.784 71.5085 387.598 71.0698 387.224 70.7152C386.87 70.3605 386.422 70.1832 385.88 70.1832C385.376 70.1832 384.928 70.3605 384.536 70.7152C384.163 71.0698 383.976 71.5085 383.976 72.0312ZM384.396 77.1552V90.0352H387.364V77.1552H384.396ZM394.466 96.1952V77.1552H391.414V96.1952H394.466ZM405.134 83.5952C405.134 82.1578 404.844 80.9352 404.266 79.9272C403.687 78.9192 402.922 78.1538 401.97 77.6312C401.018 77.0898 399.982 76.8192 398.862 76.8192C397.76 76.8192 396.799 77.0992 395.978 77.6592C395.175 78.2005 394.55 78.9752 394.102 79.9832C393.672 80.9912 393.458 82.1952 393.458 83.5952C393.458 84.9765 393.672 86.1805 394.102 87.2072C394.55 88.2152 395.175 88.9992 395.978 89.5592C396.799 90.1005 397.76 90.3712 398.862 90.3712C399.982 90.3712 401.018 90.1098 401.97 89.5872C402.922 89.0458 403.687 88.2712 404.266 87.2632C404.844 86.2365 405.134 85.0138 405.134 83.5952ZM401.998 83.5952C401.998 84.4538 401.82 85.1912 401.466 85.8072C401.111 86.4045 400.635 86.8618 400.038 87.1792C399.459 87.4778 398.815 87.6272 398.106 87.6272C397.527 87.6272 396.958 87.4778 396.398 87.1792C395.838 86.8618 395.371 86.4045 394.998 85.8072C394.643 85.2098 394.466 84.4725 394.466 83.5952C394.466 82.7178 394.643 81.9805 394.998 81.3832C395.371 80.7858 395.838 80.3378 396.398 80.0392C396.958 79.7218 397.527 79.5632 398.106 79.5632C398.815 79.5632 399.459 79.7218 400.038 80.0392C400.635 80.3378 401.111 80.7952 401.466 81.4112C401.82 82.0085 401.998 82.7365 401.998 83.5952ZM408.602 85.8072L406.838 87.5712C407.211 88.0565 407.669 88.5232 408.21 88.9712C408.77 89.4005 409.414 89.7552 410.142 90.0352C410.889 90.2965 411.701 90.4272 412.578 90.4272C413.997 90.4272 415.117 90.0632 415.938 89.3352C416.778 88.5885 417.198 87.6085 417.198 86.3952C417.198 85.6112 417.011 84.9765 416.638 84.4912C416.283 84.0058 415.807 83.5952 415.21 83.2592C414.613 82.9232 413.959 82.6152 413.25 82.3352C412.727 82.1298 412.251 81.9338 411.822 81.7472C411.411 81.5605 411.075 81.3552 410.814 81.1312C410.571 80.8885 410.45 80.6178 410.45 80.3192C410.45 79.9645 410.59 79.6938 410.87 79.5072C411.15 79.3205 411.505 79.2272 411.934 79.2272C412.569 79.2272 413.185 79.3858 413.782 79.7032C414.379 80.0205 414.893 80.4312 415.322 80.9352L417.002 79.1432C416.647 78.7138 416.218 78.3312 415.714 77.9952C415.21 77.6592 414.641 77.3885 414.006 77.1832C413.39 76.9778 412.727 76.8752 412.018 76.8752C411.234 76.8752 410.497 77.0058 409.806 77.2672C409.134 77.5098 408.593 77.8925 408.182 78.4152C407.79 78.9378 407.594 79.5912 407.594 80.3752C407.594 81.1405 407.771 81.7752 408.126 82.2792C408.499 82.7832 408.966 83.1938 409.526 83.5112C410.105 83.8098 410.683 84.0712 411.262 84.2952C411.841 84.5005 412.345 84.7058 412.774 84.9112C413.203 85.0978 413.539 85.3312 413.782 85.6112C414.025 85.8725 414.146 86.1898 414.146 86.5632C414.146 86.9925 413.987 87.3285 413.67 87.5712C413.371 87.8138 412.951 87.9352 412.41 87.9352C411.981 87.9352 411.551 87.8605 411.122 87.7112C410.693 87.5432 410.263 87.3005 409.834 86.9832C409.423 86.6472 409.013 86.2552 408.602 85.8072ZM421.785 86.9552L419.321 94.2072L421.561 94.8232L424.809 87.8232L421.785 86.9552ZM437.332 70.4352V90.0352H440.636V70.4352H437.332ZM439.292 73.3472H443.24C444.379 73.3472 445.294 73.6178 445.984 74.1592C446.675 74.6818 447.02 75.4658 447.02 76.5112C447.02 77.5565 446.675 78.3498 445.984 78.8912C445.294 79.4325 444.379 79.7032 443.24 79.7032H439.292V82.6152H443.24C444.659 82.6152 445.891 82.3725 446.936 81.8872C448 81.3832 448.822 80.6738 449.4 79.7592C449.979 78.8445 450.268 77.7618 450.268 76.5112C450.268 75.2605 449.979 74.1872 449.4 73.2912C448.822 72.3765 448 71.6765 446.936 71.1912C445.891 70.6872 444.659 70.4352 443.24 70.4352H439.292V73.3472ZM451.44 83.5952C451.44 84.9018 451.739 86.0685 452.336 87.0952C452.952 88.1032 453.783 88.8965 454.828 89.4752C455.874 90.0352 457.059 90.3152 458.384 90.3152C459.71 90.3152 460.886 90.0352 461.912 89.4752C462.958 88.8965 463.788 88.1032 464.404 87.0952C465.02 86.0685 465.328 84.9018 465.328 83.5952C465.328 82.2698 465.02 81.1032 464.404 80.0952C463.788 79.0872 462.958 78.3032 461.912 77.7432C460.886 77.1645 459.71 76.8752 458.384 76.8752C457.059 76.8752 455.874 77.1645 454.828 77.7432C453.783 78.3032 452.952 79.0872 452.336 80.0952C451.739 81.1032 451.44 82.2698 451.44 83.5952ZM454.548 83.5952C454.548 82.7925 454.716 82.0832 455.052 81.4672C455.388 80.8512 455.846 80.3752 456.424 80.0392C457.003 79.7032 457.656 79.5352 458.384 79.5352C459.094 79.5352 459.738 79.7032 460.316 80.0392C460.914 80.3752 461.38 80.8512 461.716 81.4672C462.052 82.0832 462.22 82.7925 462.22 83.5952C462.22 84.3978 462.052 85.1072 461.716 85.7232C461.38 86.3205 460.914 86.7965 460.316 87.1512C459.738 87.4872 459.094 87.6552 458.384 87.6552C457.656 87.6552 457.003 87.4872 456.424 87.1512C455.846 86.7965 455.388 86.3205 455.052 85.7232C454.716 85.1072 454.548 84.3978 454.548 83.5952ZM471.138 96.1952V77.1552H468.086V96.1952H471.138ZM481.806 83.5952C481.806 82.1578 481.516 80.9352 480.938 79.9272C480.359 78.9192 479.594 78.1538 478.642 77.6312C477.69 77.0898 476.654 76.8192 475.534 76.8192C474.432 76.8192 473.471 77.0992 472.65 77.6592C471.847 78.2005 471.222 78.9752 470.774 79.9832C470.344 80.9912 470.13 82.1952 470.13 83.5952C470.13 84.9765 470.344 86.1805 470.774 87.2072C471.222 88.2152 471.847 88.9992 472.65 89.5592C473.471 90.1005 474.432 90.3712 475.534 90.3712C476.654 90.3712 477.69 90.1098 478.642 89.5872C479.594 89.0458 480.359 88.2712 480.938 87.2632C481.516 86.2365 481.806 85.0138 481.806 83.5952ZM478.67 83.5952C478.67 84.4538 478.492 85.1912 478.138 85.8072C477.783 86.4045 477.307 86.8618 476.71 87.1792C476.131 87.4778 475.487 87.6272 474.778 87.6272C474.199 87.6272 473.63 87.4778 473.07 87.1792C472.51 86.8618 472.043 86.4045 471.67 85.8072C471.315 85.2098 471.138 84.4725 471.138 83.5952C471.138 82.7178 471.315 81.9805 471.67 81.3832C472.043 80.7858 472.51 80.3378 473.07 80.0392C473.63 79.7218 474.199 79.5632 474.778 79.5632C475.487 79.5632 476.131 79.7218 476.71 80.0392C477.307 80.3378 477.783 80.7952 478.138 81.4112C478.492 82.0085 478.67 82.7365 478.67 83.5952ZM492.1 83.5952C492.1 84.9018 492.399 86.0685 492.996 87.0952C493.612 88.1032 494.443 88.8965 495.488 89.4752C496.534 90.0352 497.719 90.3152 499.044 90.3152C500.37 90.3152 501.546 90.0352 502.572 89.4752C503.618 88.8965 504.448 88.1032 505.064 87.0952C505.68 86.0685 505.988 84.9018 505.988 83.5952C505.988 82.2698 505.68 81.1032 505.064 80.0952C504.448 79.0872 503.618 78.3032 502.572 77.7432C501.546 77.1645 500.37 76.8752 499.044 76.8752C497.719 76.8752 496.534 77.1645 495.488 77.7432C494.443 78.3032 493.612 79.0872 492.996 80.0952C492.399 81.1032 492.1 82.2698 492.1 83.5952ZM495.208 83.5952C495.208 82.7925 495.376 82.0832 495.712 81.4672C496.048 80.8512 496.506 80.3752 497.084 80.0392C497.663 79.7032 498.316 79.5352 499.044 79.5352C499.754 79.5352 500.398 79.7032 500.976 80.0392C501.574 80.3752 502.04 80.8512 502.376 81.4672C502.712 82.0832 502.88 82.7925 502.88 83.5952C502.88 84.3978 502.712 85.1072 502.376 85.7232C502.04 86.3205 501.574 86.7965 500.976 87.1512C500.398 87.4872 499.754 87.6552 499.044 87.6552C498.316 87.6552 497.663 87.4872 497.084 87.1512C496.506 86.7965 496.048 86.3205 495.712 85.7232C495.376 85.1072 495.208 84.3978 495.208 83.5952ZM511.854 77.1552H508.858V90.0352H511.854V77.1552ZM515.69 80.3752L517.146 77.8272C516.866 77.4725 516.52 77.2298 516.11 77.0992C515.699 76.9498 515.26 76.8752 514.794 76.8752C514.14 76.8752 513.506 77.1085 512.89 77.5752C512.292 78.0418 511.798 78.6765 511.406 79.4792C511.032 80.2632 510.846 81.1685 510.846 82.1952L511.854 82.7832C511.854 82.1672 511.919 81.6352 512.05 81.1872C512.199 80.7205 512.432 80.3565 512.75 80.0952C513.067 79.8338 513.478 79.7032 513.982 79.7032C514.355 79.7032 514.663 79.7592 514.906 79.8712C515.148 79.9832 515.41 80.1512 515.69 80.3752ZM523.752 92.4992L521.988 94.9352C522.23 95.1405 522.557 95.3552 522.968 95.5792C523.378 95.8032 523.854 95.9898 524.396 96.1392C524.937 96.3072 525.497 96.3912 526.076 96.3912C526.822 96.3912 527.513 96.2978 528.148 96.1112C528.782 95.9432 529.324 95.6632 529.772 95.2712C530.238 94.8792 530.602 94.3845 530.864 93.7872C531.125 93.1898 531.256 92.4805 531.256 91.6592V70.4352H527.868V91.0432C527.868 91.9392 527.662 92.5645 527.252 92.9192C526.841 93.2925 526.421 93.4792 525.992 93.4792C525.525 93.4792 525.096 93.3858 524.704 93.1992C524.312 93.0125 523.994 92.7792 523.752 92.4992ZM538.462 84.9952V77.1552H535.354V85.3312C535.354 86.8618 535.737 88.0752 536.502 88.9712C537.286 89.8672 538.397 90.3152 539.834 90.3152C540.73 90.3152 541.495 90.1285 542.13 89.7552C542.783 89.3632 543.315 88.7938 543.726 88.0472V90.0352H546.75V77.1552H543.726V84.9952C543.726 85.5738 543.605 86.0872 543.362 86.5352C543.119 86.9645 542.783 87.3005 542.354 87.5432C541.925 87.7672 541.421 87.8792 540.842 87.8792C540.039 87.8792 539.442 87.6272 539.05 87.1232C538.658 86.6192 538.462 85.9098 538.462 84.9952ZM550.5 72.0312C550.5 72.5352 550.686 72.9738 551.06 73.3472C551.452 73.7018 551.9 73.8792 552.404 73.8792C552.945 73.8792 553.393 73.7018 553.748 73.3472C554.121 72.9738 554.308 72.5352 554.308 72.0312C554.308 71.5085 554.121 71.0698 553.748 70.7152C553.393 70.3605 552.945 70.1832 552.404 70.1832C551.9 70.1832 551.452 70.3605 551.06 70.7152C550.686 71.0698 550.5 71.5085 550.5 72.0312ZM550.92 77.1552V90.0352H553.888V77.1552H550.92ZM560.065 83.5952C560.065 82.7925 560.243 82.0832 560.597 81.4672C560.952 80.8512 561.428 80.3658 562.025 80.0112C562.641 79.6565 563.323 79.4792 564.069 79.4792C564.667 79.4792 565.245 79.5725 565.805 79.7592C566.365 79.9458 566.86 80.2072 567.289 80.5432C567.737 80.8605 568.064 81.2338 568.269 81.6632V78.3312C567.821 77.8832 567.215 77.5285 566.449 77.2672C565.684 77.0058 564.844 76.8752 563.929 76.8752C562.604 76.8752 561.409 77.1645 560.345 77.7432C559.3 78.3032 558.469 79.0872 557.853 80.0952C557.256 81.1032 556.957 82.2698 556.957 83.5952C556.957 84.9018 557.256 86.0685 557.853 87.0952C558.469 88.1032 559.3 88.8965 560.345 89.4752C561.409 90.0352 562.604 90.3152 563.929 90.3152C564.844 90.3152 565.684 90.1845 566.449 89.9232C567.215 89.6618 567.821 89.3072 568.269 88.8592V85.5272C568.064 85.9378 567.747 86.3112 567.317 86.6472C566.888 86.9832 566.393 87.2445 565.833 87.4312C565.273 87.6178 564.685 87.7112 564.069 87.7112C563.323 87.7112 562.641 87.5338 562.025 87.1792C561.428 86.8245 560.952 86.3485 560.597 85.7512C560.243 85.1352 560.065 84.4165 560.065 83.5952ZM577.212 90.3152C578.705 90.3152 579.984 90.0258 581.048 89.4472C582.112 88.8685 582.98 88.0005 583.652 86.8432L581.048 85.7792C580.637 86.4698 580.124 86.9832 579.508 87.3192C578.892 87.6552 578.173 87.8232 577.352 87.8232C576.568 87.8232 575.896 87.6552 575.336 87.3192C574.794 86.9832 574.384 86.4978 574.104 85.8632C573.824 85.2098 573.684 84.4165 573.684 83.4832C573.702 82.5498 573.852 81.7658 574.132 81.1312C574.412 80.4965 574.822 80.0112 575.364 79.6752C575.905 79.3392 576.558 79.1712 577.324 79.1712C577.958 79.1712 578.509 79.3112 578.976 79.5912C579.461 79.8712 579.834 80.2632 580.096 80.7672C580.376 81.2712 580.516 81.8685 580.516 82.5592C580.516 82.6898 580.478 82.8578 580.404 83.0632C580.348 83.2498 580.292 83.3992 580.236 83.5112L581.16 82.2232H572.424V84.2952H583.736C583.754 84.2205 583.764 84.0992 583.764 83.9312C583.782 83.7632 583.792 83.6045 583.792 83.4552C583.792 82.0738 583.53 80.8978 583.008 79.9272C582.504 78.9378 581.776 78.1818 580.824 77.6592C579.872 77.1365 578.714 76.8752 577.352 76.8752C575.989 76.8752 574.804 77.1552 573.796 77.7152C572.788 78.2565 572.004 79.0312 571.444 80.0392C570.902 81.0472 570.632 82.2325 570.632 83.5952C570.632 84.9392 570.902 86.1152 571.444 87.1232C571.985 88.1312 572.75 88.9152 573.74 89.4752C574.748 90.0352 575.905 90.3152 577.212 90.3152ZM587.188 86.9552L584.724 94.2072L586.964 94.8232L590.212 87.8232L587.188 86.9552ZM602.651 75.0272L607.187 73.7672V90.0352H610.463V70.1272L602.651 71.8912V75.0272ZM633.715 82.5872H639.735C639.567 83.2405 639.315 83.8565 638.979 84.4352C638.643 85.0138 638.223 85.5272 637.719 85.9752C637.215 86.4232 636.618 86.7685 635.927 87.0112C635.236 87.2538 634.452 87.3752 633.575 87.3752C632.287 87.3752 631.13 87.0765 630.103 86.4792C629.076 85.8818 628.255 85.0512 627.639 83.9872C627.042 82.9045 626.743 81.6538 626.743 80.2352C626.743 78.7978 627.051 77.5565 627.667 76.5112C628.283 75.4472 629.104 74.6258 630.131 74.0472C631.158 73.4498 632.306 73.1512 633.575 73.1512C634.938 73.1512 636.095 73.4312 637.047 73.9912C638.018 74.5512 638.774 75.2978 639.315 76.2312L642.003 74.4392C641.424 73.5245 640.715 72.7498 639.875 72.1152C639.054 71.4618 638.12 70.9672 637.075 70.6312C636.03 70.2765 634.863 70.0992 633.575 70.0992C632.1 70.0992 630.728 70.3418 629.459 70.8272C628.208 71.3125 627.116 72.0125 626.183 72.9272C625.268 73.8232 624.55 74.8965 624.027 76.1472C623.523 77.3792 623.271 78.7418 623.271 80.2352C623.271 81.7285 623.523 83.1005 624.027 84.3512C624.531 85.6018 625.24 86.6845 626.155 87.5992C627.088 88.5138 628.18 89.2232 629.431 89.7272C630.682 90.2125 632.044 90.4552 633.519 90.4552C635.068 90.4552 636.45 90.1752 637.663 89.6152C638.895 89.0365 639.922 88.2525 640.743 87.2632C641.564 86.2738 642.18 85.1445 642.591 83.8752C643.002 82.5872 643.188 81.2245 643.151 79.7872H633.715V82.5872ZM648.191 86.0312C648.191 85.6205 648.285 85.2752 648.471 84.9952C648.677 84.7152 648.975 84.5005 649.367 84.3512C649.759 84.1832 650.273 84.0992 650.907 84.0992C651.635 84.0992 652.326 84.1925 652.979 84.3792C653.633 84.5658 654.249 84.8645 654.827 85.2752V83.7352C654.659 83.5298 654.37 83.3058 653.959 83.0632C653.549 82.8018 653.026 82.5778 652.391 82.3912C651.775 82.2045 651.038 82.1112 650.179 82.1112C648.574 82.1112 647.333 82.4845 646.455 83.2312C645.578 83.9592 645.139 84.9485 645.139 86.1992C645.139 87.0765 645.345 87.8232 645.755 88.4392C646.166 89.0552 646.717 89.5218 647.407 89.8392C648.098 90.1565 648.845 90.3152 649.647 90.3152C650.394 90.3152 651.122 90.1845 651.831 89.9232C652.559 89.6432 653.157 89.2325 653.623 88.6912C654.109 88.1312 654.351 87.4405 654.351 86.6192L653.903 84.9392C653.903 85.5738 653.745 86.1338 653.427 86.6192C653.129 87.0858 652.727 87.4405 652.223 87.6832C651.738 87.9258 651.197 88.0472 650.599 88.0472C650.133 88.0472 649.713 87.9725 649.339 87.8232C648.985 87.6738 648.705 87.4498 648.499 87.1512C648.294 86.8338 648.191 86.4605 648.191 86.0312ZM647.239 80.5152C647.426 80.3845 647.706 80.2258 648.079 80.0392C648.471 79.8338 648.929 79.6658 649.451 79.5352C649.993 79.3858 650.562 79.3112 651.159 79.3112C651.551 79.3112 651.915 79.3485 652.251 79.4232C652.587 79.4978 652.877 79.6192 653.119 79.7872C653.362 79.9552 653.549 80.1698 653.679 80.4312C653.829 80.6925 653.903 81.0285 653.903 81.4392V90.0352H656.871V80.8512C656.871 79.9925 656.638 79.2738 656.171 78.6952C655.705 78.0978 655.061 77.6405 654.239 77.3232C653.437 77.0058 652.503 76.8472 651.439 76.8472C650.245 76.8472 649.181 77.0152 648.247 77.3512C647.333 77.6872 646.586 78.0325 646.007 78.3872L647.239 80.5152ZM678.821 81.8592C678.821 80.7952 678.672 79.8898 678.373 79.1432C678.074 78.3965 677.617 77.8365 677.001 77.4632C676.404 77.0712 675.648 76.8752 674.733 76.8752C673.856 76.8752 673.072 77.0712 672.381 77.4632C671.709 77.8552 671.149 78.4245 670.701 79.1712C670.421 78.4245 669.964 77.8552 669.329 77.4632C668.713 77.0712 667.929 76.8752 666.977 76.8752C666.156 76.8752 665.437 77.0618 664.821 77.4352C664.224 77.7898 663.738 78.3218 663.365 79.0312V77.1552H660.397V90.0352H663.365V82.1952C663.365 81.5792 663.468 81.0565 663.673 80.6272C663.878 80.1978 664.168 79.8712 664.541 79.6472C664.933 79.4232 665.39 79.3112 665.913 79.3112C666.66 79.3112 667.201 79.5538 667.537 80.0392C667.892 80.5058 668.069 81.2245 668.069 82.1952V90.0352H671.093V82.1952C671.093 81.5792 671.196 81.0565 671.401 80.6272C671.625 80.1978 671.924 79.8712 672.297 79.6472C672.689 79.4232 673.137 79.3112 673.641 79.3112C674.388 79.3112 674.929 79.5538 675.265 80.0392C675.62 80.5058 675.797 81.2245 675.797 82.1952V90.0352H678.821V81.8592ZM688.282 90.3152C689.775 90.3152 691.054 90.0258 692.118 89.4472C693.182 88.8685 694.05 88.0005 694.722 86.8432L692.118 85.7792C691.707 86.4698 691.194 86.9832 690.578 87.3192C689.962 87.6552 689.243 87.8232 688.422 87.8232C687.638 87.8232 686.966 87.6552 686.406 87.3192C685.865 86.9832 685.454 86.4978 685.174 85.8632C684.894 85.2098 684.754 84.4165 684.754 83.4832C684.773 82.5498 684.922 81.7658 685.202 81.1312C685.482 80.4965 685.893 80.0112 686.434 79.6752C686.975 79.3392 687.629 79.1712 688.394 79.1712C689.029 79.1712 689.579 79.3112 690.046 79.5912C690.531 79.8712 690.905 80.2632 691.166 80.7672C691.446 81.2712 691.586 81.8685 691.586 82.5592C691.586 82.6898 691.549 82.8578 691.474 83.0632C691.418 83.2498 691.362 83.3992 691.306 83.5112L692.23 82.2232H683.494V84.2952H694.806C694.825 84.2205 694.834 84.0992 694.834 83.9312C694.853 83.7632 694.862 83.6045 694.862 83.4552C694.862 82.0738 694.601 80.8978 694.078 79.9272C693.574 78.9378 692.846 78.1818 691.894 77.6592C690.942 77.1365 689.785 76.8752 688.422 76.8752C687.059 76.8752 685.874 77.1552 684.866 77.7152C683.858 78.2565 683.074 79.0312 682.514 80.0392C681.973 81.0472 681.702 82.2325 681.702 83.5952C681.702 84.9392 681.973 86.1152 682.514 87.1232C683.055 88.1312 683.821 88.9152 684.81 89.4752C685.818 90.0352 686.975 90.3152 688.282 90.3152ZM705.163 83.5952C705.163 84.9018 705.462 86.0685 706.059 87.0952C706.675 88.1032 707.506 88.8965 708.551 89.4752C709.596 90.0352 710.782 90.3152 712.107 90.3152C713.432 90.3152 714.608 90.0352 715.635 89.4752C716.68 88.8965 717.511 88.1032 718.127 87.0952C718.743 86.0685 719.051 84.9018 719.051 83.5952C719.051 82.2698 718.743 81.1032 718.127 80.0952C717.511 79.0872 716.68 78.3032 715.635 77.7432C714.608 77.1645 713.432 76.8752 712.107 76.8752C710.782 76.8752 709.596 77.1645 708.551 77.7432C707.506 78.3032 706.675 79.0872 706.059 80.0952C705.462 81.1032 705.163 82.2698 705.163 83.5952ZM708.271 83.5952C708.271 82.7925 708.439 82.0832 708.775 81.4672C709.111 80.8512 709.568 80.3752 710.147 80.0392C710.726 79.7032 711.379 79.5352 712.107 79.5352C712.816 79.5352 713.46 79.7032 714.039 80.0392C714.636 80.3752 715.103 80.8512 715.439 81.4672C715.775 82.0832 715.943 82.7925 715.943 83.5952C715.943 84.3978 715.775 85.1072 715.439 85.7232C715.103 86.3205 714.636 86.7965 714.039 87.1512C713.46 87.4872 712.816 87.6552 712.107 87.6552C711.379 87.6552 710.726 87.4872 710.147 87.1512C709.568 86.7965 709.111 86.3205 708.775 85.7232C708.439 85.1072 708.271 84.3978 708.271 83.5952ZM720.856 77.1552V79.8152H728.248V77.1552H720.856ZM727.912 71.4432L729.34 69.0912C729.191 68.9045 728.976 68.7178 728.696 68.5312C728.435 68.3445 728.118 68.1858 727.744 68.0552C727.371 67.9245 726.932 67.8592 726.428 67.8592C725.532 67.8592 724.776 68.0365 724.16 68.3912C723.544 68.7272 723.068 69.2312 722.732 69.9032C722.415 70.5565 722.256 71.3872 722.256 72.3952V90.0352H725.224V72.9832C725.224 72.4418 725.28 72.0032 725.392 71.6672C725.504 71.3312 725.654 71.0885 725.84 70.9392C726.046 70.7898 726.288 70.7152 726.568 70.7152C726.811 70.7152 727.044 70.7618 727.268 70.8552C727.511 70.9485 727.726 71.1445 727.912 71.4432ZM741.727 79.9272H745.115C746.347 79.9272 747.43 79.7498 748.363 79.3952C749.315 79.0405 750.053 78.5272 750.575 77.8552C751.117 77.1645 751.387 76.3338 751.387 75.3632C751.387 74.2432 751.117 73.3192 750.575 72.5912C750.053 71.8632 749.315 71.3218 748.363 70.9672C747.43 70.6125 746.347 70.4352 745.115 70.4352H739.207V90.0352H745.451C746.833 90.0352 748.046 89.8392 749.091 89.4472C750.155 89.0365 750.986 88.4112 751.583 87.5712C752.199 86.7312 752.507 85.6672 752.507 84.3792C752.507 83.4458 752.321 82.6432 751.947 81.9712C751.574 81.2992 751.051 80.7485 750.379 80.3192C749.726 79.8898 748.979 79.5725 748.139 79.3672C747.299 79.1618 746.403 79.0592 745.451 79.0592H741.727V80.8792H745.255C745.815 80.8792 746.329 80.9445 746.795 81.0752C747.262 81.1872 747.663 81.3832 747.999 81.6632C748.354 81.9245 748.625 82.2605 748.811 82.6712C749.017 83.0632 749.119 83.5205 749.119 84.0432C749.119 84.7712 748.951 85.3778 748.615 85.8632C748.279 86.3485 747.822 86.7125 747.243 86.9552C746.665 87.1978 746.002 87.3192 745.255 87.3192H742.511V73.1512H744.891C745.806 73.1512 746.553 73.3752 747.131 73.8232C747.71 74.2712 747.999 74.9058 747.999 75.7272C747.999 76.2685 747.869 76.7352 747.607 77.1272C747.346 77.5005 746.982 77.7898 746.515 77.9952C746.049 78.2005 745.507 78.3032 744.891 78.3032H741.727V79.9272ZM754.765 83.5952C754.765 84.9018 755.063 86.0685 755.66 87.0952C756.277 88.1032 757.107 88.8965 758.153 89.4752C759.198 90.0352 760.383 90.3152 761.709 90.3152C763.034 90.3152 764.21 90.0352 765.237 89.4752C766.282 88.8965 767.113 88.1032 767.729 87.0952C768.345 86.0685 768.653 84.9018 768.653 83.5952C768.653 82.2698 768.345 81.1032 767.729 80.0952C767.113 79.0872 766.282 78.3032 765.237 77.7432C764.21 77.1645 763.034 76.8752 761.709 76.8752C760.383 76.8752 759.198 77.1645 758.153 77.7432C757.107 78.3032 756.277 79.0872 755.66 80.0952C755.063 81.1032 754.765 82.2698 754.765 83.5952ZM757.873 83.5952C757.873 82.7925 758.041 82.0832 758.377 81.4672C758.713 80.8512 759.17 80.3752 759.749 80.0392C760.327 79.7032 760.981 79.5352 761.709 79.5352C762.418 79.5352 763.062 79.7032 763.641 80.0392C764.238 80.3752 764.705 80.8512 765.041 81.4672C765.377 82.0832 765.545 82.7925 765.545 83.5952C765.545 84.3978 765.377 85.1072 765.041 85.7232C764.705 86.3205 764.238 86.7965 763.641 87.1512C763.062 87.4872 762.418 87.6552 761.709 87.6552C760.981 87.6552 760.327 87.4872 759.749 87.1512C759.17 86.7965 758.713 86.3205 758.377 85.7232C758.041 85.1072 757.873 84.3978 757.873 83.5952ZM769.18 77.1552L775.2 90.9592L779.064 82.2512L783.096 90.9592L789.116 77.1552H785.84L782.816 84.8552L779.036 76.1752L775.48 84.8272L772.456 77.1552H769.18ZM791.045 68.1952V90.0352H794.069V68.1952H791.045ZM797.824 72.0312C797.824 72.5352 798.011 72.9738 798.384 73.3472C798.776 73.7018 799.224 73.8792 799.728 73.8792C800.269 73.8792 800.717 73.7018 801.072 73.3472C801.445 72.9738 801.632 72.5352 801.632 72.0312C801.632 71.5085 801.445 71.0698 801.072 70.7152C800.717 70.3605 800.269 70.1832 799.728 70.1832C799.224 70.1832 798.776 70.3605 798.384 70.7152C798.011 71.0698 797.824 71.5085 797.824 72.0312ZM798.244 77.1552V90.0352H801.212V77.1552H798.244ZM813.661 82.1952V90.0352H816.769V81.8592C816.769 80.3098 816.387 79.0965 815.621 78.2192C814.856 77.3232 813.745 76.8752 812.289 76.8752C811.393 76.8752 810.619 77.0618 809.965 77.4352C809.331 77.8085 808.808 78.3778 808.397 79.1432V77.1552H805.373V90.0352H808.397V82.1952C808.397 81.6165 808.519 81.1125 808.761 80.6832C809.004 80.2352 809.34 79.8992 809.769 79.6752C810.199 79.4325 810.693 79.3112 811.253 79.3112C812.075 79.3112 812.681 79.5538 813.073 80.0392C813.465 80.5245 813.661 81.2432 813.661 82.1952ZM819.903 90.9032C819.941 92.0232 820.221 93.0125 820.743 93.8712C821.285 94.7298 822.05 95.3925 823.039 95.8592C824.029 96.3445 825.223 96.5872 826.623 96.5872C827.799 96.5872 828.891 96.3352 829.899 95.8312C830.907 95.3458 831.719 94.5992 832.335 93.5912C832.97 92.5832 833.287 91.3045 833.287 89.7552V77.1552H830.319V89.7552C830.319 90.7258 830.133 91.5192 829.759 92.1352C829.405 92.7512 828.938 93.2085 828.359 93.5072C827.781 93.8058 827.174 93.9552 826.539 93.9552C825.83 93.9552 825.205 93.8245 824.663 93.5632C824.122 93.3018 823.693 92.9378 823.375 92.4712C823.077 92.0045 822.918 91.4818 822.899 90.9032H819.903ZM819.651 83.5392C819.651 84.9392 819.941 86.1338 820.519 87.1232C821.098 88.1125 821.863 88.8685 822.815 89.3912C823.786 89.9138 824.822 90.1752 825.923 90.1752C827.006 90.1752 827.949 89.9138 828.751 89.3912C829.573 88.8498 830.217 88.0845 830.683 87.0952C831.169 86.1058 831.411 84.9205 831.411 83.5392C831.411 82.1392 831.169 80.9445 830.683 79.9552C830.217 78.9658 829.573 78.2098 828.751 77.6872C827.949 77.1458 827.006 76.8752 825.923 76.8752C824.822 76.8752 823.786 77.1365 822.815 77.6592C821.863 78.1818 821.098 78.9378 820.519 79.9272C819.941 80.8978 819.651 82.1018 819.651 83.5392ZM822.787 83.5392C822.787 82.6618 822.965 81.9245 823.319 81.3272C823.674 80.7298 824.141 80.2818 824.719 79.9832C825.317 79.6658 825.961 79.5072 826.651 79.5072C827.081 79.5072 827.51 79.5912 827.939 79.7592C828.387 79.9272 828.789 80.1885 829.143 80.5432C829.498 80.8792 829.778 81.2992 829.983 81.8032C830.207 82.2885 830.319 82.8672 830.319 83.5392C830.319 84.3978 830.133 85.1352 829.759 85.7512C829.405 86.3485 828.938 86.7965 828.359 87.0952C827.799 87.3938 827.23 87.5432 826.651 87.5432C825.961 87.5432 825.317 87.3938 824.719 87.0952C824.141 86.7778 823.674 86.3205 823.319 85.7232C822.965 85.1258 822.787 84.3978 822.787 83.5392ZM838.941 86.9552L836.477 94.2072L838.717 94.8232L841.965 87.8232L838.941 86.9552ZM855.777 83.7352L853.313 85.4432C853.742 86.3392 854.321 87.1698 855.049 87.9352C855.777 88.7005 856.626 89.3165 857.597 89.7832C858.586 90.2312 859.659 90.4552 860.817 90.4552C861.657 90.4552 862.459 90.3152 863.225 90.0352C864.009 89.7738 864.709 89.4005 865.325 88.9152C865.941 88.4112 866.426 87.7952 866.781 87.0672C867.135 86.3392 867.313 85.5178 867.313 84.6032C867.313 83.7445 867.163 82.9978 866.865 82.3632C866.585 81.7285 866.202 81.1778 865.717 80.7112C865.231 80.2258 864.69 79.8245 864.093 79.5072C863.514 79.1898 862.935 78.9285 862.357 78.7232C861.311 78.3498 860.462 77.9858 859.809 77.6312C859.155 77.2765 858.67 76.9032 858.353 76.5112C858.054 76.1005 857.905 75.6432 857.905 75.1392C857.905 74.5792 858.119 74.0938 858.549 73.6832C858.978 73.2538 859.65 73.0392 860.565 73.0392C861.218 73.0392 861.787 73.1698 862.273 73.4312C862.777 73.6738 863.215 74.0098 863.589 74.4392C863.962 74.8498 864.27 75.2978 864.513 75.7832L867.201 74.2712C866.865 73.5805 866.398 72.9178 865.801 72.2832C865.222 71.6485 864.503 71.1258 863.645 70.7152C862.786 70.3045 861.778 70.0992 860.621 70.0992C859.445 70.0992 858.39 70.3232 857.457 70.7712C856.542 71.2005 855.814 71.8165 855.273 72.6192C854.731 73.4032 854.461 74.3178 854.461 75.3632C854.461 76.2778 854.638 77.0618 854.993 77.7152C855.347 78.3498 855.795 78.8912 856.337 79.3392C856.878 79.7685 857.447 80.1325 858.045 80.4312C858.642 80.7112 859.183 80.9352 859.669 81.1032C860.49 81.4018 861.209 81.7098 861.825 82.0272C862.459 82.3258 862.954 82.6992 863.309 83.1472C863.663 83.5765 863.841 84.1552 863.841 84.8832C863.841 85.6485 863.561 86.2738 863.001 86.7592C862.441 87.2445 861.713 87.4872 860.817 87.4872C860.07 87.4872 859.398 87.3378 858.801 87.0392C858.203 86.7218 857.653 86.2832 857.149 85.7232C856.663 85.1445 856.206 84.4818 855.777 83.7352ZM873.476 68.1952H870.452V90.0352H873.476V68.1952ZM878.74 82.1952V90.0352H881.792V81.7752C881.792 80.6738 881.624 79.7592 881.288 79.0312C880.952 78.2845 880.448 77.7245 879.776 77.3512C879.122 76.9778 878.32 76.7912 877.368 76.7912C876.397 76.7912 875.566 77.0338 874.876 77.5192C874.204 78.0045 873.681 78.6485 873.308 79.4512C872.934 80.2538 872.748 81.1685 872.748 82.1952H873.476C873.476 81.6165 873.597 81.1125 873.84 80.6832C874.082 80.2538 874.418 79.9178 874.848 79.6752C875.277 79.4325 875.772 79.3112 876.332 79.3112C877.172 79.3112 877.778 79.5538 878.152 80.0392C878.544 80.5245 878.74 81.2432 878.74 82.1952ZM884.647 83.5952C884.647 84.9018 884.946 86.0685 885.543 87.0952C886.159 88.1032 886.99 88.8965 888.035 89.4752C889.081 90.0352 890.266 90.3152 891.591 90.3152C892.917 90.3152 894.093 90.0352 895.119 89.4752C896.165 88.8965 896.995 88.1032 897.611 87.0952C898.227 86.0685 898.535 84.9018 898.535 83.5952C898.535 82.2698 898.227 81.1032 897.611 80.0952C896.995 79.0872 896.165 78.3032 895.119 77.7432C894.093 77.1645 892.917 76.8752 891.591 76.8752C890.266 76.8752 889.081 77.1645 888.035 77.7432C886.99 78.3032 886.159 79.0872 885.543 80.0952C884.946 81.1032 884.647 82.2698 884.647 83.5952ZM887.755 83.5952C887.755 82.7925 887.923 82.0832 888.259 81.4672C888.595 80.8512 889.053 80.3752 889.631 80.0392C890.21 79.7032 890.863 79.5352 891.591 79.5352C892.301 79.5352 892.945 79.7032 893.523 80.0392C894.121 80.3752 894.587 80.8512 894.923 81.4672C895.259 82.0832 895.427 82.7925 895.427 83.5952C895.427 84.3978 895.259 85.1072 894.923 85.7232C894.587 86.3205 894.121 86.7965 893.523 87.1512C892.945 87.4872 892.301 87.6552 891.591 87.6552C890.863 87.6552 890.21 87.4872 889.631 87.1512C889.053 86.7965 888.595 86.3205 888.259 85.7232C887.923 85.1072 887.755 84.3978 887.755 83.5952ZM907.005 90.3152C908.498 90.3152 909.777 90.0258 910.841 89.4472C911.905 88.8685 912.773 88.0005 913.445 86.8432L910.841 85.7792C910.43 86.4698 909.917 86.9832 909.301 87.3192C908.685 87.6552 907.966 87.8232 907.145 87.8232C906.361 87.8232 905.689 87.6552 905.129 87.3192C904.587 86.9832 904.177 86.4978 903.897 85.8632C903.617 85.2098 903.477 84.4165 903.477 83.4832C903.495 82.5498 903.645 81.7658 903.925 81.1312C904.205 80.4965 904.615 80.0112 905.157 79.6752C905.698 79.3392 906.351 79.1712 907.117 79.1712C907.751 79.1712 908.302 79.3112 908.769 79.5912C909.254 79.8712 909.627 80.2632 909.889 80.7672C910.169 81.2712 910.309 81.8685 910.309 82.5592C910.309 82.6898 910.271 82.8578 910.197 83.0632C910.141 83.2498 910.085 83.3992 910.029 83.5112L910.953 82.2232H902.217V84.2952H913.529C913.547 84.2205 913.557 84.0992 913.557 83.9312C913.575 83.7632 913.585 83.6045 913.585 83.4552C913.585 82.0738 913.323 80.8978 912.801 79.9272C912.297 78.9378 911.569 78.1818 910.617 77.6592C909.665 77.1365 908.507 76.8752 907.145 76.8752C905.782 76.8752 904.597 77.1552 903.589 77.7152C902.581 78.2565 901.797 79.0312 901.237 80.0392C900.695 81.0472 900.425 82.2325 900.425 83.5952C900.425 84.9392 900.695 86.1152 901.237 87.1232C901.778 88.1312 902.543 88.9152 903.533 89.4752C904.541 90.0352 905.698 90.3152 907.005 90.3152ZM929.15 80.6832L935.394 90.0352H939.37L932.734 80.6832H929.15ZM925.118 70.4352V90.0352H928.422V70.4352H925.118ZM927.078 73.2912H931.026C931.772 73.2912 932.426 73.4218 932.986 73.6832C933.564 73.9445 934.012 74.3178 934.33 74.8032C934.647 75.2885 934.806 75.8858 934.806 76.5952C934.806 77.2858 934.647 77.8832 934.33 78.3872C934.012 78.8725 933.564 79.2458 932.986 79.5072C932.426 79.7685 931.772 79.8992 931.026 79.8992H927.078V82.6152H931.166C932.584 82.6152 933.816 82.3632 934.862 81.8592C935.926 81.3552 936.747 80.6458 937.326 79.7312C937.904 78.8165 938.194 77.7432 938.194 76.5112C938.194 75.2792 937.904 74.2152 937.326 73.3192C936.747 72.4045 935.926 71.6952 934.862 71.1912C933.816 70.6872 932.584 70.4352 931.166 70.4352H927.078V73.2912ZM947.118 90.3152C948.611 90.3152 949.89 90.0258 950.954 89.4472C952.018 88.8685 952.886 88.0005 953.558 86.8432L950.954 85.7792C950.543 86.4698 950.03 86.9832 949.414 87.3192C948.798 87.6552 948.079 87.8232 947.258 87.8232C946.474 87.8232 945.802 87.6552 945.242 87.3192C944.701 86.9832 944.29 86.4978 944.01 85.8632C943.73 85.2098 943.59 84.4165 943.59 83.4832C943.609 82.5498 943.758 81.7658 944.038 81.1312C944.318 80.4965 944.729 80.0112 945.27 79.6752C945.811 79.3392 946.465 79.1712 947.23 79.1712C947.865 79.1712 948.415 79.3112 948.882 79.5912C949.367 79.8712 949.741 80.2632 950.002 80.7672C950.282 81.2712 950.422 81.8685 950.422 82.5592C950.422 82.6898 950.385 82.8578 950.31 83.0632C950.254 83.2498 950.198 83.3992 950.142 83.5112L951.066 82.2232H942.33V84.2952H953.642C953.661 84.2205 953.67 84.0992 953.67 83.9312C953.689 83.7632 953.698 83.6045 953.698 83.4552C953.698 82.0738 953.437 80.8978 952.914 79.9272C952.41 78.9378 951.682 78.1818 950.73 77.6592C949.778 77.1365 948.621 76.8752 947.258 76.8752C945.895 76.8752 944.71 77.1552 943.702 77.7152C942.694 78.2565 941.91 79.0312 941.35 80.0392C940.809 81.0472 940.538 82.2325 940.538 83.5952C940.538 84.9392 940.809 86.1152 941.35 87.1232C941.891 88.1312 942.657 88.9152 943.646 89.4752C944.654 90.0352 945.811 90.3152 947.118 90.3152ZM964.872 82.1952V90.0352H967.98V81.8592C967.98 80.3098 967.598 79.0965 966.832 78.2192C966.067 77.3232 964.956 76.8752 963.5 76.8752C962.604 76.8752 961.83 77.0618 961.176 77.4352C960.542 77.8085 960.019 78.3778 959.608 79.1432V77.1552H956.584V90.0352H959.608V82.1952C959.608 81.6165 959.73 81.1125 959.972 80.6832C960.215 80.2352 960.551 79.8992 960.98 79.6752C961.41 79.4325 961.904 79.3112 962.464 79.3112C963.286 79.3112 963.892 79.5538 964.284 80.0392C964.676 80.5245 964.872 81.2432 964.872 82.1952ZM970.05 77.1552V79.8152H977.358V77.1552H970.05ZM972.206 72.6752V90.0352H975.202V72.6752H972.206ZM981.348 86.0312C981.348 85.6205 981.441 85.2752 981.628 84.9952C981.833 84.7152 982.132 84.5005 982.524 84.3512C982.916 84.1832 983.429 84.0992 984.064 84.0992C984.792 84.0992 985.482 84.1925 986.136 84.3792C986.789 84.5658 987.405 84.8645 987.984 85.2752V83.7352C987.816 83.5298 987.526 83.3058 987.116 83.0632C986.705 82.8018 986.182 82.5778 985.548 82.3912C984.932 82.2045 984.194 82.1112 983.336 82.1112C981.73 82.1112 980.489 82.4845 979.612 83.2312C978.734 83.9592 978.296 84.9485 978.296 86.1992C978.296 87.0765 978.501 87.8232 978.912 88.4392C979.322 89.0552 979.873 89.5218 980.564 89.8392C981.254 90.1565 982.001 90.3152 982.804 90.3152C983.55 90.3152 984.278 90.1845 984.988 89.9232C985.716 89.6432 986.313 89.2325 986.78 88.6912C987.265 88.1312 987.508 87.4405 987.508 86.6192L987.06 84.9392C987.06 85.5738 986.901 86.1338 986.584 86.6192C986.285 87.0858 985.884 87.4405 985.38 87.6832C984.894 87.9258 984.353 88.0472 983.756 88.0472C983.289 88.0472 982.869 87.9725 982.496 87.8232C982.141 87.6738 981.861 87.4498 981.656 87.1512C981.45 86.8338 981.348 86.4605 981.348 86.0312ZM980.396 80.5152C980.582 80.3845 980.862 80.2258 981.236 80.0392C981.628 79.8338 982.085 79.6658 982.608 79.5352C983.149 79.3858 983.718 79.3112 984.316 79.3112C984.708 79.3112 985.072 79.3485 985.408 79.4232C985.744 79.4978 986.033 79.6192 986.276 79.7872C986.518 79.9552 986.705 80.1698 986.836 80.4312C986.985 80.6925 987.06 81.0285 987.06 81.4392V90.0352H990.028V80.8512C990.028 79.9925 989.794 79.2738 989.328 78.6952C988.861 78.0978 988.217 77.6405 987.396 77.3232C986.593 77.0058 985.66 76.8472 984.596 76.8472C983.401 76.8472 982.337 77.0152 981.404 77.3512C980.489 77.6872 979.742 78.0325 979.164 78.3872L980.396 80.5152ZM993.553 68.1952V90.0352H996.577V68.1952H993.553ZM1002.35 86.9552L999.884 94.2072L1002.12 94.8232L1005.37 87.8232L1002.35 86.9552ZM1017.81 75.0272L1022.35 73.7672V90.0352H1025.62V70.1272L1017.81 71.8912V75.0272ZM1040.87 81.0472H1054.84V77.9952H1040.87V81.0472ZM1052.71 70.4352V90.0352H1056.02V70.4352H1052.71ZM1039.55 70.4352V90.0352H1042.86V70.4352H1039.55ZM1059.16 83.5952C1059.16 84.9018 1059.45 86.0685 1060.05 87.0952C1060.67 88.1032 1061.5 88.8965 1062.54 89.4752C1063.59 90.0352 1064.77 90.3152 1066.1 90.3152C1067.42 90.3152 1068.6 90.0352 1069.63 89.4752C1070.67 88.8965 1071.5 88.1032 1072.12 87.0952C1072.74 86.0685 1073.04 84.9018 1073.04 83.5952C1073.04 82.2698 1072.74 81.1032 1072.12 80.0952C1071.5 79.0872 1070.67 78.3032 1069.63 77.7432C1068.6 77.1645 1067.42 76.8752 1066.1 76.8752C1064.77 76.8752 1063.59 77.1645 1062.54 77.7432C1061.5 78.3032 1060.67 79.0872 1060.05 80.0952C1059.45 81.1032 1059.16 82.2698 1059.16 83.5952ZM1062.26 83.5952C1062.26 82.7925 1062.43 82.0832 1062.77 81.4672C1063.1 80.8512 1063.56 80.3752 1064.14 80.0392C1064.72 79.7032 1065.37 79.5352 1066.1 79.5352C1066.81 79.5352 1067.45 79.7032 1068.03 80.0392C1068.63 80.3752 1069.1 80.8512 1069.43 81.4672C1069.77 82.0832 1069.94 82.7925 1069.94 83.5952C1069.94 84.3978 1069.77 85.1072 1069.43 85.7232C1069.1 86.3205 1068.63 86.7965 1068.03 87.1512C1067.45 87.4872 1066.81 87.6552 1066.1 87.6552C1065.37 87.6552 1064.72 87.4872 1064.14 87.1512C1063.56 86.7965 1063.1 86.3205 1062.77 85.7232C1062.43 85.1072 1062.26 84.3978 1062.26 83.5952ZM1079.02 84.9952V77.1552H1075.91V85.3312C1075.91 86.8618 1076.3 88.0752 1077.06 88.9712C1077.84 89.8672 1078.96 90.3152 1080.39 90.3152C1081.29 90.3152 1082.05 90.1285 1082.69 89.7552C1083.34 89.3632 1083.87 88.7938 1084.28 88.0472V90.0352H1087.31V77.1552H1084.28V84.9952C1084.28 85.5738 1084.16 86.0872 1083.92 86.5352C1083.68 86.9645 1083.34 87.3005 1082.91 87.5432C1082.48 87.7672 1081.98 87.8792 1081.4 87.8792C1080.6 87.8792 1080 87.6272 1079.61 87.1232C1079.22 86.6192 1079.02 85.9098 1079.02 84.9952ZM1094.17 77.1552H1091.17V90.0352H1094.17V77.1552ZM1098 80.3752L1099.46 77.8272C1099.18 77.4725 1098.83 77.2298 1098.42 77.0992C1098.01 76.9498 1097.57 76.8752 1097.11 76.8752C1096.45 76.8752 1095.82 77.1085 1095.2 77.5752C1094.6 78.0418 1094.11 78.6765 1093.72 79.4792C1093.34 80.2632 1093.16 81.1685 1093.16 82.1952L1094.17 82.7832C1094.17 82.1672 1094.23 81.6352 1094.36 81.1872C1094.51 80.7205 1094.74 80.3565 1095.06 80.0952C1095.38 79.8338 1095.79 79.7032 1096.29 79.7032C1096.67 79.7032 1096.98 79.7592 1097.22 79.8712C1097.46 79.9832 1097.72 80.1512 1098 80.3752ZM1109.82 72.0312C1109.82 72.5352 1110 72.9738 1110.38 73.3472C1110.77 73.7018 1111.22 73.8792 1111.72 73.8792C1112.26 73.8792 1112.71 73.7018 1113.06 73.3472C1113.44 72.9738 1113.62 72.5352 1113.62 72.0312C1113.62 71.5085 1113.44 71.0698 1113.06 70.7152C1112.71 70.3605 1112.26 70.1832 1111.72 70.1832C1111.22 70.1832 1110.77 70.3605 1110.38 70.7152C1110 71.0698 1109.82 71.5085 1109.82 72.0312ZM1110.24 77.1552V90.0352H1113.2V77.1552H1110.24ZM1125.65 82.1952V90.0352H1128.76V81.8592C1128.76 80.3098 1128.38 79.0965 1127.61 78.2192C1126.85 77.3232 1125.74 76.8752 1124.28 76.8752C1123.39 76.8752 1122.61 77.0618 1121.96 77.4352C1121.32 77.8085 1120.8 78.3778 1120.39 79.1432V77.1552H1117.37V90.0352H1120.39V82.1952C1120.39 81.6165 1120.51 81.1125 1120.75 80.6832C1121 80.2352 1121.33 79.8992 1121.76 79.6752C1122.19 79.4325 1122.69 79.3112 1123.25 79.3112C1124.07 79.3112 1124.67 79.5538 1125.07 80.0392C1125.46 80.5245 1125.65 81.2432 1125.65 82.1952ZM1141.27 70.4352V90.0352H1144.57V70.4352H1141.27ZM1143.23 73.3472H1147.18C1148.32 73.3472 1149.23 73.6178 1149.92 74.1592C1150.61 74.6818 1150.96 75.4658 1150.96 76.5112C1150.96 77.5565 1150.61 78.3498 1149.92 78.8912C1149.23 79.4325 1148.32 79.7032 1147.18 79.7032H1143.23V82.6152H1147.18C1148.6 82.6152 1149.83 82.3725 1150.87 81.8872C1151.94 81.3832 1152.76 80.6738 1153.34 79.7592C1153.92 78.8445 1154.21 77.7618 1154.21 76.5112C1154.21 75.2605 1153.92 74.1872 1153.34 73.2912C1152.76 72.3765 1151.94 71.6765 1150.87 71.1912C1149.83 70.6872 1148.6 70.4352 1147.18 70.4352H1143.23V73.3472ZM1158.26 86.0312C1158.26 85.6205 1158.36 85.2752 1158.54 84.9952C1158.75 84.7152 1159.05 84.5005 1159.44 84.3512C1159.83 84.1832 1160.34 84.0992 1160.98 84.0992C1161.71 84.0992 1162.4 84.1925 1163.05 84.3792C1163.7 84.5658 1164.32 84.8645 1164.9 85.2752V83.7352C1164.73 83.5298 1164.44 83.3058 1164.03 83.0632C1163.62 82.8018 1163.1 82.5778 1162.46 82.3912C1161.85 82.2045 1161.11 82.1112 1160.25 82.1112C1158.64 82.1112 1157.4 82.4845 1156.53 83.2312C1155.65 83.9592 1155.21 84.9485 1155.21 86.1992C1155.21 87.0765 1155.42 87.8232 1155.83 88.4392C1156.24 89.0552 1156.79 89.5218 1157.48 89.8392C1158.17 90.1565 1158.92 90.3152 1159.72 90.3152C1160.46 90.3152 1161.19 90.1845 1161.9 89.9232C1162.63 89.6432 1163.23 89.2325 1163.69 88.6912C1164.18 88.1312 1164.42 87.4405 1164.42 86.6192L1163.97 84.9392C1163.97 85.5738 1163.82 86.1338 1163.5 86.6192C1163.2 87.0858 1162.8 87.4405 1162.29 87.6832C1161.81 87.9258 1161.27 88.0472 1160.67 88.0472C1160.2 88.0472 1159.78 87.9725 1159.41 87.8232C1159.06 87.6738 1158.78 87.4498 1158.57 87.1512C1158.36 86.8338 1158.26 86.4605 1158.26 86.0312ZM1157.31 80.5152C1157.5 80.3845 1157.78 80.2258 1158.15 80.0392C1158.54 79.8338 1159 79.6658 1159.52 79.5352C1160.06 79.3858 1160.63 79.3112 1161.23 79.3112C1161.62 79.3112 1161.99 79.3485 1162.32 79.4232C1162.66 79.4978 1162.95 79.6192 1163.19 79.7872C1163.43 79.9552 1163.62 80.1698 1163.75 80.4312C1163.9 80.6925 1163.97 81.0285 1163.97 81.4392V90.0352H1166.94V80.8512C1166.94 79.9925 1166.71 79.2738 1166.24 78.6952C1165.78 78.0978 1165.13 77.6405 1164.31 77.3232C1163.51 77.0058 1162.57 76.8472 1161.51 76.8472C1160.32 76.8472 1159.25 77.0152 1158.32 77.3512C1157.4 77.6872 1156.66 78.0325 1156.08 78.3872L1157.31 80.5152ZM1173.46 77.1552H1170.47V90.0352H1173.46V77.1552ZM1177.3 80.3752L1178.76 77.8272C1178.48 77.4725 1178.13 77.2298 1177.72 77.0992C1177.31 76.9498 1176.87 76.8752 1176.4 76.8752C1175.75 76.8752 1175.12 77.1085 1174.5 77.5752C1173.9 78.0418 1173.41 78.6765 1173.02 79.4792C1172.64 80.2632 1172.46 81.1685 1172.46 82.1952L1173.46 82.7832C1173.46 82.1672 1173.53 81.6352 1173.66 81.1872C1173.81 80.7205 1174.04 80.3565 1174.36 80.0952C1174.68 79.8338 1175.09 79.7032 1175.59 79.7032C1175.96 79.7032 1176.27 79.7592 1176.52 79.8712C1176.76 79.9832 1177.02 80.1512 1177.3 80.3752ZM1179.04 77.1552V79.8152H1186.35V77.1552H1179.04ZM1181.19 72.6752V90.0352H1184.19V72.6752H1181.19ZM1199.83 77.1552H1196.58L1192.55 87.2632L1193.98 87.3472L1189.86 77.1552H1186.39L1191.57 88.5232L1188.21 96.1952H1191.43L1199.83 77.1552ZM270.876 120.683L277.12 130.035H281.096L274.46 120.683H270.876ZM266.844 110.435V130.035H270.148V110.435H266.844ZM268.804 113.291H272.752C273.499 113.291 274.152 113.422 274.712 113.683C275.291 113.944 275.739 114.318 276.056 114.803C276.373 115.288 276.532 115.886 276.532 116.595C276.532 117.286 276.373 117.883 276.056 118.387C275.739 118.872 275.291 119.246 274.712 119.507C274.152 119.768 273.499 119.899 272.752 119.899H268.804V122.615H272.892C274.311 122.615 275.543 122.363 276.588 121.859C277.652 121.355 278.473 120.646 279.052 119.731C279.631 118.816 279.92 117.743 279.92 116.511C279.92 115.279 279.631 114.215 279.052 113.319C278.473 112.404 277.652 111.695 276.588 111.191C275.543 110.687 274.311 110.435 272.892 110.435H268.804V113.291ZM282.265 123.595C282.265 124.902 282.563 126.068 283.16 127.095C283.777 128.103 284.607 128.896 285.653 129.475C286.698 130.035 287.883 130.315 289.209 130.315C290.534 130.315 291.71 130.035 292.737 129.475C293.782 128.896 294.613 128.103 295.229 127.095C295.845 126.068 296.153 124.902 296.153 123.595C296.153 122.27 295.845 121.103 295.229 120.095C294.613 119.087 293.782 118.303 292.737 117.743C291.71 117.164 290.534 116.875 289.209 116.875C287.883 116.875 286.698 117.164 285.653 117.743C284.607 118.303 283.777 119.087 283.16 120.095C282.563 121.103 282.265 122.27 282.265 123.595ZM285.373 123.595C285.373 122.792 285.541 122.083 285.877 121.467C286.213 120.851 286.67 120.375 287.249 120.039C287.827 119.703 288.481 119.535 289.209 119.535C289.918 119.535 290.562 119.703 291.141 120.039C291.738 120.375 292.205 120.851 292.541 121.467C292.877 122.083 293.045 122.792 293.045 123.595C293.045 124.398 292.877 125.107 292.541 125.723C292.205 126.32 291.738 126.796 291.141 127.151C290.562 127.487 289.918 127.655 289.209 127.655C288.481 127.655 287.827 127.487 287.249 127.151C286.67 126.796 286.213 126.32 285.877 125.723C285.541 125.107 285.373 124.398 285.373 123.595ZM298.042 123.595C298.042 124.902 298.341 126.068 298.938 127.095C299.554 128.103 300.385 128.896 301.43 129.475C302.475 130.035 303.661 130.315 304.986 130.315C306.311 130.315 307.487 130.035 308.514 129.475C309.559 128.896 310.39 128.103 311.006 127.095C311.622 126.068 311.93 124.902 311.93 123.595C311.93 122.27 311.622 121.103 311.006 120.095C310.39 119.087 309.559 118.303 308.514 117.743C307.487 117.164 306.311 116.875 304.986 116.875C303.661 116.875 302.475 117.164 301.43 117.743C300.385 118.303 299.554 119.087 298.938 120.095C298.341 121.103 298.042 122.27 298.042 123.595ZM301.15 123.595C301.15 122.792 301.318 122.083 301.654 121.467C301.99 120.851 302.447 120.375 303.026 120.039C303.605 119.703 304.258 119.535 304.986 119.535C305.695 119.535 306.339 119.703 306.918 120.039C307.515 120.375 307.982 120.851 308.318 121.467C308.654 122.083 308.822 122.792 308.822 123.595C308.822 124.398 308.654 125.107 308.318 125.723C307.982 126.32 307.515 126.796 306.918 127.151C306.339 127.487 305.695 127.655 304.986 127.655C304.258 127.655 303.605 127.487 303.026 127.151C302.447 126.796 301.99 126.32 301.654 125.723C301.318 125.107 301.15 124.398 301.15 123.595ZM333.223 121.859C333.223 120.795 333.074 119.89 332.775 119.143C332.477 118.396 332.019 117.836 331.403 117.463C330.806 117.071 330.05 116.875 329.135 116.875C328.258 116.875 327.474 117.071 326.783 117.463C326.111 117.855 325.551 118.424 325.103 119.171C324.823 118.424 324.366 117.855 323.731 117.463C323.115 117.071 322.331 116.875 321.379 116.875C320.558 116.875 319.839 117.062 319.223 117.435C318.626 117.79 318.141 118.322 317.767 119.031V117.155H314.799V130.035H317.767V122.195C317.767 121.579 317.87 121.056 318.075 120.627C318.281 120.198 318.57 119.871 318.943 119.647C319.335 119.423 319.793 119.311 320.315 119.311C321.062 119.311 321.603 119.554 321.939 120.039C322.294 120.506 322.471 121.224 322.471 122.195V130.035H325.495V122.195C325.495 121.579 325.598 121.056 325.803 120.627C326.027 120.198 326.326 119.871 326.699 119.647C327.091 119.423 327.539 119.311 328.043 119.311C328.79 119.311 329.331 119.554 329.667 120.039C330.022 120.506 330.199 121.224 330.199 122.195V130.035H333.223V121.859Z" fill="white"/>
<path d="M35.8676 145.435V165.035H39.1716V145.435H35.8676ZM37.8276 148.347H41.7756C42.9143 148.347 43.8289 148.618 44.5196 149.159C45.2103 149.682 45.5556 150.466 45.5556 151.511C45.5556 152.556 45.2103 153.35 44.5196 153.891C43.8289 154.432 42.9143 154.703 41.7756 154.703H37.8276V157.615H41.7756C43.1943 157.615 44.4263 157.372 45.4716 156.887C46.5356 156.383 47.3569 155.674 47.9356 154.759C48.5143 153.844 48.8036 152.762 48.8036 151.511C48.8036 150.26 48.5143 149.187 47.9356 148.291C47.3569 147.376 46.5356 146.676 45.4716 146.191C44.4263 145.687 43.1943 145.435 41.7756 145.435H37.8276V148.347ZM56.5554 165.315C58.0488 165.315 59.3274 165.026 60.3914 164.447C61.4554 163.868 62.3234 163 62.9954 161.843L60.3914 160.779C59.9808 161.47 59.4674 161.983 58.8514 162.319C58.2354 162.655 57.5168 162.823 56.6954 162.823C55.9114 162.823 55.2394 162.655 54.6794 162.319C54.1381 161.983 53.7274 161.498 53.4474 160.863C53.1674 160.21 53.0274 159.416 53.0274 158.483C53.0461 157.55 53.1954 156.766 53.4754 156.131C53.7554 155.496 54.1661 155.011 54.7074 154.675C55.2488 154.339 55.9021 154.171 56.6674 154.171C57.3021 154.171 57.8528 154.311 58.3194 154.591C58.8048 154.871 59.1781 155.263 59.4394 155.767C59.7194 156.271 59.8594 156.868 59.8594 157.559C59.8594 157.69 59.8221 157.858 59.7474 158.063C59.6914 158.25 59.6354 158.399 59.5794 158.511L60.5034 157.223H51.7674V159.295H63.0794C63.0981 159.22 63.1074 159.099 63.1074 158.931C63.1261 158.763 63.1354 158.604 63.1354 158.455C63.1354 157.074 62.8741 155.898 62.3514 154.927C61.8474 153.938 61.1194 153.182 60.1674 152.659C59.2154 152.136 58.0581 151.875 56.6954 151.875C55.3328 151.875 54.1474 152.155 53.1394 152.715C52.1314 153.256 51.3474 154.031 50.7874 155.039C50.2461 156.047 49.9754 157.232 49.9754 158.595C49.9754 159.939 50.2461 161.115 50.7874 162.123C51.3288 163.131 52.0941 163.915 53.0834 164.475C54.0914 165.035 55.2488 165.315 56.5554 165.315ZM69.0178 152.155H66.0218V165.035H69.0178V152.155ZM72.8538 155.375L74.3098 152.827C74.0298 152.472 73.6845 152.23 73.2738 152.099C72.8632 151.95 72.4245 151.875 71.9578 151.875C71.3045 151.875 70.6698 152.108 70.0538 152.575C69.4565 153.042 68.9618 153.676 68.5698 154.479C68.1965 155.263 68.0098 156.168 68.0098 157.195L69.0178 157.783C69.0178 157.167 69.0832 156.635 69.2138 156.187C69.3632 155.72 69.5965 155.356 69.9138 155.095C70.2312 154.834 70.6418 154.703 71.1458 154.703C71.5192 154.703 71.8272 154.759 72.0698 154.871C72.3125 154.983 72.5738 155.151 72.8538 155.375ZM86.7957 158.595C86.7957 157.792 86.973 157.083 87.3277 156.467C87.6823 155.851 88.1583 155.366 88.7557 155.011C89.3717 154.656 90.053 154.479 90.7997 154.479C91.397 154.479 91.9757 154.572 92.5357 154.759C93.0957 154.946 93.5903 155.207 94.0197 155.543C94.4677 155.86 94.7943 156.234 94.9997 156.663V153.331C94.5517 152.883 93.945 152.528 93.1797 152.267C92.4143 152.006 91.5743 151.875 90.6597 151.875C89.3343 151.875 88.1397 152.164 87.0757 152.743C86.0303 153.303 85.1997 154.087 84.5837 155.095C83.9863 156.103 83.6877 157.27 83.6877 158.595C83.6877 159.902 83.9863 161.068 84.5837 162.095C85.1997 163.103 86.0303 163.896 87.0757 164.475C88.1397 165.035 89.3343 165.315 90.6597 165.315C91.5743 165.315 92.4143 165.184 93.1797 164.923C93.945 164.662 94.5517 164.307 94.9997 163.859V160.527C94.7943 160.938 94.477 161.311 94.0477 161.647C93.6183 161.983 93.1237 162.244 92.5637 162.431C92.0037 162.618 91.4157 162.711 90.7997 162.711C90.053 162.711 89.3717 162.534 88.7557 162.179C88.1583 161.824 87.6823 161.348 87.3277 160.751C86.973 160.135 86.7957 159.416 86.7957 158.595ZM101.366 143.195H98.3422V165.035H101.366V143.195ZM106.63 157.195V165.035H109.682V156.775C109.682 155.674 109.514 154.759 109.178 154.031C108.842 153.284 108.338 152.724 107.666 152.351C107.013 151.978 106.21 151.791 105.258 151.791C104.287 151.791 103.457 152.034 102.766 152.519C102.094 153.004 101.571 153.648 101.198 154.451C100.825 155.254 100.638 156.168 100.638 157.195H101.366C101.366 156.616 101.487 156.112 101.73 155.683C101.973 155.254 102.309 154.918 102.738 154.675C103.167 154.432 103.662 154.311 104.222 154.311C105.062 154.311 105.669 154.554 106.042 155.039C106.434 155.524 106.63 156.243 106.63 157.195ZM113.406 147.031C113.406 147.535 113.593 147.974 113.966 148.347C114.358 148.702 114.806 148.879 115.31 148.879C115.851 148.879 116.299 148.702 116.654 148.347C117.027 147.974 117.214 147.535 117.214 147.031C117.214 146.508 117.027 146.07 116.654 145.715C116.299 145.36 115.851 145.183 115.31 145.183C114.806 145.183 114.358 145.36 113.966 145.715C113.593 146.07 113.406 146.508 113.406 147.031ZM113.826 152.155V165.035H116.794V152.155H113.826ZM120.955 143.195V165.035H123.979V143.195H120.955ZM137.534 143.195V165.035H140.586V143.195H137.534ZM126.866 158.595C126.866 159.995 127.155 161.199 127.734 162.207C128.313 163.215 129.078 163.99 130.03 164.531C131.001 165.054 132.037 165.315 133.138 165.315C134.221 165.315 135.163 165.044 135.966 164.503C136.787 163.962 137.431 163.187 137.898 162.179C138.383 161.171 138.626 159.976 138.626 158.595C138.626 157.195 138.383 156 137.898 155.011C137.431 154.003 136.787 153.228 135.966 152.687C135.163 152.146 134.221 151.875 133.138 151.875C132.037 151.875 131.001 152.146 130.03 152.687C129.078 153.21 128.313 153.975 127.734 154.983C127.155 155.972 126.866 157.176 126.866 158.595ZM130.002 158.595C130.002 157.736 130.179 156.999 130.534 156.383C130.889 155.767 131.355 155.3 131.934 154.983C132.531 154.666 133.175 154.507 133.866 154.507C134.445 154.507 135.014 154.666 135.574 154.983C136.153 155.3 136.619 155.767 136.974 156.383C137.347 156.98 137.534 157.718 137.534 158.595C137.534 159.472 137.347 160.219 136.974 160.835C136.619 161.432 136.153 161.89 135.574 162.207C135.014 162.524 134.445 162.683 133.866 162.683C133.175 162.683 132.531 162.524 131.934 162.207C131.355 161.89 130.889 161.423 130.534 160.807C130.179 160.191 130.002 159.454 130.002 158.595Z" fill="white"/>
<path d="M72.2766 187.875H82.4566V185.755H72.2766V187.875ZM76.2366 181.715V191.935H78.4966V181.715H76.2366ZM89.9061 180.215H93.5861V192.035H95.9661V180.215H99.6661V178.035H89.9061V180.215ZM100.572 189.175C100.572 188.882 100.639 188.635 100.772 188.435C100.919 188.235 101.132 188.082 101.412 187.975C101.692 187.855 102.059 187.795 102.512 187.795C103.032 187.795 103.525 187.862 103.992 187.995C104.459 188.128 104.899 188.342 105.312 188.635V187.535C105.192 187.388 104.985 187.228 104.692 187.055C104.399 186.868 104.025 186.708 103.572 186.575C103.132 186.442 102.605 186.375 101.992 186.375C100.845 186.375 99.9587 186.642 99.332 187.175C98.7054 187.695 98.392 188.402 98.392 189.295C98.392 189.922 98.5387 190.455 98.832 190.895C99.1254 191.335 99.5187 191.668 100.012 191.895C100.505 192.122 101.039 192.235 101.612 192.235C102.145 192.235 102.665 192.142 103.172 191.955C103.692 191.755 104.119 191.462 104.452 191.075C104.799 190.675 104.972 190.182 104.972 189.595L104.652 188.395C104.652 188.848 104.539 189.248 104.312 189.595C104.099 189.928 103.812 190.182 103.452 190.355C103.105 190.528 102.719 190.615 102.292 190.615C101.959 190.615 101.659 190.562 101.392 190.455C101.139 190.348 100.939 190.188 100.792 189.975C100.645 189.748 100.572 189.482 100.572 189.175ZM99.892 185.235C100.025 185.142 100.225 185.028 100.492 184.895C100.772 184.748 101.099 184.628 101.472 184.535C101.859 184.428 102.265 184.375 102.692 184.375C102.972 184.375 103.232 184.402 103.472 184.455C103.712 184.508 103.919 184.595 104.092 184.715C104.265 184.835 104.399 184.988 104.492 185.175C104.599 185.362 104.652 185.602 104.652 185.895V192.035H106.772V185.475C106.772 184.862 106.605 184.348 106.272 183.935C105.939 183.508 105.479 183.182 104.892 182.955C104.319 182.728 103.652 182.615 102.892 182.615C102.039 182.615 101.279 182.735 100.612 182.975C99.9587 183.215 99.4254 183.462 99.012 183.715L99.892 185.235ZM114.59 182.835L112.57 185.715L110.59 182.835H108.11L111.43 187.295L107.91 192.035H110.39L112.57 188.875L114.79 192.035H117.21L113.71 187.295L117.01 182.835H114.59Z" fill="white"/>
</svg>
