<svg width="1440" height="201" viewBox="0 0 1440 201" fill="none" xmlns="http://www.w3.org/2000/svg">
<path d="M0 2.03515C0 0.930585 0.895431 0.0351562 2 0.0351562H1431.34C1433.46 0.0351562 1434.13 2.90217 1432.22 3.83247L1236.8 99.2198C1235.3 99.9537 1235.31 102.099 1236.82 102.821L1432.05 196.231C1433.97 197.15 1433.32 200.035 1431.19 200.035H2.00003C0.895457 200.035 0 199.14 0 198.035V2.03515Z" fill="#016FB9"/>
<path d="M705.786 23.8352V42.0352H708.906V23.8352H705.786ZM711.662 42.0352C713.516 42.0352 715.146 41.6625 716.55 40.9172C717.954 40.1545 719.046 39.0972 719.826 37.7452C720.623 36.3758 721.022 34.7725 721.022 32.9352C721.022 31.0978 720.623 29.5032 719.826 28.1512C719.046 26.7818 717.954 25.7245 716.55 24.9792C715.146 24.2165 713.516 23.8352 711.662 23.8352H707.684V26.7212H711.584C712.485 26.7212 713.317 26.8512 714.08 27.1112C714.842 27.3712 715.501 27.7612 716.056 28.2812C716.628 28.8012 717.07 29.4512 717.382 30.2312C717.711 31.0112 717.876 31.9125 717.876 32.9352C717.876 33.9578 717.711 34.8592 717.382 35.6392C717.07 36.4192 716.628 37.0692 716.056 37.5892C715.501 38.1092 714.842 38.4992 714.08 38.7592C713.317 39.0192 712.485 39.1492 711.584 39.1492H707.684V42.0352H711.662ZM728.982 42.2952C730.369 42.2952 731.556 42.0265 732.544 41.4892C733.532 40.9518 734.338 40.1458 734.962 39.0712L732.544 38.0832C732.163 38.7245 731.686 39.2012 731.114 39.5132C730.542 39.8252 729.875 39.9812 729.112 39.9812C728.384 39.9812 727.76 39.8252 727.24 39.5132C726.738 39.2012 726.356 38.7505 726.096 38.1612C725.836 37.5545 725.706 36.8178 725.706 35.9512C725.724 35.0845 725.862 34.3565 726.122 33.7672C726.382 33.1778 726.764 32.7272 727.266 32.4152C727.769 32.1032 728.376 31.9472 729.086 31.9472C729.676 31.9472 730.187 32.0772 730.62 32.3372C731.071 32.5972 731.418 32.9612 731.66 33.4292C731.92 33.8972 732.05 34.4518 732.05 35.0932C732.05 35.2145 732.016 35.3705 731.946 35.5612C731.894 35.7345 731.842 35.8732 731.79 35.9772L732.648 34.7812H724.536V36.7052H735.04C735.058 36.6358 735.066 36.5232 735.066 36.3672C735.084 36.2112 735.092 36.0638 735.092 35.9252C735.092 34.6425 734.85 33.5505 734.364 32.6492C733.896 31.7305 733.22 31.0285 732.336 30.5432C731.452 30.0578 730.378 29.8152 729.112 29.8152C727.847 29.8152 726.746 30.0752 725.81 30.5952C724.874 31.0978 724.146 31.8172 723.626 32.7532C723.124 33.6892 722.872 34.7898 722.872 36.0552C722.872 37.3032 723.124 38.3952 723.626 39.3312C724.129 40.2672 724.84 40.9952 725.758 41.5152C726.694 42.0352 727.769 42.2952 728.982 42.2952ZM739.541 38.3172C739.541 37.9358 739.627 37.6152 739.801 37.3552C739.991 37.0952 740.269 36.8958 740.633 36.7572C740.997 36.6012 741.473 36.5232 742.063 36.5232C742.739 36.5232 743.38 36.6098 743.987 36.7832C744.593 36.9565 745.165 37.2338 745.703 37.6152V36.1852C745.547 35.9945 745.278 35.7865 744.897 35.5612C744.515 35.3185 744.03 35.1105 743.441 34.9372C742.869 34.7638 742.184 34.6772 741.387 34.6772C739.896 34.6772 738.743 35.0238 737.929 35.7172C737.114 36.3932 736.707 37.3118 736.707 38.4732C736.707 39.2878 736.897 39.9812 737.279 40.5532C737.66 41.1252 738.171 41.5585 738.813 41.8532C739.454 42.1478 740.147 42.2952 740.893 42.2952C741.586 42.2952 742.262 42.1738 742.921 41.9312C743.597 41.6712 744.151 41.2898 744.585 40.7872C745.035 40.2672 745.261 39.6258 745.261 38.8632L744.845 37.3032C744.845 37.8925 744.697 38.4125 744.403 38.8632C744.125 39.2965 743.753 39.6258 743.285 39.8512C742.834 40.0765 742.331 40.1892 741.777 40.1892C741.343 40.1892 740.953 40.1198 740.607 39.9812C740.277 39.8425 740.017 39.6345 739.827 39.3572C739.636 39.0625 739.541 38.7158 739.541 38.3172ZM738.657 33.1952C738.83 33.0738 739.09 32.9265 739.437 32.7532C739.801 32.5625 740.225 32.4065 740.711 32.2852C741.213 32.1465 741.742 32.0772 742.297 32.0772C742.661 32.0772 742.999 32.1118 743.311 32.1812C743.623 32.2505 743.891 32.3632 744.117 32.5192C744.342 32.6752 744.515 32.8745 744.637 33.1172C744.775 33.3598 744.845 33.6718 744.845 34.0532V42.0352H747.601V33.5072C747.601 32.7098 747.384 32.0425 746.951 31.5052C746.517 30.9505 745.919 30.5258 745.157 30.2312C744.411 29.9365 743.545 29.7892 742.557 29.7892C741.447 29.7892 740.459 29.9452 739.593 30.2572C738.743 30.5692 738.05 30.8898 737.513 31.2192L738.657 33.1952ZM750.874 21.7552V42.0352H753.682V21.7552H750.874ZM767.485 37.3552H777.105L776.507 34.7552H768.057L767.485 37.3552ZM772.243 28.9832L775.129 35.7432L775.207 36.4972L777.677 42.0352H781.135L772.243 22.8212L763.351 42.0352H766.809L769.331 36.3412L769.383 35.6652L772.243 28.9832Z" fill="white"/>
<path d="M39.7555 59.8652L39.9505 70.3952H45.7355L45.8655 59.8652H39.7555ZM39.9505 109.59L39.7555 120.315H45.8655L45.6705 109.59H39.9505ZM51.6505 80.2752L57.6955 76.5702C56.9588 74.9668 55.9188 73.4285 54.5755 71.9552C53.2755 70.4818 51.6288 69.2685 49.6355 68.3152C47.6855 67.3618 45.3455 66.8852 42.6155 66.8852C39.8855 66.8852 37.4371 67.4052 35.2705 68.4452C33.1038 69.4852 31.3921 70.8718 30.1355 72.6052C28.9221 74.3385 28.3155 76.2668 28.3155 78.3902C28.3155 80.5568 28.7055 82.3985 29.4855 83.9152C30.2655 85.4318 31.2621 86.7318 32.4755 87.8152C33.6888 88.8552 34.9671 89.7218 36.3105 90.4152C37.6971 91.0652 38.9538 91.5852 40.0805 91.9752C41.8138 92.6252 43.4388 93.3185 44.9555 94.0552C46.5155 94.7918 47.7721 95.7018 48.7255 96.7852C49.7221 97.8252 50.2205 99.1902 50.2205 100.88C50.2205 102.18 49.9605 103.307 49.4405 104.26C48.9638 105.17 48.2055 105.863 47.1655 106.34C46.1688 106.817 44.8905 107.055 43.3305 107.055C41.5538 107.055 39.9721 106.687 38.5855 105.95C37.2421 105.213 36.0071 104.152 34.8805 102.765C33.7538 101.378 32.7138 99.6885 31.7605 97.6952L25.8455 101.53C26.7988 103.87 28.1205 105.95 29.8105 107.77C31.5005 109.59 33.4721 111.042 35.7255 112.125C37.9788 113.165 40.4055 113.685 43.0055 113.685C46.2555 113.685 49.0071 113.165 51.2605 112.125C53.5138 111.042 55.2471 109.503 56.4605 107.51C57.6738 105.517 58.2805 103.198 58.2805 100.555C58.2805 98.5185 57.9338 96.7418 57.2405 95.2252C56.5471 93.7085 55.6371 92.4302 54.5105 91.3902C53.3838 90.3068 52.1271 89.3968 50.7405 88.6602C49.3971 87.9235 48.0755 87.3168 46.7755 86.8402C44.9555 86.1468 43.2438 85.4535 41.6405 84.7602C40.0371 84.0668 38.7371 83.2435 37.7405 82.2902C36.7438 81.3368 36.2455 80.1235 36.2455 78.6502C36.2455 77.5235 36.4621 76.5702 36.8955 75.7902C37.3721 74.9668 38.0871 74.3385 39.0405 73.9052C40.0371 73.4718 41.2938 73.2552 42.8105 73.2552C44.2838 73.2552 45.5621 73.5802 46.6455 74.2302C47.7288 74.8802 48.6605 75.7468 49.4405 76.8302C50.2638 77.8702 51.0005 79.0185 51.6505 80.2752ZM66.5146 78.1952L77.0446 75.2702V113.035H84.6496V66.8202L66.5146 70.9152V78.1952ZM93.5958 104.325H131.036V97.6952H121.741L120.636 98.2802H104.841L116.476 81.2502V100.88L116.021 101.595V113.035H123.886V67.5352H119.271L93.5958 104.325Z" fill="white"/>
<line x1="201.402" y1="0.0351562" x2="201.402" y2="200.035" stroke="#1B1B1B"/>
<line x1="1367.82" y1="165.535" x2="200.903" y2="165.535" stroke="#1B1B1B"/>
<path d="M268.16 81.0472H282.132V77.9952H268.16V81.0472ZM280.004 70.4352V90.0352H283.308V70.4352H280.004ZM266.844 70.4352V90.0352H270.148V70.4352H266.844ZM286.448 83.5952C286.448 84.9018 286.747 86.0685 287.344 87.0952C287.96 88.1032 288.791 88.8965 289.836 89.4752C290.881 90.0352 292.067 90.3152 293.392 90.3152C294.717 90.3152 295.893 90.0352 296.92 89.4752C297.965 88.8965 298.796 88.1032 299.412 87.0952C300.028 86.0685 300.336 84.9018 300.336 83.5952C300.336 82.2698 300.028 81.1032 299.412 80.0952C298.796 79.0872 297.965 78.3032 296.92 77.7432C295.893 77.1645 294.717 76.8752 293.392 76.8752C292.067 76.8752 290.881 77.1645 289.836 77.7432C288.791 78.3032 287.96 79.0872 287.344 80.0952C286.747 81.1032 286.448 82.2698 286.448 83.5952ZM289.556 83.5952C289.556 82.7925 289.724 82.0832 290.06 81.4672C290.396 80.8512 290.853 80.3752 291.432 80.0392C292.011 79.7032 292.664 79.5352 293.392 79.5352C294.101 79.5352 294.745 79.7032 295.324 80.0392C295.921 80.3752 296.388 80.8512 296.724 81.4672C297.06 82.0832 297.228 82.7925 297.228 83.5952C297.228 84.3978 297.06 85.1072 296.724 85.7232C296.388 86.3205 295.921 86.7965 295.324 87.1512C294.745 87.4872 294.101 87.6552 293.392 87.6552C292.664 87.6552 292.011 87.4872 291.432 87.1512C290.853 86.7965 290.396 86.3205 290.06 85.7232C289.724 85.1072 289.556 84.3978 289.556 83.5952ZM301.413 77.1552V79.8152H308.721V77.1552H301.413ZM303.569 72.6752V90.0352H306.565V72.6752H303.569ZM319.454 70.4352V90.0352H322.814V70.4352H319.454ZM325.782 90.0352C327.779 90.0352 329.534 89.6338 331.046 88.8312C332.558 88.0098 333.734 86.8712 334.574 85.4152C335.432 83.9405 335.862 82.2138 335.862 80.2352C335.862 78.2565 335.432 76.5392 334.574 75.0832C333.734 73.6085 332.558 72.4698 331.046 71.6672C329.534 70.8458 327.779 70.4352 325.782 70.4352H321.498V73.5432H325.698C326.668 73.5432 327.564 73.6832 328.386 73.9632C329.207 74.2432 329.916 74.6632 330.514 75.2232C331.13 75.7832 331.606 76.4832 331.942 77.3232C332.296 78.1632 332.474 79.1338 332.474 80.2352C332.474 81.3365 332.296 82.3072 331.942 83.1472C331.606 83.9872 331.13 84.6872 330.514 85.2472C329.916 85.8072 329.207 86.2272 328.386 86.5072C327.564 86.7872 326.668 86.9272 325.698 86.9272H321.498V90.0352H325.782ZM337.854 83.5952C337.854 84.9018 338.153 86.0685 338.75 87.0952C339.366 88.1032 340.197 88.8965 341.242 89.4752C342.288 90.0352 343.473 90.3152 344.798 90.3152C346.124 90.3152 347.3 90.0352 348.326 89.4752C349.372 88.8965 350.202 88.1032 350.818 87.0952C351.434 86.0685 351.742 84.9018 351.742 83.5952C351.742 82.2698 351.434 81.1032 350.818 80.0952C350.202 79.0872 349.372 78.3032 348.326 77.7432C347.3 77.1645 346.124 76.8752 344.798 76.8752C343.473 76.8752 342.288 77.1645 341.242 77.7432C340.197 78.3032 339.366 79.0872 338.75 80.0952C338.153 81.1032 337.854 82.2698 337.854 83.5952ZM340.962 83.5952C340.962 82.7925 341.13 82.0832 341.466 81.4672C341.802 80.8512 342.26 80.3752 342.838 80.0392C343.417 79.7032 344.07 79.5352 344.798 79.5352C345.508 79.5352 346.152 79.7032 346.73 80.0392C347.328 80.3752 347.794 80.8512 348.13 81.4672C348.466 82.0832 348.634 82.7925 348.634 83.5952C348.634 84.3978 348.466 85.1072 348.13 85.7232C347.794 86.3205 347.328 86.7965 346.73 87.1512C346.152 87.4872 345.508 87.6552 344.798 87.6552C344.07 87.6552 343.417 87.4872 342.838 87.1512C342.26 86.7965 341.802 86.3205 341.466 85.7232C341.13 85.1072 340.962 84.3978 340.962 83.5952ZM353.884 90.9032C353.921 92.0232 354.201 93.0125 354.724 93.8712C355.265 94.7298 356.03 95.3925 357.02 95.8592C358.009 96.3445 359.204 96.5872 360.604 96.5872C361.78 96.5872 362.872 96.3352 363.88 95.8312C364.888 95.3458 365.7 94.5992 366.316 93.5912C366.95 92.5832 367.268 91.3045 367.268 89.7552V77.1552H364.3V89.7552C364.3 90.7258 364.113 91.5192 363.74 92.1352C363.385 92.7512 362.918 93.2085 362.34 93.5072C361.761 93.8058 361.154 93.9552 360.52 93.9552C359.81 93.9552 359.185 93.8245 358.644 93.5632C358.102 93.3018 357.673 92.9378 357.356 92.4712C357.057 92.0045 356.898 91.4818 356.88 90.9032H353.884ZM353.632 83.5392C353.632 84.9392 353.921 86.1338 354.5 87.1232C355.078 88.1125 355.844 88.8685 356.796 89.3912C357.766 89.9138 358.802 90.1752 359.904 90.1752C360.986 90.1752 361.929 89.9138 362.732 89.3912C363.553 88.8498 364.197 88.0845 364.664 87.0952C365.149 86.1058 365.392 84.9205 365.392 83.5392C365.392 82.1392 365.149 80.9445 364.664 79.9552C364.197 78.9658 363.553 78.2098 362.732 77.6872C361.929 77.1458 360.986 76.8752 359.904 76.8752C358.802 76.8752 357.766 77.1365 356.796 77.6592C355.844 78.1818 355.078 78.9378 354.5 79.9272C353.921 80.8978 353.632 82.1018 353.632 83.5392ZM356.768 83.5392C356.768 82.6618 356.945 81.9245 357.3 81.3272C357.654 80.7298 358.121 80.2818 358.7 79.9832C359.297 79.6658 359.941 79.5072 360.632 79.5072C361.061 79.5072 361.49 79.5912 361.92 79.7592C362.368 79.9272 362.769 80.1885 363.124 80.5432C363.478 80.8792 363.758 81.2992 363.964 81.8032C364.188 82.2885 364.3 82.8672 364.3 83.5392C364.3 84.3978 364.113 85.1352 363.74 85.7512C363.385 86.3485 362.918 86.7965 362.34 87.0952C361.78 87.3938 361.21 87.5432 360.632 87.5432C359.941 87.5432 359.297 87.3938 358.7 87.0952C358.121 86.7778 357.654 86.3205 357.3 85.7232C356.945 85.1258 356.768 84.3978 356.768 83.5392ZM372.922 86.9552L370.458 94.2072L372.698 94.8232L375.946 87.8232L372.922 86.9552ZM390.905 80.2352C390.905 78.8352 391.213 77.6218 391.829 76.5952C392.464 75.5498 393.285 74.7472 394.293 74.1872C395.32 73.6085 396.43 73.3192 397.625 73.3192C398.558 73.3192 399.398 73.4405 400.145 73.6832C400.892 73.9258 401.564 74.2618 402.161 74.6912C402.777 75.1018 403.309 75.5685 403.757 76.0912V72.1712C402.936 71.4992 402.049 70.9858 401.097 70.6312C400.145 70.2765 398.95 70.0992 397.513 70.0992C396.076 70.0992 394.732 70.3418 393.481 70.8272C392.249 71.3125 391.176 72.0125 390.261 72.9272C389.346 73.8418 388.628 74.9245 388.105 76.1752C387.601 77.4072 387.349 78.7605 387.349 80.2352C387.349 81.7098 387.601 83.0725 388.105 84.3232C388.628 85.5552 389.346 86.6285 390.261 87.5432C391.176 88.4578 392.249 89.1578 393.481 89.6432C394.732 90.1285 396.076 90.3712 397.513 90.3712C398.95 90.3712 400.145 90.1938 401.097 89.8392C402.049 89.4845 402.936 88.9712 403.757 88.2992V84.3792C403.309 84.9018 402.777 85.3778 402.161 85.8072C401.564 86.2178 400.892 86.5445 400.145 86.7872C399.398 87.0298 398.558 87.1512 397.625 87.1512C396.43 87.1512 395.32 86.8712 394.293 86.3112C393.285 85.7325 392.464 84.9205 391.829 83.8752C391.213 82.8298 390.905 81.6165 390.905 80.2352ZM410.601 68.1952H407.577V90.0352H410.601V68.1952ZM415.865 82.1952V90.0352H418.917V81.7752C418.917 80.6738 418.749 79.7592 418.413 79.0312C418.077 78.2845 417.573 77.7245 416.901 77.3512C416.247 76.9778 415.445 76.7912 414.493 76.7912C413.522 76.7912 412.691 77.0338 412.001 77.5192C411.329 78.0045 410.806 78.6485 410.433 79.4512C410.059 80.2538 409.873 81.1685 409.873 82.1952H410.601C410.601 81.6165 410.722 81.1125 410.965 80.6832C411.207 80.2538 411.543 79.9178 411.973 79.6752C412.402 79.4325 412.897 79.3112 413.457 79.3112C414.297 79.3112 414.903 79.5538 415.277 80.0392C415.669 80.5245 415.865 81.2432 415.865 82.1952ZM422.64 72.0312C422.64 72.5352 422.827 72.9738 423.2 73.3472C423.592 73.7018 424.04 73.8792 424.544 73.8792C425.086 73.8792 425.534 73.7018 425.888 73.3472C426.262 72.9738 426.448 72.5352 426.448 72.0312C426.448 71.5085 426.262 71.0698 425.888 70.7152C425.534 70.3605 425.086 70.1832 424.544 70.1832C424.04 70.1832 423.592 70.3605 423.2 70.7152C422.827 71.0698 422.64 71.5085 422.64 72.0312ZM423.06 77.1552V90.0352H426.028V77.1552H423.06ZM433.13 96.1952V77.1552H430.078V96.1952H433.13ZM443.798 83.5952C443.798 82.1578 443.508 80.9352 442.93 79.9272C442.351 78.9192 441.586 78.1538 440.634 77.6312C439.682 77.0898 438.646 76.8192 437.526 76.8192C436.424 76.8192 435.463 77.0992 434.642 77.6592C433.839 78.2005 433.214 78.9752 432.766 79.9832C432.336 80.9912 432.122 82.1952 432.122 83.5952C432.122 84.9765 432.336 86.1805 432.766 87.2072C433.214 88.2152 433.839 88.9992 434.642 89.5592C435.463 90.1005 436.424 90.3712 437.526 90.3712C438.646 90.3712 439.682 90.1098 440.634 89.5872C441.586 89.0458 442.351 88.2712 442.93 87.2632C443.508 86.2365 443.798 85.0138 443.798 83.5952ZM440.662 83.5952C440.662 84.4538 440.484 85.1912 440.13 85.8072C439.775 86.4045 439.299 86.8618 438.702 87.1792C438.123 87.4778 437.479 87.6272 436.77 87.6272C436.191 87.6272 435.622 87.4778 435.062 87.1792C434.502 86.8618 434.035 86.4045 433.662 85.8072C433.307 85.2098 433.13 84.4725 433.13 83.5952C433.13 82.7178 433.307 81.9805 433.662 81.3832C434.035 80.7858 434.502 80.3378 435.062 80.0392C435.622 79.7218 436.191 79.5632 436.77 79.5632C437.479 79.5632 438.123 79.7218 438.702 80.0392C439.299 80.3378 439.775 80.7952 440.13 81.4112C440.484 82.0085 440.662 82.7365 440.662 83.5952ZM447.266 85.8072L445.502 87.5712C445.875 88.0565 446.333 88.5232 446.874 88.9712C447.434 89.4005 448.078 89.7552 448.806 90.0352C449.553 90.2965 450.365 90.4272 451.242 90.4272C452.661 90.4272 453.781 90.0632 454.602 89.3352C455.442 88.5885 455.862 87.6085 455.862 86.3952C455.862 85.6112 455.675 84.9765 455.302 84.4912C454.947 84.0058 454.471 83.5952 453.874 83.2592C453.277 82.9232 452.623 82.6152 451.914 82.3352C451.391 82.1298 450.915 81.9338 450.486 81.7472C450.075 81.5605 449.739 81.3552 449.478 81.1312C449.235 80.8885 449.114 80.6178 449.114 80.3192C449.114 79.9645 449.254 79.6938 449.534 79.5072C449.814 79.3205 450.169 79.2272 450.598 79.2272C451.233 79.2272 451.849 79.3858 452.446 79.7032C453.043 80.0205 453.557 80.4312 453.986 80.9352L455.666 79.1432C455.311 78.7138 454.882 78.3312 454.378 77.9952C453.874 77.6592 453.305 77.3885 452.67 77.1832C452.054 76.9778 451.391 76.8752 450.682 76.8752C449.898 76.8752 449.161 77.0058 448.47 77.2672C447.798 77.5098 447.257 77.8925 446.846 78.4152C446.454 78.9378 446.258 79.5912 446.258 80.3752C446.258 81.1405 446.435 81.7752 446.79 82.2792C447.163 82.7832 447.63 83.1938 448.19 83.5112C448.769 83.8098 449.347 84.0712 449.926 84.2952C450.505 84.5005 451.009 84.7058 451.438 84.9112C451.867 85.0978 452.203 85.3312 452.446 85.6112C452.689 85.8725 452.81 86.1898 452.81 86.5632C452.81 86.9925 452.651 87.3285 452.334 87.5712C452.035 87.8138 451.615 87.9352 451.074 87.9352C450.645 87.9352 450.215 87.8605 449.786 87.7112C449.357 87.5432 448.927 87.3005 448.498 86.9832C448.087 86.6472 447.677 86.2552 447.266 85.8072ZM460.449 86.9552L457.985 94.2072L460.225 94.8232L463.473 87.8232L460.449 86.9552ZM475.997 70.4352V90.0352H479.301V70.4352H475.997ZM477.957 73.3472H481.905C483.043 73.3472 483.958 73.6178 484.649 74.1592C485.339 74.6818 485.685 75.4658 485.685 76.5112C485.685 77.5565 485.339 78.3498 484.649 78.8912C483.958 79.4325 483.043 79.7032 481.905 79.7032H477.957V82.6152H481.905C483.323 82.6152 484.555 82.3725 485.601 81.8872C486.665 81.3832 487.486 80.6738 488.065 79.7592C488.643 78.8445 488.933 77.7618 488.933 76.5112C488.933 75.2605 488.643 74.1872 488.065 73.2912C487.486 72.3765 486.665 71.6765 485.601 71.1912C484.555 70.6872 483.323 70.4352 481.905 70.4352H477.957V73.3472ZM490.104 83.5952C490.104 84.9018 490.403 86.0685 491 87.0952C491.616 88.1032 492.447 88.8965 493.492 89.4752C494.538 90.0352 495.723 90.3152 497.048 90.3152C498.374 90.3152 499.55 90.0352 500.576 89.4752C501.622 88.8965 502.452 88.1032 503.068 87.0952C503.684 86.0685 503.992 84.9018 503.992 83.5952C503.992 82.2698 503.684 81.1032 503.068 80.0952C502.452 79.0872 501.622 78.3032 500.576 77.7432C499.55 77.1645 498.374 76.8752 497.048 76.8752C495.723 76.8752 494.538 77.1645 493.492 77.7432C492.447 78.3032 491.616 79.0872 491 80.0952C490.403 81.1032 490.104 82.2698 490.104 83.5952ZM493.212 83.5952C493.212 82.7925 493.38 82.0832 493.716 81.4672C494.052 80.8512 494.51 80.3752 495.088 80.0392C495.667 79.7032 496.32 79.5352 497.048 79.5352C497.758 79.5352 498.402 79.7032 498.98 80.0392C499.578 80.3752 500.044 80.8512 500.38 81.4672C500.716 82.0832 500.884 82.7925 500.884 83.5952C500.884 84.3978 500.716 85.1072 500.38 85.7232C500.044 86.3205 499.578 86.7965 498.98 87.1512C498.402 87.4872 497.758 87.6552 497.048 87.6552C496.32 87.6552 495.667 87.4872 495.088 87.1512C494.51 86.7965 494.052 86.3205 493.716 85.7232C493.38 85.1072 493.212 84.3978 493.212 83.5952ZM509.802 96.1952V77.1552H506.75V96.1952H509.802ZM520.47 83.5952C520.47 82.1578 520.18 80.9352 519.602 79.9272C519.023 78.9192 518.258 78.1538 517.306 77.6312C516.354 77.0898 515.318 76.8192 514.198 76.8192C513.096 76.8192 512.135 77.0992 511.314 77.6592C510.511 78.2005 509.886 78.9752 509.438 79.9832C509.008 80.9912 508.794 82.1952 508.794 83.5952C508.794 84.9765 509.008 86.1805 509.438 87.2072C509.886 88.2152 510.511 88.9992 511.314 89.5592C512.135 90.1005 513.096 90.3712 514.198 90.3712C515.318 90.3712 516.354 90.1098 517.306 89.5872C518.258 89.0458 519.023 88.2712 519.602 87.2632C520.18 86.2365 520.47 85.0138 520.47 83.5952ZM517.334 83.5952C517.334 84.4538 517.156 85.1912 516.802 85.8072C516.447 86.4045 515.971 86.8618 515.374 87.1792C514.795 87.4778 514.151 87.6272 513.442 87.6272C512.863 87.6272 512.294 87.4778 511.734 87.1792C511.174 86.8618 510.707 86.4045 510.334 85.8072C509.979 85.2098 509.802 84.4725 509.802 83.5952C509.802 82.7178 509.979 81.9805 510.334 81.3832C510.707 80.7858 511.174 80.3378 511.734 80.0392C512.294 79.7218 512.863 79.5632 513.442 79.5632C514.151 79.5632 514.795 79.7218 515.374 80.0392C515.971 80.3378 516.447 80.7952 516.802 81.4112C517.156 82.0085 517.334 82.7365 517.334 83.5952ZM530.765 83.5952C530.765 84.9018 531.063 86.0685 531.66 87.0952C532.277 88.1032 533.107 88.8965 534.153 89.4752C535.198 90.0352 536.383 90.3152 537.709 90.3152C539.034 90.3152 540.21 90.0352 541.237 89.4752C542.282 88.8965 543.113 88.1032 543.729 87.0952C544.345 86.0685 544.653 84.9018 544.653 83.5952C544.653 82.2698 544.345 81.1032 543.729 80.0952C543.113 79.0872 542.282 78.3032 541.237 77.7432C540.21 77.1645 539.034 76.8752 537.709 76.8752C536.383 76.8752 535.198 77.1645 534.153 77.7432C533.107 78.3032 532.277 79.0872 531.66 80.0952C531.063 81.1032 530.765 82.2698 530.765 83.5952ZM533.873 83.5952C533.873 82.7925 534.041 82.0832 534.377 81.4672C534.713 80.8512 535.17 80.3752 535.749 80.0392C536.327 79.7032 536.981 79.5352 537.709 79.5352C538.418 79.5352 539.062 79.7032 539.641 80.0392C540.238 80.3752 540.705 80.8512 541.041 81.4672C541.377 82.0832 541.545 82.7925 541.545 83.5952C541.545 84.3978 541.377 85.1072 541.041 85.7232C540.705 86.3205 540.238 86.7965 539.641 87.1512C539.062 87.4872 538.418 87.6552 537.709 87.6552C536.981 87.6552 536.327 87.4872 535.749 87.1512C535.17 86.7965 534.713 86.3205 534.377 85.7232C534.041 85.1072 533.873 84.3978 533.873 83.5952ZM550.518 77.1552H547.522V90.0352H550.518V77.1552ZM554.354 80.3752L555.81 77.8272C555.53 77.4725 555.185 77.2298 554.774 77.0992C554.363 76.9498 553.925 76.8752 553.458 76.8752C552.805 76.8752 552.17 77.1085 551.554 77.5752C550.957 78.0418 550.462 78.6765 550.07 79.4792C549.697 80.2632 549.51 81.1685 549.51 82.1952L550.518 82.7832C550.518 82.1672 550.583 81.6352 550.714 81.1872C550.863 80.7205 551.097 80.3565 551.414 80.0952C551.731 79.8338 552.142 79.7032 552.646 79.7032C553.019 79.7032 553.327 79.7592 553.57 79.8712C553.813 79.9832 554.074 80.1512 554.354 80.3752ZM562.416 92.4992L560.652 94.9352C560.894 95.1405 561.221 95.3552 561.632 95.5792C562.042 95.8032 562.518 95.9898 563.06 96.1392C563.601 96.3072 564.161 96.3912 564.74 96.3912C565.486 96.3912 566.177 96.2978 566.812 96.1112C567.446 95.9432 567.988 95.6632 568.436 95.2712C568.902 94.8792 569.266 94.3845 569.528 93.7872C569.789 93.1898 569.92 92.4805 569.92 91.6592V70.4352H566.532V91.0432C566.532 91.9392 566.326 92.5645 565.916 92.9192C565.505 93.2925 565.085 93.4792 564.656 93.4792C564.189 93.4792 563.76 93.3858 563.368 93.1992C562.976 93.0125 562.658 92.7792 562.416 92.4992ZM577.126 84.9952V77.1552H574.018V85.3312C574.018 86.8618 574.401 88.0752 575.166 88.9712C575.95 89.8672 577.061 90.3152 578.498 90.3152C579.394 90.3152 580.159 90.1285 580.794 89.7552C581.447 89.3632 581.979 88.7938 582.39 88.0472V90.0352H585.414V77.1552H582.39V84.9952C582.39 85.5738 582.269 86.0872 582.026 86.5352C581.783 86.9645 581.447 87.3005 581.018 87.5432C580.589 87.7672 580.085 87.8792 579.506 87.8792C578.703 87.8792 578.106 87.6272 577.714 87.1232C577.322 86.6192 577.126 85.9098 577.126 84.9952ZM589.164 72.0312C589.164 72.5352 589.35 72.9738 589.724 73.3472C590.116 73.7018 590.564 73.8792 591.068 73.8792C591.609 73.8792 592.057 73.7018 592.412 73.3472C592.785 72.9738 592.972 72.5352 592.972 72.0312C592.972 71.5085 592.785 71.0698 592.412 70.7152C592.057 70.3605 591.609 70.1832 591.068 70.1832C590.564 70.1832 590.116 70.3605 589.724 70.7152C589.35 71.0698 589.164 71.5085 589.164 72.0312ZM589.584 77.1552V90.0352H592.552V77.1552H589.584ZM598.729 83.5952C598.729 82.7925 598.907 82.0832 599.261 81.4672C599.616 80.8512 600.092 80.3658 600.689 80.0112C601.305 79.6565 601.987 79.4792 602.733 79.4792C603.331 79.4792 603.909 79.5725 604.469 79.7592C605.029 79.9458 605.524 80.2072 605.953 80.5432C606.401 80.8605 606.728 81.2338 606.933 81.6632V78.3312C606.485 77.8832 605.879 77.5285 605.113 77.2672C604.348 77.0058 603.508 76.8752 602.593 76.8752C601.268 76.8752 600.073 77.1645 599.009 77.7432C597.964 78.3032 597.133 79.0872 596.517 80.0952C595.92 81.1032 595.621 82.2698 595.621 83.5952C595.621 84.9018 595.92 86.0685 596.517 87.0952C597.133 88.1032 597.964 88.8965 599.009 89.4752C600.073 90.0352 601.268 90.3152 602.593 90.3152C603.508 90.3152 604.348 90.1845 605.113 89.9232C605.879 89.6618 606.485 89.3072 606.933 88.8592V85.5272C606.728 85.9378 606.411 86.3112 605.981 86.6472C605.552 86.9832 605.057 87.2445 604.497 87.4312C603.937 87.6178 603.349 87.7112 602.733 87.7112C601.987 87.7112 601.305 87.5338 600.689 87.1792C600.092 86.8245 599.616 86.3485 599.261 85.7512C598.907 85.1352 598.729 84.4165 598.729 83.5952ZM615.876 90.3152C617.369 90.3152 618.648 90.0258 619.712 89.4472C620.776 88.8685 621.644 88.0005 622.316 86.8432L619.712 85.7792C619.301 86.4698 618.788 86.9832 618.172 87.3192C617.556 87.6552 616.837 87.8232 616.016 87.8232C615.232 87.8232 614.56 87.6552 614 87.3192C613.458 86.9832 613.048 86.4978 612.768 85.8632C612.488 85.2098 612.348 84.4165 612.348 83.4832C612.366 82.5498 612.516 81.7658 612.796 81.1312C613.076 80.4965 613.486 80.0112 614.028 79.6752C614.569 79.3392 615.222 79.1712 615.988 79.1712C616.622 79.1712 617.173 79.3112 617.64 79.5912C618.125 79.8712 618.498 80.2632 618.76 80.7672C619.04 81.2712 619.18 81.8685 619.18 82.5592C619.18 82.6898 619.142 82.8578 619.068 83.0632C619.012 83.2498 618.956 83.3992 618.9 83.5112L619.824 82.2232H611.088V84.2952H622.4C622.418 84.2205 622.428 84.0992 622.428 83.9312C622.446 83.7632 622.456 83.6045 622.456 83.4552C622.456 82.0738 622.194 80.8978 621.672 79.9272C621.168 78.9378 620.44 78.1818 619.488 77.6592C618.536 77.1365 617.378 76.8752 616.016 76.8752C614.653 76.8752 613.468 77.1552 612.46 77.7152C611.452 78.2565 610.668 79.0312 610.108 80.0392C609.566 81.0472 609.296 82.2325 609.296 83.5952C609.296 84.9392 609.566 86.1152 610.108 87.1232C610.649 88.1312 611.414 88.9152 612.404 89.4752C613.412 90.0352 614.569 90.3152 615.876 90.3152ZM625.852 86.9552L623.388 94.2072L625.628 94.8232L628.876 87.8232L625.852 86.9552ZM641.315 75.0272L645.851 73.7672V90.0352H649.127V70.1272L641.315 71.8912V75.0272ZM672.379 82.5872H678.399C678.231 83.2405 677.979 83.8565 677.643 84.4352C677.307 85.0138 676.887 85.5272 676.383 85.9752C675.879 86.4232 675.282 86.7685 674.591 87.0112C673.9 87.2538 673.116 87.3752 672.239 87.3752C670.951 87.3752 669.794 87.0765 668.767 86.4792C667.74 85.8818 666.919 85.0512 666.303 83.9872C665.706 82.9045 665.407 81.6538 665.407 80.2352C665.407 78.7978 665.715 77.5565 666.331 76.5112C666.947 75.4472 667.768 74.6258 668.795 74.0472C669.822 73.4498 670.97 73.1512 672.239 73.1512C673.602 73.1512 674.759 73.4312 675.711 73.9912C676.682 74.5512 677.438 75.2978 677.979 76.2312L680.667 74.4392C680.088 73.5245 679.379 72.7498 678.539 72.1152C677.718 71.4618 676.784 70.9672 675.739 70.6312C674.694 70.2765 673.527 70.0992 672.239 70.0992C670.764 70.0992 669.392 70.3418 668.123 70.8272C666.872 71.3125 665.78 72.0125 664.847 72.9272C663.932 73.8232 663.214 74.8965 662.691 76.1472C662.187 77.3792 661.935 78.7418 661.935 80.2352C661.935 81.7285 662.187 83.1005 662.691 84.3512C663.195 85.6018 663.904 86.6845 664.819 87.5992C665.752 88.5138 666.844 89.2232 668.095 89.7272C669.346 90.2125 670.708 90.4552 672.183 90.4552C673.732 90.4552 675.114 90.1752 676.327 89.6152C677.559 89.0365 678.586 88.2525 679.407 87.2632C680.228 86.2738 680.844 85.1445 681.255 83.8752C681.666 82.5872 681.852 81.2245 681.815 79.7872H672.379V82.5872ZM686.856 86.0312C686.856 85.6205 686.949 85.2752 687.136 84.9952C687.341 84.7152 687.64 84.5005 688.032 84.3512C688.424 84.1832 688.937 84.0992 689.572 84.0992C690.3 84.0992 690.99 84.1925 691.644 84.3792C692.297 84.5658 692.913 84.8645 693.492 85.2752V83.7352C693.324 83.5298 693.034 83.3058 692.624 83.0632C692.213 82.8018 691.69 82.5778 691.056 82.3912C690.44 82.2045 689.702 82.1112 688.844 82.1112C687.238 82.1112 685.997 82.4845 685.12 83.2312C684.242 83.9592 683.804 84.9485 683.804 86.1992C683.804 87.0765 684.009 87.8232 684.42 88.4392C684.83 89.0552 685.381 89.5218 686.072 89.8392C686.762 90.1565 687.509 90.3152 688.312 90.3152C689.058 90.3152 689.786 90.1845 690.496 89.9232C691.224 89.6432 691.821 89.2325 692.288 88.6912C692.773 88.1312 693.016 87.4405 693.016 86.6192L692.568 84.9392C692.568 85.5738 692.409 86.1338 692.092 86.6192C691.793 87.0858 691.392 87.4405 690.888 87.6832C690.402 87.9258 689.861 88.0472 689.264 88.0472C688.797 88.0472 688.377 87.9725 688.004 87.8232C687.649 87.6738 687.369 87.4498 687.164 87.1512C686.958 86.8338 686.856 86.4605 686.856 86.0312ZM685.904 80.5152C686.09 80.3845 686.37 80.2258 686.744 80.0392C687.136 79.8338 687.593 79.6658 688.116 79.5352C688.657 79.3858 689.226 79.3112 689.824 79.3112C690.216 79.3112 690.58 79.3485 690.916 79.4232C691.252 79.4978 691.541 79.6192 691.784 79.7872C692.026 79.9552 692.213 80.1698 692.344 80.4312C692.493 80.6925 692.568 81.0285 692.568 81.4392V90.0352H695.536V80.8512C695.536 79.9925 695.302 79.2738 694.836 78.6952C694.369 78.0978 693.725 77.6405 692.904 77.3232C692.101 77.0058 691.168 76.8472 690.104 76.8472C688.909 76.8472 687.845 77.0152 686.912 77.3512C685.997 77.6872 685.25 78.0325 684.672 78.3872L685.904 80.5152ZM717.485 81.8592C717.485 80.7952 717.336 79.8898 717.037 79.1432C716.738 78.3965 716.281 77.8365 715.665 77.4632C715.068 77.0712 714.312 76.8752 713.397 76.8752C712.52 76.8752 711.736 77.0712 711.045 77.4632C710.373 77.8552 709.813 78.4245 709.365 79.1712C709.085 78.4245 708.628 77.8552 707.993 77.4632C707.377 77.0712 706.593 76.8752 705.641 76.8752C704.82 76.8752 704.101 77.0618 703.485 77.4352C702.888 77.7898 702.402 78.3218 702.029 79.0312V77.1552H699.061V90.0352H702.029V82.1952C702.029 81.5792 702.132 81.0565 702.337 80.6272C702.542 80.1978 702.832 79.8712 703.205 79.6472C703.597 79.4232 704.054 79.3112 704.577 79.3112C705.324 79.3112 705.865 79.5538 706.201 80.0392C706.556 80.5058 706.733 81.2245 706.733 82.1952V90.0352H709.757V82.1952C709.757 81.5792 709.86 81.0565 710.065 80.6272C710.289 80.1978 710.588 79.8712 710.961 79.6472C711.353 79.4232 711.801 79.3112 712.305 79.3112C713.052 79.3112 713.593 79.5538 713.929 80.0392C714.284 80.5058 714.461 81.2245 714.461 82.1952V90.0352H717.485V81.8592ZM726.946 90.3152C728.439 90.3152 729.718 90.0258 730.782 89.4472C731.846 88.8685 732.714 88.0005 733.386 86.8432L730.782 85.7792C730.371 86.4698 729.858 86.9832 729.242 87.3192C728.626 87.6552 727.907 87.8232 727.086 87.8232C726.302 87.8232 725.63 87.6552 725.07 87.3192C724.529 86.9832 724.118 86.4978 723.838 85.8632C723.558 85.2098 723.418 84.4165 723.418 83.4832C723.437 82.5498 723.586 81.7658 723.866 81.1312C724.146 80.4965 724.557 80.0112 725.098 79.6752C725.639 79.3392 726.293 79.1712 727.058 79.1712C727.693 79.1712 728.243 79.3112 728.71 79.5912C729.195 79.8712 729.569 80.2632 729.83 80.7672C730.11 81.2712 730.25 81.8685 730.25 82.5592C730.25 82.6898 730.213 82.8578 730.138 83.0632C730.082 83.2498 730.026 83.3992 729.97 83.5112L730.894 82.2232H722.158V84.2952H733.47C733.489 84.2205 733.498 84.0992 733.498 83.9312C733.517 83.7632 733.526 83.6045 733.526 83.4552C733.526 82.0738 733.265 80.8978 732.742 79.9272C732.238 78.9378 731.51 78.1818 730.558 77.6592C729.606 77.1365 728.449 76.8752 727.086 76.8752C725.723 76.8752 724.538 77.1552 723.53 77.7152C722.522 78.2565 721.738 79.0312 721.178 80.0392C720.637 81.0472 720.366 82.2325 720.366 83.5952C720.366 84.9392 720.637 86.1152 721.178 87.1232C721.719 88.1312 722.485 88.9152 723.474 89.4752C724.482 90.0352 725.639 90.3152 726.946 90.3152ZM743.827 83.5952C743.827 84.9018 744.126 86.0685 744.723 87.0952C745.339 88.1032 746.17 88.8965 747.215 89.4752C748.26 90.0352 749.446 90.3152 750.771 90.3152C752.096 90.3152 753.272 90.0352 754.299 89.4752C755.344 88.8965 756.175 88.1032 756.791 87.0952C757.407 86.0685 757.715 84.9018 757.715 83.5952C757.715 82.2698 757.407 81.1032 756.791 80.0952C756.175 79.0872 755.344 78.3032 754.299 77.7432C753.272 77.1645 752.096 76.8752 750.771 76.8752C749.446 76.8752 748.26 77.1645 747.215 77.7432C746.17 78.3032 745.339 79.0872 744.723 80.0952C744.126 81.1032 743.827 82.2698 743.827 83.5952ZM746.935 83.5952C746.935 82.7925 747.103 82.0832 747.439 81.4672C747.775 80.8512 748.232 80.3752 748.811 80.0392C749.39 79.7032 750.043 79.5352 750.771 79.5352C751.48 79.5352 752.124 79.7032 752.703 80.0392C753.3 80.3752 753.767 80.8512 754.103 81.4672C754.439 82.0832 754.607 82.7925 754.607 83.5952C754.607 84.3978 754.439 85.1072 754.103 85.7232C753.767 86.3205 753.3 86.7965 752.703 87.1512C752.124 87.4872 751.48 87.6552 750.771 87.6552C750.043 87.6552 749.39 87.4872 748.811 87.1512C748.232 86.7965 747.775 86.3205 747.439 85.7232C747.103 85.1072 746.935 84.3978 746.935 83.5952ZM759.52 77.1552V79.8152H766.912V77.1552H759.52ZM766.576 71.4432L768.004 69.0912C767.855 68.9045 767.64 68.7178 767.36 68.5312C767.099 68.3445 766.782 68.1858 766.408 68.0552C766.035 67.9245 765.596 67.8592 765.092 67.8592C764.196 67.8592 763.44 68.0365 762.824 68.3912C762.208 68.7272 761.732 69.2312 761.396 69.9032C761.079 70.5565 760.92 71.3872 760.92 72.3952V90.0352H763.888V72.9832C763.888 72.4418 763.944 72.0032 764.056 71.6672C764.168 71.3312 764.318 71.0885 764.504 70.9392C764.71 70.7898 764.952 70.7152 765.232 70.7152C765.475 70.7152 765.708 70.7618 765.932 70.8552C766.175 70.9485 766.39 71.1445 766.576 71.4432ZM780.392 79.9272H783.78C785.012 79.9272 786.094 79.7498 787.028 79.3952C787.98 79.0405 788.717 78.5272 789.24 77.8552C789.781 77.1645 790.052 76.3338 790.052 75.3632C790.052 74.2432 789.781 73.3192 789.24 72.5912C788.717 71.8632 787.98 71.3218 787.028 70.9672C786.094 70.6125 785.012 70.4352 783.78 70.4352H777.872V90.0352H784.116C785.497 90.0352 786.71 89.8392 787.756 89.4472C788.82 89.0365 789.65 88.4112 790.248 87.5712C790.864 86.7312 791.172 85.6672 791.172 84.3792C791.172 83.4458 790.985 82.6432 790.612 81.9712C790.238 81.2992 789.716 80.7485 789.044 80.3192C788.39 79.8898 787.644 79.5725 786.804 79.3672C785.964 79.1618 785.068 79.0592 784.116 79.0592H780.392V80.8792H783.919C784.48 80.8792 784.993 80.9445 785.46 81.0752C785.926 81.1872 786.328 81.3832 786.664 81.6632C787.018 81.9245 787.289 82.2605 787.476 82.6712C787.681 83.0632 787.784 83.5205 787.784 84.0432C787.784 84.7712 787.616 85.3778 787.28 85.8632C786.944 86.3485 786.486 86.7125 785.908 86.9552C785.329 87.1978 784.666 87.3192 783.919 87.3192H781.176V73.1512H783.556C784.47 73.1512 785.217 73.3752 785.796 73.8232C786.374 74.2712 786.664 74.9058 786.664 75.7272C786.664 76.2685 786.533 76.7352 786.272 77.1272C786.01 77.5005 785.646 77.7898 785.18 77.9952C784.713 78.2005 784.172 78.3032 783.556 78.3032H780.392V79.9272ZM793.429 83.5952C793.429 84.9018 793.727 86.0685 794.325 87.0952C794.941 88.1032 795.771 88.8965 796.817 89.4752C797.862 90.0352 799.047 90.3152 800.373 90.3152C801.698 90.3152 802.874 90.0352 803.901 89.4752C804.946 88.8965 805.777 88.1032 806.393 87.0952C807.009 86.0685 807.317 84.9018 807.317 83.5952C807.317 82.2698 807.009 81.1032 806.393 80.0952C805.777 79.0872 804.946 78.3032 803.901 77.7432C802.874 77.1645 801.698 76.8752 800.373 76.8752C799.047 76.8752 797.862 77.1645 796.817 77.7432C795.771 78.3032 794.941 79.0872 794.325 80.0952C793.727 81.1032 793.429 82.2698 793.429 83.5952ZM796.537 83.5952C796.537 82.7925 796.705 82.0832 797.041 81.4672C797.377 80.8512 797.834 80.3752 798.413 80.0392C798.991 79.7032 799.645 79.5352 800.373 79.5352C801.082 79.5352 801.726 79.7032 802.305 80.0392C802.902 80.3752 803.369 80.8512 803.705 81.4672C804.041 82.0832 804.209 82.7925 804.209 83.5952C804.209 84.3978 804.041 85.1072 803.705 85.7232C803.369 86.3205 802.902 86.7965 802.305 87.1512C801.726 87.4872 801.082 87.6552 800.373 87.6552C799.645 87.6552 798.991 87.4872 798.413 87.1512C797.834 86.7965 797.377 86.3205 797.041 85.7232C796.705 85.1072 796.537 84.3978 796.537 83.5952ZM807.844 77.1552L813.864 90.9592L817.728 82.2512L821.76 90.9592L827.78 77.1552H824.504L821.48 84.8552L817.7 76.1752L814.144 84.8272L811.12 77.1552H807.844ZM829.709 68.1952V90.0352H832.733V68.1952H829.709ZM836.488 72.0312C836.488 72.5352 836.675 72.9738 837.048 73.3472C837.44 73.7018 837.888 73.8792 838.392 73.8792C838.933 73.8792 839.381 73.7018 839.736 73.3472C840.109 72.9738 840.296 72.5352 840.296 72.0312C840.296 71.5085 840.109 71.0698 839.736 70.7152C839.381 70.3605 838.933 70.1832 838.392 70.1832C837.888 70.1832 837.44 70.3605 837.048 70.7152C836.675 71.0698 836.488 71.5085 836.488 72.0312ZM836.908 77.1552V90.0352H839.876V77.1552H836.908ZM852.325 82.1952V90.0352H855.433V81.8592C855.433 80.3098 855.051 79.0965 854.285 78.2192C853.52 77.3232 852.409 76.8752 850.953 76.8752C850.057 76.8752 849.283 77.0618 848.629 77.4352C847.995 77.8085 847.472 78.3778 847.061 79.1432V77.1552H844.037V90.0352H847.061V82.1952C847.061 81.6165 847.183 81.1125 847.425 80.6832C847.668 80.2352 848.004 79.8992 848.433 79.6752C848.863 79.4325 849.357 79.3112 849.917 79.3112C850.739 79.3112 851.345 79.5538 851.737 80.0392C852.129 80.5245 852.325 81.2432 852.325 82.1952ZM858.567 90.9032C858.605 92.0232 858.885 93.0125 859.407 93.8712C859.949 94.7298 860.714 95.3925 861.703 95.8592C862.693 96.3445 863.887 96.5872 865.287 96.5872C866.463 96.5872 867.555 96.3352 868.563 95.8312C869.571 95.3458 870.383 94.5992 870.999 93.5912C871.634 92.5832 871.951 91.3045 871.951 89.7552V77.1552H868.983V89.7552C868.983 90.7258 868.797 91.5192 868.423 92.1352C868.069 92.7512 867.602 93.2085 867.023 93.5072C866.445 93.8058 865.838 93.9552 865.203 93.9552C864.494 93.9552 863.869 93.8245 863.327 93.5632C862.786 93.3018 862.357 92.9378 862.039 92.4712C861.741 92.0045 861.582 91.4818 861.563 90.9032H858.567ZM858.315 83.5392C858.315 84.9392 858.605 86.1338 859.183 87.1232C859.762 88.1125 860.527 88.8685 861.479 89.3912C862.45 89.9138 863.486 90.1752 864.587 90.1752C865.67 90.1752 866.613 89.9138 867.415 89.3912C868.237 88.8498 868.881 88.0845 869.347 87.0952C869.833 86.1058 870.075 84.9205 870.075 83.5392C870.075 82.1392 869.833 80.9445 869.347 79.9552C868.881 78.9658 868.237 78.2098 867.415 77.6872C866.613 77.1458 865.67 76.8752 864.587 76.8752C863.486 76.8752 862.45 77.1365 861.479 77.6592C860.527 78.1818 859.762 78.9378 859.183 79.9272C858.605 80.8978 858.315 82.1018 858.315 83.5392ZM861.451 83.5392C861.451 82.6618 861.629 81.9245 861.983 81.3272C862.338 80.7298 862.805 80.2818 863.383 79.9832C863.981 79.6658 864.625 79.5072 865.315 79.5072C865.745 79.5072 866.174 79.5912 866.603 79.7592C867.051 79.9272 867.453 80.1885 867.807 80.5432C868.162 80.8792 868.442 81.2992 868.647 81.8032C868.871 82.2885 868.983 82.8672 868.983 83.5392C868.983 84.3978 868.797 85.1352 868.423 85.7512C868.069 86.3485 867.602 86.7965 867.023 87.0952C866.463 87.3938 865.894 87.5432 865.315 87.5432C864.625 87.5432 863.981 87.3938 863.383 87.0952C862.805 86.7778 862.338 86.3205 861.983 85.7232C861.629 85.1258 861.451 84.3978 861.451 83.5392ZM877.606 86.9552L875.142 94.2072L877.382 94.8232L880.63 87.8232L877.606 86.9552ZM894.441 83.7352L891.977 85.4432C892.406 86.3392 892.985 87.1698 893.713 87.9352C894.441 88.7005 895.29 89.3165 896.261 89.7832C897.25 90.2312 898.323 90.4552 899.481 90.4552C900.321 90.4552 901.123 90.3152 901.889 90.0352C902.673 89.7738 903.373 89.4005 903.989 88.9152C904.605 88.4112 905.09 87.7952 905.445 87.0672C905.799 86.3392 905.977 85.5178 905.977 84.6032C905.977 83.7445 905.827 82.9978 905.529 82.3632C905.249 81.7285 904.866 81.1778 904.381 80.7112C903.895 80.2258 903.354 79.8245 902.757 79.5072C902.178 79.1898 901.599 78.9285 901.021 78.7232C899.975 78.3498 899.126 77.9858 898.473 77.6312C897.819 77.2765 897.334 76.9032 897.017 76.5112C896.718 76.1005 896.569 75.6432 896.569 75.1392C896.569 74.5792 896.783 74.0938 897.213 73.6832C897.642 73.2538 898.314 73.0392 899.229 73.0392C899.882 73.0392 900.451 73.1698 900.937 73.4312C901.441 73.6738 901.879 74.0098 902.253 74.4392C902.626 74.8498 902.934 75.2978 903.177 75.7832L905.865 74.2712C905.529 73.5805 905.062 72.9178 904.465 72.2832C903.886 71.6485 903.167 71.1258 902.309 70.7152C901.45 70.3045 900.442 70.0992 899.285 70.0992C898.109 70.0992 897.054 70.3232 896.121 70.7712C895.206 71.2005 894.478 71.8165 893.937 72.6192C893.395 73.4032 893.125 74.3178 893.125 75.3632C893.125 76.2778 893.302 77.0618 893.657 77.7152C894.011 78.3498 894.459 78.8912 895.001 79.3392C895.542 79.7685 896.111 80.1325 896.709 80.4312C897.306 80.7112 897.847 80.9352 898.333 81.1032C899.154 81.4018 899.873 81.7098 900.489 82.0272C901.123 82.3258 901.618 82.6992 901.973 83.1472C902.327 83.5765 902.505 84.1552 902.505 84.8832C902.505 85.6485 902.225 86.2738 901.665 86.7592C901.105 87.2445 900.377 87.4872 899.481 87.4872C898.734 87.4872 898.062 87.3378 897.465 87.0392C896.867 86.7218 896.317 86.2832 895.813 85.7232C895.327 85.1445 894.87 84.4818 894.441 83.7352ZM912.14 68.1952H909.116V90.0352H912.14V68.1952ZM917.404 82.1952V90.0352H920.456V81.7752C920.456 80.6738 920.288 79.7592 919.952 79.0312C919.616 78.2845 919.112 77.7245 918.44 77.3512C917.786 76.9778 916.984 76.7912 916.032 76.7912C915.061 76.7912 914.23 77.0338 913.54 77.5192C912.868 78.0045 912.345 78.6485 911.972 79.4512C911.598 80.2538 911.412 81.1685 911.412 82.1952H912.14C912.14 81.6165 912.261 81.1125 912.504 80.6832C912.746 80.2538 913.082 79.9178 913.512 79.6752C913.941 79.4325 914.436 79.3112 914.996 79.3112C915.836 79.3112 916.442 79.5538 916.816 80.0392C917.208 80.5245 917.404 81.2432 917.404 82.1952ZM923.311 83.5952C923.311 84.9018 923.61 86.0685 924.207 87.0952C924.823 88.1032 925.654 88.8965 926.699 89.4752C927.745 90.0352 928.93 90.3152 930.255 90.3152C931.581 90.3152 932.757 90.0352 933.783 89.4752C934.829 88.8965 935.659 88.1032 936.275 87.0952C936.891 86.0685 937.199 84.9018 937.199 83.5952C937.199 82.2698 936.891 81.1032 936.275 80.0952C935.659 79.0872 934.829 78.3032 933.783 77.7432C932.757 77.1645 931.581 76.8752 930.255 76.8752C928.93 76.8752 927.745 77.1645 926.699 77.7432C925.654 78.3032 924.823 79.0872 924.207 80.0952C923.61 81.1032 923.311 82.2698 923.311 83.5952ZM926.419 83.5952C926.419 82.7925 926.587 82.0832 926.923 81.4672C927.259 80.8512 927.717 80.3752 928.295 80.0392C928.874 79.7032 929.527 79.5352 930.255 79.5352C930.965 79.5352 931.609 79.7032 932.187 80.0392C932.785 80.3752 933.251 80.8512 933.587 81.4672C933.923 82.0832 934.091 82.7925 934.091 83.5952C934.091 84.3978 933.923 85.1072 933.587 85.7232C933.251 86.3205 932.785 86.7965 932.187 87.1512C931.609 87.4872 930.965 87.6552 930.255 87.6552C929.527 87.6552 928.874 87.4872 928.295 87.1512C927.717 86.7965 927.259 86.3205 926.923 85.7232C926.587 85.1072 926.419 84.3978 926.419 83.5952ZM945.669 90.3152C947.162 90.3152 948.441 90.0258 949.505 89.4472C950.569 88.8685 951.437 88.0005 952.109 86.8432L949.505 85.7792C949.094 86.4698 948.581 86.9832 947.965 87.3192C947.349 87.6552 946.63 87.8232 945.809 87.8232C945.025 87.8232 944.353 87.6552 943.793 87.3192C943.251 86.9832 942.841 86.4978 942.561 85.8632C942.281 85.2098 942.141 84.4165 942.141 83.4832C942.159 82.5498 942.309 81.7658 942.589 81.1312C942.869 80.4965 943.279 80.0112 943.821 79.6752C944.362 79.3392 945.015 79.1712 945.781 79.1712C946.415 79.1712 946.966 79.3112 947.433 79.5912C947.918 79.8712 948.291 80.2632 948.553 80.7672C948.833 81.2712 948.973 81.8685 948.973 82.5592C948.973 82.6898 948.935 82.8578 948.861 83.0632C948.805 83.2498 948.749 83.3992 948.693 83.5112L949.617 82.2232H940.881V84.2952H952.193C952.211 84.2205 952.221 84.0992 952.221 83.9312C952.239 83.7632 952.249 83.6045 952.249 83.4552C952.249 82.0738 951.987 80.8978 951.465 79.9272C950.961 78.9378 950.233 78.1818 949.281 77.6592C948.329 77.1365 947.171 76.8752 945.809 76.8752C944.446 76.8752 943.261 77.1552 942.253 77.7152C941.245 78.2565 940.461 79.0312 939.901 80.0392C939.359 81.0472 939.089 82.2325 939.089 83.5952C939.089 84.9392 939.359 86.1152 939.901 87.1232C940.442 88.1312 941.207 88.9152 942.197 89.4752C943.205 90.0352 944.362 90.3152 945.669 90.3152ZM967.814 80.6832L974.058 90.0352H978.034L971.398 80.6832H967.814ZM963.782 70.4352V90.0352H967.086V70.4352H963.782ZM965.742 73.2912H969.69C970.436 73.2912 971.09 73.4218 971.65 73.6832C972.228 73.9445 972.676 74.3178 972.994 74.8032C973.311 75.2885 973.47 75.8858 973.47 76.5952C973.47 77.2858 973.311 77.8832 972.994 78.3872C972.676 78.8725 972.228 79.2458 971.65 79.5072C971.09 79.7685 970.436 79.8992 969.69 79.8992H965.742V82.6152H969.83C971.248 82.6152 972.48 82.3632 973.526 81.8592C974.59 81.3552 975.411 80.6458 975.99 79.7312C976.568 78.8165 976.858 77.7432 976.858 76.5112C976.858 75.2792 976.568 74.2152 975.99 73.3192C975.411 72.4045 974.59 71.6952 973.526 71.1912C972.48 70.6872 971.248 70.4352 969.83 70.4352H965.742V73.2912ZM985.782 90.3152C987.275 90.3152 988.554 90.0258 989.618 89.4472C990.682 88.8685 991.55 88.0005 992.222 86.8432L989.618 85.7792C989.207 86.4698 988.694 86.9832 988.078 87.3192C987.462 87.6552 986.743 87.8232 985.922 87.8232C985.138 87.8232 984.466 87.6552 983.906 87.3192C983.365 86.9832 982.954 86.4978 982.674 85.8632C982.394 85.2098 982.254 84.4165 982.254 83.4832C982.273 82.5498 982.422 81.7658 982.702 81.1312C982.982 80.4965 983.393 80.0112 983.934 79.6752C984.475 79.3392 985.129 79.1712 985.894 79.1712C986.529 79.1712 987.079 79.3112 987.546 79.5912C988.031 79.8712 988.405 80.2632 988.666 80.7672C988.946 81.2712 989.086 81.8685 989.086 82.5592C989.086 82.6898 989.049 82.8578 988.974 83.0632C988.918 83.2498 988.862 83.3992 988.806 83.5112L989.73 82.2232H980.994V84.2952H992.306C992.325 84.2205 992.334 84.0992 992.334 83.9312C992.353 83.7632 992.362 83.6045 992.362 83.4552C992.362 82.0738 992.101 80.8978 991.578 79.9272C991.074 78.9378 990.346 78.1818 989.394 77.6592C988.442 77.1365 987.285 76.8752 985.922 76.8752C984.559 76.8752 983.374 77.1552 982.366 77.7152C981.358 78.2565 980.574 79.0312 980.014 80.0392C979.473 81.0472 979.202 82.2325 979.202 83.5952C979.202 84.9392 979.473 86.1152 980.014 87.1232C980.555 88.1312 981.321 88.9152 982.31 89.4752C983.318 90.0352 984.475 90.3152 985.782 90.3152ZM1003.54 82.1952V90.0352H1006.64V81.8592C1006.64 80.3098 1006.26 79.0965 1005.5 78.2192C1004.73 77.3232 1003.62 76.8752 1002.16 76.8752C1001.27 76.8752 1000.49 77.0618 999.84 77.4352C999.206 77.8085 998.683 78.3778 998.272 79.1432V77.1552H995.248V90.0352H998.272V82.1952C998.272 81.6165 998.394 81.1125 998.636 80.6832C998.879 80.2352 999.215 79.8992 999.644 79.6752C1000.07 79.4325 1000.57 79.3112 1001.13 79.3112C1001.95 79.3112 1002.56 79.5538 1002.95 80.0392C1003.34 80.5245 1003.54 81.2432 1003.54 82.1952ZM1008.71 77.1552V79.8152H1016.02V77.1552H1008.71ZM1010.87 72.6752V90.0352H1013.87V72.6752H1010.87ZM1020.01 86.0312C1020.01 85.6205 1020.11 85.2752 1020.29 84.9952C1020.5 84.7152 1020.8 84.5005 1021.19 84.3512C1021.58 84.1832 1022.09 84.0992 1022.73 84.0992C1023.46 84.0992 1024.15 84.1925 1024.8 84.3792C1025.45 84.5658 1026.07 84.8645 1026.65 85.2752V83.7352C1026.48 83.5298 1026.19 83.3058 1025.78 83.0632C1025.37 82.8018 1024.85 82.5778 1024.21 82.3912C1023.6 82.2045 1022.86 82.1112 1022 82.1112C1020.39 82.1112 1019.15 82.4845 1018.28 83.2312C1017.4 83.9592 1016.96 84.9485 1016.96 86.1992C1016.96 87.0765 1017.17 87.8232 1017.58 88.4392C1017.99 89.0552 1018.54 89.5218 1019.23 89.8392C1019.92 90.1565 1020.67 90.3152 1021.47 90.3152C1022.21 90.3152 1022.94 90.1845 1023.65 89.9232C1024.38 89.6432 1024.98 89.2325 1025.44 88.6912C1025.93 88.1312 1026.17 87.4405 1026.17 86.6192L1025.72 84.9392C1025.72 85.5738 1025.57 86.1338 1025.25 86.6192C1024.95 87.0858 1024.55 87.4405 1024.04 87.6832C1023.56 87.9258 1023.02 88.0472 1022.42 88.0472C1021.95 88.0472 1021.53 87.9725 1021.16 87.8232C1020.81 87.6738 1020.53 87.4498 1020.32 87.1512C1020.11 86.8338 1020.01 86.4605 1020.01 86.0312ZM1019.06 80.5152C1019.25 80.3845 1019.53 80.2258 1019.9 80.0392C1020.29 79.8338 1020.75 79.6658 1021.27 79.5352C1021.81 79.3858 1022.38 79.3112 1022.98 79.3112C1023.37 79.3112 1023.74 79.3485 1024.07 79.4232C1024.41 79.4978 1024.7 79.6192 1024.94 79.7872C1025.18 79.9552 1025.37 80.1698 1025.5 80.4312C1025.65 80.6925 1025.72 81.0285 1025.72 81.4392V90.0352H1028.69V80.8512C1028.69 79.9925 1028.46 79.2738 1027.99 78.6952C1027.53 78.0978 1026.88 77.6405 1026.06 77.3232C1025.26 77.0058 1024.32 76.8472 1023.26 76.8472C1022.07 76.8472 1021 77.0152 1020.07 77.3512C1019.15 77.6872 1018.41 78.0325 1017.83 78.3872L1019.06 80.5152ZM1032.22 68.1952V90.0352H1035.24V68.1952H1032.22ZM1041.01 86.9552L1038.55 94.2072L1040.79 94.8232L1044.04 87.8232L1041.01 86.9552ZM1056.48 75.0272L1061.01 73.7672V90.0352H1064.29V70.1272L1056.48 71.8912V75.0272ZM1079.53 81.0472H1093.5V77.9952H1079.53V81.0472ZM1091.38 70.4352V90.0352H1094.68V70.4352H1091.38ZM1078.22 70.4352V90.0352H1081.52V70.4352H1078.22ZM1097.82 83.5952C1097.82 84.9018 1098.12 86.0685 1098.72 87.0952C1099.33 88.1032 1100.16 88.8965 1101.21 89.4752C1102.25 90.0352 1103.44 90.3152 1104.76 90.3152C1106.09 90.3152 1107.26 90.0352 1108.29 89.4752C1109.34 88.8965 1110.17 88.1032 1110.78 87.0952C1111.4 86.0685 1111.71 84.9018 1111.71 83.5952C1111.71 82.2698 1111.4 81.1032 1110.78 80.0952C1110.17 79.0872 1109.34 78.3032 1108.29 77.7432C1107.26 77.1645 1106.09 76.8752 1104.76 76.8752C1103.44 76.8752 1102.25 77.1645 1101.21 77.7432C1100.16 78.3032 1099.33 79.0872 1098.72 80.0952C1098.12 81.1032 1097.82 82.2698 1097.82 83.5952ZM1100.93 83.5952C1100.93 82.7925 1101.1 82.0832 1101.43 81.4672C1101.77 80.8512 1102.22 80.3752 1102.8 80.0392C1103.38 79.7032 1104.04 79.5352 1104.76 79.5352C1105.47 79.5352 1106.12 79.7032 1106.7 80.0392C1107.29 80.3752 1107.76 80.8512 1108.1 81.4672C1108.43 82.0832 1108.6 82.7925 1108.6 83.5952C1108.6 84.3978 1108.43 85.1072 1108.1 85.7232C1107.76 86.3205 1107.29 86.7965 1106.7 87.1512C1106.12 87.4872 1105.47 87.6552 1104.76 87.6552C1104.04 87.6552 1103.38 87.4872 1102.8 87.1512C1102.22 86.7965 1101.77 86.3205 1101.43 85.7232C1101.1 85.1072 1100.93 84.3978 1100.93 83.5952ZM1117.68 84.9952V77.1552H1114.58V85.3312C1114.58 86.8618 1114.96 88.0752 1115.72 88.9712C1116.51 89.8672 1117.62 90.3152 1119.06 90.3152C1119.95 90.3152 1120.72 90.1285 1121.35 89.7552C1122.01 89.3632 1122.54 88.7938 1122.95 88.0472V90.0352H1125.97V77.1552H1122.95V84.9952C1122.95 85.5738 1122.83 86.0872 1122.58 86.5352C1122.34 86.9645 1122.01 87.3005 1121.58 87.5432C1121.15 87.7672 1120.64 87.8792 1120.06 87.8792C1119.26 87.8792 1118.66 87.6272 1118.27 87.1232C1117.88 86.6192 1117.68 85.9098 1117.68 84.9952ZM1132.83 77.1552H1129.83V90.0352H1132.83V77.1552ZM1136.67 80.3752L1138.12 77.8272C1137.84 77.4725 1137.5 77.2298 1137.09 77.0992C1136.68 76.9498 1136.24 76.8752 1135.77 76.8752C1135.12 76.8752 1134.48 77.1085 1133.87 77.5752C1133.27 78.0418 1132.77 78.6765 1132.38 79.4792C1132.01 80.2632 1131.82 81.1685 1131.82 82.1952L1132.83 82.7832C1132.83 82.1672 1132.9 81.6352 1133.03 81.1872C1133.18 80.7205 1133.41 80.3565 1133.73 80.0952C1134.04 79.8338 1134.45 79.7032 1134.96 79.7032C1135.33 79.7032 1135.64 79.7592 1135.88 79.8712C1136.13 79.9832 1136.39 80.1512 1136.67 80.3752ZM1148.48 72.0312C1148.48 72.5352 1148.67 72.9738 1149.04 73.3472C1149.43 73.7018 1149.88 73.8792 1150.38 73.8792C1150.93 73.8792 1151.37 73.7018 1151.73 73.3472C1152.1 72.9738 1152.29 72.5352 1152.29 72.0312C1152.29 71.5085 1152.1 71.0698 1151.73 70.7152C1151.37 70.3605 1150.93 70.1832 1150.38 70.1832C1149.88 70.1832 1149.43 70.3605 1149.04 70.7152C1148.67 71.0698 1148.48 71.5085 1148.48 72.0312ZM1148.9 77.1552V90.0352H1151.87V77.1552H1148.9ZM1164.32 82.1952V90.0352H1167.43V81.8592C1167.43 80.3098 1167.04 79.0965 1166.28 78.2192C1165.51 77.3232 1164.4 76.8752 1162.95 76.8752C1162.05 76.8752 1161.27 77.0618 1160.62 77.4352C1159.99 77.8085 1159.46 78.3778 1159.05 79.1432V77.1552H1156.03V90.0352H1159.05V82.1952C1159.05 81.6165 1159.17 81.1125 1159.42 80.6832C1159.66 80.2352 1160 79.8992 1160.43 79.6752C1160.85 79.4325 1161.35 79.3112 1161.91 79.3112C1162.73 79.3112 1163.34 79.5538 1163.73 80.0392C1164.12 80.5245 1164.32 81.2432 1164.32 82.1952ZM266.844 110.435V130.035H270.148V110.435H266.844ZM268.804 113.347H272.752C273.891 113.347 274.805 113.618 275.496 114.159C276.187 114.682 276.532 115.466 276.532 116.511C276.532 117.556 276.187 118.35 275.496 118.891C274.805 119.432 273.891 119.703 272.752 119.703H268.804V122.615H272.752C274.171 122.615 275.403 122.372 276.448 121.887C277.512 121.383 278.333 120.674 278.912 119.759C279.491 118.844 279.78 117.762 279.78 116.511C279.78 115.26 279.491 114.187 278.912 113.291C278.333 112.376 277.512 111.676 276.448 111.191C275.403 110.687 274.171 110.435 272.752 110.435H268.804V113.347ZM283.836 126.031C283.836 125.62 283.929 125.275 284.116 124.995C284.321 124.715 284.62 124.5 285.012 124.351C285.404 124.183 285.917 124.099 286.552 124.099C287.28 124.099 287.971 124.192 288.624 124.379C289.277 124.566 289.893 124.864 290.472 125.275V123.735C290.304 123.53 290.015 123.306 289.604 123.063C289.193 122.802 288.671 122.578 288.036 122.391C287.42 122.204 286.683 122.111 285.824 122.111C284.219 122.111 282.977 122.484 282.1 123.231C281.223 123.959 280.784 124.948 280.784 126.199C280.784 127.076 280.989 127.823 281.4 128.439C281.811 129.055 282.361 129.522 283.052 129.839C283.743 130.156 284.489 130.315 285.292 130.315C286.039 130.315 286.767 130.184 287.476 129.923C288.204 129.643 288.801 129.232 289.268 128.691C289.753 128.131 289.996 127.44 289.996 126.619L289.548 124.939C289.548 125.574 289.389 126.134 289.072 126.619C288.773 127.086 288.372 127.44 287.868 127.683C287.383 127.926 286.841 128.047 286.244 128.047C285.777 128.047 285.357 127.972 284.984 127.823C284.629 127.674 284.349 127.45 284.144 127.151C283.939 126.834 283.836 126.46 283.836 126.031ZM282.884 120.515C283.071 120.384 283.351 120.226 283.724 120.039C284.116 119.834 284.573 119.666 285.096 119.535C285.637 119.386 286.207 119.311 286.804 119.311C287.196 119.311 287.56 119.348 287.896 119.423C288.232 119.498 288.521 119.619 288.764 119.787C289.007 119.955 289.193 120.17 289.324 120.431C289.473 120.692 289.548 121.028 289.548 121.439V130.035H292.516V120.851C292.516 119.992 292.283 119.274 291.816 118.695C291.349 118.098 290.705 117.64 289.884 117.323C289.081 117.006 288.148 116.847 287.084 116.847C285.889 116.847 284.825 117.015 283.892 117.351C282.977 117.687 282.231 118.032 281.652 118.387L282.884 120.515ZM299.037 117.155H296.041V130.035H299.037V117.155ZM302.873 120.375L304.329 117.827C304.049 117.472 303.704 117.23 303.293 117.099C302.883 116.95 302.444 116.875 301.977 116.875C301.324 116.875 300.689 117.108 300.073 117.575C299.476 118.042 298.981 118.676 298.589 119.479C298.216 120.263 298.029 121.168 298.029 122.195L299.037 122.783C299.037 122.167 299.103 121.635 299.233 121.187C299.383 120.72 299.616 120.356 299.933 120.095C300.251 119.834 300.661 119.703 301.165 119.703C301.539 119.703 301.847 119.759 302.089 119.871C302.332 119.983 302.593 120.151 302.873 120.375ZM304.613 117.155V119.815H311.921V117.155H304.613ZM306.769 112.675V130.035H309.765V112.675H306.769ZM325.402 117.155H322.154L318.122 127.263L319.55 127.347L315.434 117.155H311.962L317.142 128.523L313.782 136.195H317.002L325.402 117.155ZM339.892 120.683L346.136 130.035H350.112L343.476 120.683H339.892ZM335.86 110.435V130.035H339.164V110.435H335.86ZM337.82 113.291H341.768C342.514 113.291 343.168 113.422 343.728 113.683C344.306 113.944 344.754 114.318 345.072 114.803C345.389 115.288 345.548 115.886 345.548 116.595C345.548 117.286 345.389 117.883 345.072 118.387C344.754 118.872 344.306 119.246 343.728 119.507C343.168 119.768 342.514 119.899 341.768 119.899H337.82V122.615H341.908C343.326 122.615 344.558 122.363 345.604 121.859C346.668 121.355 347.489 120.646 348.068 119.731C348.646 118.816 348.936 117.743 348.936 116.511C348.936 115.279 348.646 114.215 348.068 113.319C347.489 112.404 346.668 111.695 345.604 111.191C344.558 110.687 343.326 110.435 341.908 110.435H337.82V113.291ZM351.28 123.595C351.28 124.902 351.579 126.068 352.176 127.095C352.792 128.103 353.623 128.896 354.668 129.475C355.713 130.035 356.899 130.315 358.224 130.315C359.549 130.315 360.725 130.035 361.752 129.475C362.797 128.896 363.628 128.103 364.244 127.095C364.86 126.068 365.168 124.902 365.168 123.595C365.168 122.27 364.86 121.103 364.244 120.095C363.628 119.087 362.797 118.303 361.752 117.743C360.725 117.164 359.549 116.875 358.224 116.875C356.899 116.875 355.713 117.164 354.668 117.743C353.623 118.303 352.792 119.087 352.176 120.095C351.579 121.103 351.28 122.27 351.28 123.595ZM354.388 123.595C354.388 122.792 354.556 122.083 354.892 121.467C355.228 120.851 355.685 120.375 356.264 120.039C356.843 119.703 357.496 119.535 358.224 119.535C358.933 119.535 359.577 119.703 360.156 120.039C360.753 120.375 361.22 120.851 361.556 121.467C361.892 122.083 362.06 122.792 362.06 123.595C362.06 124.398 361.892 125.107 361.556 125.723C361.22 126.32 360.753 126.796 360.156 127.151C359.577 127.487 358.933 127.655 358.224 127.655C357.496 127.655 356.843 127.487 356.264 127.151C355.685 126.796 355.228 126.32 354.892 125.723C354.556 125.107 354.388 124.398 354.388 123.595ZM367.057 123.595C367.057 124.902 367.356 126.068 367.953 127.095C368.569 128.103 369.4 128.896 370.445 129.475C371.491 130.035 372.676 130.315 374.001 130.315C375.327 130.315 376.503 130.035 377.529 129.475C378.575 128.896 379.405 128.103 380.021 127.095C380.637 126.068 380.945 124.902 380.945 123.595C380.945 122.27 380.637 121.103 380.021 120.095C379.405 119.087 378.575 118.303 377.529 117.743C376.503 117.164 375.327 116.875 374.001 116.875C372.676 116.875 371.491 117.164 370.445 117.743C369.4 118.303 368.569 119.087 367.953 120.095C367.356 121.103 367.057 122.27 367.057 123.595ZM370.165 123.595C370.165 122.792 370.333 122.083 370.669 121.467C371.005 120.851 371.463 120.375 372.041 120.039C372.62 119.703 373.273 119.535 374.001 119.535C374.711 119.535 375.355 119.703 375.933 120.039C376.531 120.375 376.997 120.851 377.333 121.467C377.669 122.083 377.837 122.792 377.837 123.595C377.837 124.398 377.669 125.107 377.333 125.723C376.997 126.32 376.531 126.796 375.933 127.151C375.355 127.487 374.711 127.655 374.001 127.655C373.273 127.655 372.62 127.487 372.041 127.151C371.463 126.796 371.005 126.32 370.669 125.723C370.333 125.107 370.165 124.398 370.165 123.595ZM402.239 121.859C402.239 120.795 402.089 119.89 401.791 119.143C401.492 118.396 401.035 117.836 400.419 117.463C399.821 117.071 399.065 116.875 398.151 116.875C397.273 116.875 396.489 117.071 395.799 117.463C395.127 117.855 394.567 118.424 394.119 119.171C393.839 118.424 393.381 117.855 392.747 117.463C392.131 117.071 391.347 116.875 390.395 116.875C389.573 116.875 388.855 117.062 388.239 117.435C387.641 117.79 387.156 118.322 386.783 119.031V117.155H383.815V130.035H386.783V122.195C386.783 121.579 386.885 121.056 387.091 120.627C387.296 120.198 387.585 119.871 387.959 119.647C388.351 119.423 388.808 119.311 389.331 119.311C390.077 119.311 390.619 119.554 390.955 120.039C391.309 120.506 391.487 121.224 391.487 122.195V130.035H394.511V122.195C394.511 121.579 394.613 121.056 394.819 120.627C395.043 120.198 395.341 119.871 395.715 119.647C396.107 119.423 396.555 119.311 397.059 119.311C397.805 119.311 398.347 119.554 398.683 120.039C399.037 120.506 399.215 121.224 399.215 122.195V130.035H402.239V121.859Z" fill="white"/>
<path d="M35.8676 145.435V165.035H39.1716V145.435H35.8676ZM37.8276 148.347H41.7756C42.9143 148.347 43.8289 148.618 44.5196 149.159C45.2103 149.682 45.5556 150.466 45.5556 151.511C45.5556 152.556 45.2103 153.35 44.5196 153.891C43.8289 154.432 42.9143 154.703 41.7756 154.703H37.8276V157.615H41.7756C43.1943 157.615 44.4263 157.372 45.4716 156.887C46.5356 156.383 47.3569 155.674 47.9356 154.759C48.5143 153.844 48.8036 152.762 48.8036 151.511C48.8036 150.26 48.5143 149.187 47.9356 148.291C47.3569 147.376 46.5356 146.676 45.4716 146.191C44.4263 145.687 43.1943 145.435 41.7756 145.435H37.8276V148.347ZM56.5554 165.315C58.0488 165.315 59.3274 165.026 60.3914 164.447C61.4554 163.868 62.3234 163 62.9954 161.843L60.3914 160.779C59.9808 161.47 59.4674 161.983 58.8514 162.319C58.2354 162.655 57.5168 162.823 56.6954 162.823C55.9114 162.823 55.2394 162.655 54.6794 162.319C54.1381 161.983 53.7274 161.498 53.4474 160.863C53.1674 160.21 53.0274 159.416 53.0274 158.483C53.0461 157.55 53.1954 156.766 53.4754 156.131C53.7554 155.496 54.1661 155.011 54.7074 154.675C55.2488 154.339 55.9021 154.171 56.6674 154.171C57.3021 154.171 57.8528 154.311 58.3194 154.591C58.8048 154.871 59.1781 155.263 59.4394 155.767C59.7194 156.271 59.8594 156.868 59.8594 157.559C59.8594 157.69 59.8221 157.858 59.7474 158.063C59.6914 158.25 59.6354 158.399 59.5794 158.511L60.5034 157.223H51.7674V159.295H63.0794C63.0981 159.22 63.1074 159.099 63.1074 158.931C63.1261 158.763 63.1354 158.604 63.1354 158.455C63.1354 157.074 62.8741 155.898 62.3514 154.927C61.8474 153.938 61.1194 153.182 60.1674 152.659C59.2154 152.136 58.0581 151.875 56.6954 151.875C55.3328 151.875 54.1474 152.155 53.1394 152.715C52.1314 153.256 51.3474 154.031 50.7874 155.039C50.2461 156.047 49.9754 157.232 49.9754 158.595C49.9754 159.939 50.2461 161.115 50.7874 162.123C51.3288 163.131 52.0941 163.915 53.0834 164.475C54.0914 165.035 55.2488 165.315 56.5554 165.315ZM69.0178 152.155H66.0218V165.035H69.0178V152.155ZM72.8538 155.375L74.3098 152.827C74.0298 152.472 73.6845 152.23 73.2738 152.099C72.8632 151.95 72.4245 151.875 71.9578 151.875C71.3045 151.875 70.6698 152.108 70.0538 152.575C69.4565 153.042 68.9618 153.676 68.5698 154.479C68.1965 155.263 68.0098 156.168 68.0098 157.195L69.0178 157.783C69.0178 157.167 69.0832 156.635 69.2138 156.187C69.3632 155.72 69.5965 155.356 69.9138 155.095C70.2312 154.834 70.6418 154.703 71.1458 154.703C71.5192 154.703 71.8272 154.759 72.0698 154.871C72.3125 154.983 72.5738 155.151 72.8538 155.375ZM86.7957 158.595C86.7957 157.792 86.973 157.083 87.3277 156.467C87.6823 155.851 88.1583 155.366 88.7557 155.011C89.3717 154.656 90.053 154.479 90.7997 154.479C91.397 154.479 91.9757 154.572 92.5357 154.759C93.0957 154.946 93.5903 155.207 94.0197 155.543C94.4677 155.86 94.7943 156.234 94.9997 156.663V153.331C94.5517 152.883 93.945 152.528 93.1797 152.267C92.4143 152.006 91.5743 151.875 90.6597 151.875C89.3343 151.875 88.1397 152.164 87.0757 152.743C86.0303 153.303 85.1997 154.087 84.5837 155.095C83.9863 156.103 83.6877 157.27 83.6877 158.595C83.6877 159.902 83.9863 161.068 84.5837 162.095C85.1997 163.103 86.0303 163.896 87.0757 164.475C88.1397 165.035 89.3343 165.315 90.6597 165.315C91.5743 165.315 92.4143 165.184 93.1797 164.923C93.945 164.662 94.5517 164.307 94.9997 163.859V160.527C94.7943 160.938 94.477 161.311 94.0477 161.647C93.6183 161.983 93.1237 162.244 92.5637 162.431C92.0037 162.618 91.4157 162.711 90.7997 162.711C90.053 162.711 89.3717 162.534 88.7557 162.179C88.1583 161.824 87.6823 161.348 87.3277 160.751C86.973 160.135 86.7957 159.416 86.7957 158.595ZM101.366 143.195H98.3422V165.035H101.366V143.195ZM106.63 157.195V165.035H109.682V156.775C109.682 155.674 109.514 154.759 109.178 154.031C108.842 153.284 108.338 152.724 107.666 152.351C107.013 151.978 106.21 151.791 105.258 151.791C104.287 151.791 103.457 152.034 102.766 152.519C102.094 153.004 101.571 153.648 101.198 154.451C100.825 155.254 100.638 156.168 100.638 157.195H101.366C101.366 156.616 101.487 156.112 101.73 155.683C101.973 155.254 102.309 154.918 102.738 154.675C103.167 154.432 103.662 154.311 104.222 154.311C105.062 154.311 105.669 154.554 106.042 155.039C106.434 155.524 106.63 156.243 106.63 157.195ZM113.406 147.031C113.406 147.535 113.593 147.974 113.966 148.347C114.358 148.702 114.806 148.879 115.31 148.879C115.851 148.879 116.299 148.702 116.654 148.347C117.027 147.974 117.214 147.535 117.214 147.031C117.214 146.508 117.027 146.07 116.654 145.715C116.299 145.36 115.851 145.183 115.31 145.183C114.806 145.183 114.358 145.36 113.966 145.715C113.593 146.07 113.406 146.508 113.406 147.031ZM113.826 152.155V165.035H116.794V152.155H113.826ZM120.955 143.195V165.035H123.979V143.195H120.955ZM137.534 143.195V165.035H140.586V143.195H137.534ZM126.866 158.595C126.866 159.995 127.155 161.199 127.734 162.207C128.313 163.215 129.078 163.99 130.03 164.531C131.001 165.054 132.037 165.315 133.138 165.315C134.221 165.315 135.163 165.044 135.966 164.503C136.787 163.962 137.431 163.187 137.898 162.179C138.383 161.171 138.626 159.976 138.626 158.595C138.626 157.195 138.383 156 137.898 155.011C137.431 154.003 136.787 153.228 135.966 152.687C135.163 152.146 134.221 151.875 133.138 151.875C132.037 151.875 131.001 152.146 130.03 152.687C129.078 153.21 128.313 153.975 127.734 154.983C127.155 155.972 126.866 157.176 126.866 158.595ZM130.002 158.595C130.002 157.736 130.179 156.999 130.534 156.383C130.889 155.767 131.355 155.3 131.934 154.983C132.531 154.666 133.175 154.507 133.866 154.507C134.445 154.507 135.014 154.666 135.574 154.983C136.153 155.3 136.619 155.767 136.974 156.383C137.347 156.98 137.534 157.718 137.534 158.595C137.534 159.472 137.347 160.219 136.974 160.835C136.619 161.432 136.153 161.89 135.574 162.207C135.014 162.524 134.445 162.683 133.866 162.683C133.175 162.683 132.531 162.524 131.934 162.207C131.355 161.89 130.889 161.423 130.534 160.807C130.179 160.191 130.002 159.454 130.002 158.595Z" fill="white"/>
<path d="M72.2766 187.875H82.4566V185.755H72.2766V187.875ZM76.2366 181.715V191.935H78.4966V181.715H76.2366ZM89.9061 180.215H93.5861V192.035H95.9661V180.215H99.6661V178.035H89.9061V180.215ZM100.572 189.175C100.572 188.882 100.639 188.635 100.772 188.435C100.919 188.235 101.132 188.082 101.412 187.975C101.692 187.855 102.059 187.795 102.512 187.795C103.032 187.795 103.525 187.862 103.992 187.995C104.459 188.128 104.899 188.342 105.312 188.635V187.535C105.192 187.388 104.985 187.228 104.692 187.055C104.399 186.868 104.025 186.708 103.572 186.575C103.132 186.442 102.605 186.375 101.992 186.375C100.845 186.375 99.9587 186.642 99.332 187.175C98.7054 187.695 98.392 188.402 98.392 189.295C98.392 189.922 98.5387 190.455 98.832 190.895C99.1254 191.335 99.5187 191.668 100.012 191.895C100.505 192.122 101.039 192.235 101.612 192.235C102.145 192.235 102.665 192.142 103.172 191.955C103.692 191.755 104.119 191.462 104.452 191.075C104.799 190.675 104.972 190.182 104.972 189.595L104.652 188.395C104.652 188.848 104.539 189.248 104.312 189.595C104.099 189.928 103.812 190.182 103.452 190.355C103.105 190.528 102.719 190.615 102.292 190.615C101.959 190.615 101.659 190.562 101.392 190.455C101.139 190.348 100.939 190.188 100.792 189.975C100.645 189.748 100.572 189.482 100.572 189.175ZM99.892 185.235C100.025 185.142 100.225 185.028 100.492 184.895C100.772 184.748 101.099 184.628 101.472 184.535C101.859 184.428 102.265 184.375 102.692 184.375C102.972 184.375 103.232 184.402 103.472 184.455C103.712 184.508 103.919 184.595 104.092 184.715C104.265 184.835 104.399 184.988 104.492 185.175C104.599 185.362 104.652 185.602 104.652 185.895V192.035H106.772V185.475C106.772 184.862 106.605 184.348 106.272 183.935C105.939 183.508 105.479 183.182 104.892 182.955C104.319 182.728 103.652 182.615 102.892 182.615C102.039 182.615 101.279 182.735 100.612 182.975C99.9587 183.215 99.4254 183.462 99.012 183.715L99.892 185.235ZM114.59 182.835L112.57 185.715L110.59 182.835H108.11L111.43 187.295L107.91 192.035H110.39L112.57 188.875L114.79 192.035H117.21L113.71 187.295L117.01 182.835H114.59Z" fill="white"/>
</svg>
