<svg width="318" height="51" viewBox="0 0 318 51" fill="none" xmlns="http://www.w3.org/2000/svg">
<rect width="318" height="51" rx="5" fill="#F62228"/>
<path d="M95.9375 35V19H97.875V33.2812H105.313V35H95.9375ZM111.594 35.2813C110.833 35.2813 110.143 35.138 109.523 34.8516C108.904 34.5599 108.411 34.1406 108.047 33.5938C107.682 33.0417 107.5 32.375 107.5 31.5937C107.5 30.9062 107.635 30.349 107.906 29.9219C108.177 29.4896 108.539 29.151 108.992 28.9062C109.445 28.6615 109.945 28.4792 110.492 28.3594C111.044 28.2344 111.599 28.1354 112.156 28.0625C112.885 27.9687 113.477 27.8984 113.93 27.8516C114.388 27.7995 114.721 27.7135 114.93 27.5937C115.143 27.474 115.25 27.2656 115.25 26.9687V26.9062C115.25 26.1354 115.039 25.5365 114.617 25.1094C114.201 24.6823 113.568 24.4687 112.719 24.4687C111.839 24.4687 111.148 24.6615 110.648 25.0469C110.148 25.4323 109.797 25.8437 109.594 26.2812L107.844 25.6562C108.156 24.9271 108.573 24.3594 109.094 23.9531C109.62 23.5417 110.193 23.2552 110.813 23.0937C111.438 22.9271 112.052 22.8438 112.656 22.8438C113.042 22.8438 113.484 22.8906 113.984 22.9844C114.49 23.0729 114.977 23.2578 115.445 23.5391C115.919 23.8203 116.313 24.2448 116.625 24.8125C116.938 25.3802 117.094 26.1406 117.094 27.0938V35H115.25V33.375H115.156C115.031 33.6354 114.823 33.9141 114.531 34.2109C114.24 34.5078 113.852 34.7604 113.367 34.9687C112.883 35.1771 112.292 35.2813 111.594 35.2813ZM111.875 33.625C112.604 33.625 113.219 33.4818 113.719 33.1953C114.224 32.9089 114.604 32.5391 114.859 32.0859C115.12 31.6328 115.25 31.1562 115.25 30.6562V28.9687C115.172 29.0625 115 29.1484 114.734 29.2266C114.474 29.2995 114.172 29.3646 113.828 29.4219C113.49 29.474 113.159 29.5208 112.836 29.5625C112.518 29.599 112.26 29.6302 112.063 29.6562C111.583 29.7187 111.135 29.8203 110.719 29.9609C110.307 30.0964 109.974 30.3021 109.719 30.5781C109.469 30.849 109.344 31.2187 109.344 31.6875C109.344 32.3281 109.581 32.8125 110.055 33.1406C110.534 33.4635 111.141 33.625 111.875 33.625ZM124.99 35.25C123.99 35.25 123.107 34.9974 122.342 34.4922C121.576 33.9818 120.977 33.263 120.545 32.3359C120.113 31.4036 119.896 30.3021 119.896 29.0313C119.896 27.7708 120.113 26.6771 120.545 25.75C120.977 24.8229 121.579 24.1068 122.35 23.6016C123.12 23.0964 124.011 22.8438 125.021 22.8438C125.803 22.8438 126.42 22.974 126.873 23.2344C127.331 23.4896 127.68 23.7812 127.92 24.1094C128.165 24.4323 128.355 24.6979 128.49 24.9062H128.646V19H130.49V35H128.709V33.1562H128.49C128.355 33.375 128.162 33.651 127.912 33.9844C127.662 34.3125 127.305 34.6068 126.842 34.8672C126.378 35.1224 125.761 35.25 124.99 35.25ZM125.24 33.5938C125.98 33.5938 126.605 33.401 127.115 33.0156C127.626 32.625 128.014 32.0859 128.279 31.3984C128.545 30.7057 128.678 29.9062 128.678 29C128.678 28.1042 128.548 27.3203 128.287 26.6484C128.027 25.9714 127.641 25.4453 127.131 25.0703C126.62 24.6901 125.99 24.5 125.24 24.5C124.459 24.5 123.808 24.7005 123.287 25.1016C122.771 25.4974 122.383 26.0365 122.123 26.7187C121.868 27.3958 121.74 28.1562 121.74 29C121.74 29.8542 121.87 30.6302 122.131 31.3281C122.396 32.0208 122.787 32.5729 123.303 32.9844C123.824 33.3906 124.469 33.5938 125.24 33.5938ZM134.123 35V23H135.967V35H134.123ZM135.061 21C134.701 21 134.391 20.8776 134.131 20.6328C133.876 20.388 133.748 20.0938 133.748 19.75C133.748 19.4063 133.876 19.112 134.131 18.8672C134.391 18.6224 134.701 18.5 135.061 18.5C135.42 18.5 135.727 18.6224 135.982 18.8672C136.243 19.112 136.373 19.4063 136.373 19.75C136.373 20.0938 136.243 20.388 135.982 20.6328C135.727 20.8776 135.42 21 135.061 21ZM144.375 35.25C143.219 35.25 142.221 34.9948 141.383 34.4844C140.549 33.9688 139.906 33.25 139.453 32.3281C139.005 31.401 138.781 30.3229 138.781 29.0938C138.781 27.8646 139.005 26.7812 139.453 25.8437C139.906 24.901 140.536 24.1667 141.344 23.6406C142.156 23.1094 143.104 22.8438 144.188 22.8438C144.813 22.8438 145.43 22.9479 146.039 23.1562C146.648 23.3646 147.203 23.7031 147.703 24.1719C148.203 24.6354 148.602 25.25 148.898 26.0156C149.195 26.7812 149.344 27.724 149.344 28.8437V29.625H140.094V28.0312H147.469C147.469 27.3542 147.333 26.75 147.063 26.2187C146.797 25.6875 146.417 25.2682 145.922 24.9609C145.432 24.6536 144.854 24.5 144.188 24.5C143.453 24.5 142.818 24.6823 142.281 25.0469C141.75 25.4062 141.341 25.875 141.055 26.4531C140.768 27.0312 140.625 27.651 140.625 28.3125V29.375C140.625 30.2813 140.781 31.0495 141.094 31.6797C141.411 32.3047 141.852 32.7812 142.414 33.1094C142.977 33.4323 143.63 33.5938 144.375 33.5938C144.859 33.5938 145.297 33.526 145.688 33.3906C146.083 33.25 146.424 33.0417 146.711 32.7656C146.997 32.4844 147.219 32.1354 147.375 31.7187L149.156 32.2188C148.969 32.8229 148.654 33.3542 148.211 33.8125C147.768 34.2656 147.221 34.6198 146.57 34.875C145.919 35.125 145.188 35.25 144.375 35.25ZM160.648 25.6875L158.992 26.1562C158.888 25.8802 158.734 25.612 158.531 25.3516C158.333 25.0859 158.063 24.8672 157.719 24.6953C157.375 24.5234 156.935 24.4375 156.398 24.4375C155.664 24.4375 155.052 24.6068 154.563 24.9453C154.078 25.2786 153.836 25.7031 153.836 26.2187C153.836 26.6771 154.003 27.0391 154.336 27.3047C154.669 27.5703 155.19 27.7917 155.898 27.9687L157.68 28.4063C158.753 28.6667 159.552 29.0651 160.078 29.6016C160.604 30.1328 160.867 30.8177 160.867 31.6562C160.867 32.3437 160.669 32.9583 160.273 33.5C159.883 34.0417 159.336 34.4688 158.633 34.7813C157.93 35.0938 157.112 35.25 156.18 35.25C154.956 35.25 153.943 34.9844 153.141 34.4531C152.339 33.9219 151.831 33.1458 151.617 32.125L153.367 31.6875C153.534 32.3333 153.849 32.8177 154.313 33.1406C154.781 33.4635 155.393 33.625 156.148 33.625C157.008 33.625 157.69 33.4427 158.195 33.0781C158.706 32.7083 158.961 32.2656 158.961 31.75C158.961 31.3333 158.815 30.9844 158.523 30.7031C158.232 30.4167 157.784 30.2031 157.18 30.0625L155.18 29.5937C154.081 29.3333 153.273 28.9297 152.758 28.3828C152.247 27.8307 151.992 27.1406 151.992 26.3125C151.992 25.6354 152.182 25.0365 152.563 24.5156C152.948 23.9948 153.471 23.5859 154.133 23.2891C154.799 22.9922 155.555 22.8438 156.398 22.8438C157.586 22.8438 158.518 23.1042 159.195 23.625C159.878 24.1458 160.362 24.8333 160.648 25.6875ZM182.955 24H181.018C180.903 23.4427 180.702 22.9531 180.416 22.5312C180.135 22.1094 179.791 21.7552 179.385 21.4688C178.984 21.1771 178.538 20.9583 178.049 20.8125C177.559 20.6667 177.049 20.5937 176.518 20.5937C175.549 20.5937 174.671 20.8385 173.885 21.3281C173.104 21.8177 172.481 22.5391 172.018 23.4922C171.559 24.4453 171.33 25.6146 171.33 27C171.33 28.3854 171.559 29.5547 172.018 30.5078C172.481 31.4609 173.104 32.1823 173.885 32.6719C174.671 33.1615 175.549 33.4062 176.518 33.4062C177.049 33.4062 177.559 33.3333 178.049 33.1875C178.538 33.0417 178.984 32.8255 179.385 32.5391C179.791 32.2474 180.135 31.8906 180.416 31.4687C180.702 31.0417 180.903 30.5521 181.018 30H182.955C182.809 30.8177 182.544 31.5495 182.158 32.1953C181.773 32.8411 181.294 33.3906 180.721 33.8437C180.148 34.2917 179.505 34.6328 178.791 34.8672C178.083 35.1016 177.325 35.2187 176.518 35.2187C175.153 35.2187 173.939 34.8854 172.877 34.2188C171.814 33.5521 170.979 32.6042 170.369 31.375C169.76 30.1458 169.455 28.6875 169.455 27C169.455 25.3125 169.76 23.8542 170.369 22.625C170.979 21.3958 171.814 20.4479 172.877 19.7812C173.939 19.1146 175.153 18.7812 176.518 18.7812C177.325 18.7812 178.083 18.8984 178.791 19.1328C179.505 19.3672 180.148 19.7109 180.721 20.1641C181.294 20.612 181.773 21.1589 182.158 21.8047C182.544 22.4453 182.809 23.1771 182.955 24ZM187.68 19V35H185.836V19H187.68ZM194.588 35.2813C193.827 35.2813 193.137 35.138 192.518 34.8516C191.898 34.5599 191.406 34.1406 191.041 33.5938C190.676 33.0417 190.494 32.375 190.494 31.5937C190.494 30.9062 190.63 30.349 190.9 29.9219C191.171 29.4896 191.533 29.151 191.986 28.9062C192.439 28.6615 192.939 28.4792 193.486 28.3594C194.038 28.2344 194.593 28.1354 195.15 28.0625C195.88 27.9687 196.471 27.8984 196.924 27.8516C197.382 27.7995 197.715 27.7135 197.924 27.5937C198.137 27.474 198.244 27.2656 198.244 26.9687V26.9062C198.244 26.1354 198.033 25.5365 197.611 25.1094C197.195 24.6823 196.562 24.4687 195.713 24.4687C194.833 24.4687 194.143 24.6615 193.643 25.0469C193.143 25.4323 192.791 25.8437 192.588 26.2812L190.838 25.6562C191.15 24.9271 191.567 24.3594 192.088 23.9531C192.614 23.5417 193.187 23.2552 193.807 23.0937C194.432 22.9271 195.046 22.8438 195.65 22.8438C196.036 22.8438 196.479 22.8906 196.979 22.9844C197.484 23.0729 197.971 23.2578 198.439 23.5391C198.913 23.8203 199.307 24.2448 199.619 24.8125C199.932 25.3802 200.088 26.1406 200.088 27.0938V35H198.244V33.375H198.15C198.025 33.6354 197.817 33.9141 197.525 34.2109C197.234 34.5078 196.846 34.7604 196.361 34.9687C195.877 35.1771 195.286 35.2813 194.588 35.2813ZM194.869 33.625C195.598 33.625 196.213 33.4818 196.713 33.1953C197.218 32.9089 197.598 32.5391 197.854 32.0859C198.114 31.6328 198.244 31.1562 198.244 30.6562V28.9687C198.166 29.0625 197.994 29.1484 197.729 29.2266C197.468 29.2995 197.166 29.3646 196.822 29.4219C196.484 29.474 196.153 29.5208 195.83 29.5625C195.512 29.599 195.255 29.6302 195.057 29.6562C194.577 29.7187 194.13 29.8203 193.713 29.9609C193.301 30.0964 192.968 30.3021 192.713 30.5781C192.463 30.849 192.338 31.2187 192.338 31.6875C192.338 32.3281 192.575 32.8125 193.049 33.1406C193.528 33.4635 194.135 33.625 194.869 33.625ZM211.953 25.6875L210.297 26.1562C210.193 25.8802 210.039 25.612 209.836 25.3516C209.638 25.0859 209.367 24.8672 209.023 24.6953C208.68 24.5234 208.24 24.4375 207.703 24.4375C206.969 24.4375 206.357 24.6068 205.867 24.9453C205.383 25.2786 205.141 25.7031 205.141 26.2187C205.141 26.6771 205.307 27.0391 205.641 27.3047C205.974 27.5703 206.495 27.7917 207.203 27.9687L208.984 28.4063C210.057 28.6667 210.857 29.0651 211.383 29.6016C211.909 30.1328 212.172 30.8177 212.172 31.6562C212.172 32.3437 211.974 32.9583 211.578 33.5C211.188 34.0417 210.641 34.4688 209.938 34.7813C209.234 35.0938 208.417 35.25 207.484 35.25C206.26 35.25 205.247 34.9844 204.445 34.4531C203.643 33.9219 203.135 33.1458 202.922 32.125L204.672 31.6875C204.839 32.3333 205.154 32.8177 205.617 33.1406C206.086 33.4635 206.698 33.625 207.453 33.625C208.313 33.625 208.995 33.4427 209.5 33.0781C210.01 32.7083 210.266 32.2656 210.266 31.75C210.266 31.3333 210.12 30.9844 209.828 30.7031C209.536 30.4167 209.089 30.2031 208.484 30.0625L206.484 29.5937C205.385 29.3333 204.578 28.9297 204.063 28.3828C203.552 27.8307 203.297 27.1406 203.297 26.3125C203.297 25.6354 203.487 25.0365 203.867 24.5156C204.253 23.9948 204.776 23.5859 205.438 23.2891C206.104 22.9922 206.859 22.8438 207.703 22.8438C208.891 22.8438 209.823 23.1042 210.5 23.625C211.182 24.1458 211.667 24.8333 211.953 25.6875ZM223.447 25.6875L221.791 26.1562C221.687 25.8802 221.533 25.612 221.33 25.3516C221.132 25.0859 220.861 24.8672 220.518 24.6953C220.174 24.5234 219.734 24.4375 219.197 24.4375C218.463 24.4375 217.851 24.6068 217.361 24.9453C216.877 25.2786 216.635 25.7031 216.635 26.2187C216.635 26.6771 216.801 27.0391 217.135 27.3047C217.468 27.5703 217.989 27.7917 218.697 27.9687L220.479 28.4063C221.551 28.6667 222.351 29.0651 222.877 29.6016C223.403 30.1328 223.666 30.8177 223.666 31.6562C223.666 32.3437 223.468 32.9583 223.072 33.5C222.682 34.0417 222.135 34.4688 221.432 34.7813C220.729 35.0938 219.911 35.25 218.979 35.25C217.755 35.25 216.742 34.9844 215.939 34.4531C215.137 33.9219 214.63 33.1458 214.416 32.125L216.166 31.6875C216.333 32.3333 216.648 32.8177 217.111 33.1406C217.58 33.4635 218.192 33.625 218.947 33.625C219.807 33.625 220.489 33.4427 220.994 33.0781C221.505 32.7083 221.76 32.2656 221.76 31.75C221.76 31.3333 221.614 30.9844 221.322 30.7031C221.031 30.4167 220.583 30.2031 219.979 30.0625L217.979 29.5937C216.88 29.3333 216.072 28.9297 215.557 28.3828C215.046 27.8307 214.791 27.1406 214.791 26.3125C214.791 25.6354 214.981 25.0365 215.361 24.5156C215.747 23.9948 216.27 23.5859 216.932 23.2891C217.598 22.9922 218.354 22.8438 219.197 22.8438C220.385 22.8438 221.317 23.1042 221.994 23.625C222.676 24.1458 223.161 24.8333 223.447 25.6875ZM226.441 35V23H228.285V35H226.441ZM227.379 21C227.02 21 226.71 20.8776 226.449 20.6328C226.194 20.388 226.066 20.0938 226.066 19.75C226.066 19.4063 226.194 19.112 226.449 18.8672C226.71 18.6224 227.02 18.5 227.379 18.5C227.738 18.5 228.046 18.6224 228.301 18.8672C228.561 19.112 228.691 19.4063 228.691 19.75C228.691 20.0938 228.561 20.388 228.301 20.6328C228.046 20.8776 227.738 21 227.379 21ZM236.537 35.25C235.412 35.25 234.443 34.9844 233.631 34.4531C232.818 33.9219 232.193 33.1901 231.756 32.2578C231.318 31.3255 231.1 30.2604 231.1 29.0625C231.1 27.8437 231.324 26.7682 231.771 25.8359C232.225 24.8984 232.855 24.1667 233.662 23.6406C234.475 23.1094 235.423 22.8438 236.506 22.8438C237.35 22.8438 238.11 23 238.787 23.3125C239.464 23.625 240.019 24.0625 240.451 24.625C240.883 25.1875 241.152 25.8437 241.256 26.5937H239.412C239.271 26.0469 238.959 25.5625 238.475 25.1406C237.995 24.7135 237.35 24.5 236.537 24.5C235.818 24.5 235.188 24.6875 234.646 25.0625C234.11 25.4323 233.691 25.9557 233.389 26.6328C233.092 27.3047 232.943 28.0937 232.943 29C232.943 29.9271 233.089 30.7344 233.381 31.4219C233.678 32.1094 234.094 32.6432 234.631 33.0234C235.173 33.4036 235.808 33.5938 236.537 33.5938C237.016 33.5938 237.451 33.5104 237.842 33.3437C238.232 33.1771 238.563 32.9375 238.834 32.625C239.105 32.3125 239.298 31.9375 239.412 31.5H241.256C241.152 32.2083 240.894 32.8464 240.482 33.4141C240.076 33.9766 239.537 34.4245 238.865 34.7578C238.199 35.0859 237.423 35.25 236.537 35.25Z" fill="white"/>
<path d="M41.8215 19.5L31 32.6404L20.1785 19.5H41.8215Z" stroke="white" stroke-width="3"/>
</svg>
