<svg width="318" height="51" viewBox="0 0 318 51" fill="none" xmlns="http://www.w3.org/2000/svg">
<rect width="318" height="51" rx="5" fill="#F62228"/>
<path d="M95.9375 18H98.25L103.688 31.2812H103.875L109.313 18H111.625V34H109.812V21.8438H109.656L104.656 34H102.906L97.9063 21.8438H97.75V34H95.9375V18ZM120.291 34.25C119.135 34.25 118.137 33.9948 117.299 33.4844C116.465 32.9688 115.822 32.25 115.369 31.3281C114.921 30.401 114.697 29.3229 114.697 28.0938C114.697 26.8646 114.921 25.7812 115.369 24.8437C115.822 23.901 116.452 23.1667 117.26 22.6406C118.072 22.1094 119.02 21.8438 120.104 21.8438C120.729 21.8438 121.346 21.9479 121.955 22.1562C122.564 22.3646 123.119 22.7031 123.619 23.1719C124.119 23.6354 124.518 24.25 124.814 25.0156C125.111 25.7812 125.26 26.724 125.26 27.8437V28.625H116.01V27.0312H123.385C123.385 26.3542 123.249 25.75 122.979 25.2187C122.713 24.6875 122.333 24.2682 121.838 23.9609C121.348 23.6536 120.77 23.5 120.104 23.5C119.369 23.5 118.734 23.6823 118.197 24.0469C117.666 24.4062 117.257 24.875 116.971 25.4531C116.684 26.0312 116.541 26.651 116.541 27.3125V28.375C116.541 29.2813 116.697 30.0495 117.01 30.6797C117.327 31.3047 117.768 31.7812 118.33 32.1094C118.893 32.4323 119.546 32.5938 120.291 32.5938C120.775 32.5938 121.213 32.526 121.604 32.3906C121.999 32.25 122.34 32.0417 122.627 31.7656C122.913 31.4844 123.135 31.1354 123.291 30.7187L125.072 31.2188C124.885 31.8229 124.57 32.3542 124.127 32.8125C123.684 33.2656 123.137 33.6198 122.486 33.875C121.835 34.125 121.104 34.25 120.291 34.25ZM129.908 26.7812V34H128.064V22H129.846V23.875H130.002C130.283 23.2656 130.71 22.776 131.283 22.4063C131.856 22.0313 132.596 21.8438 133.502 21.8438C134.314 21.8438 135.025 22.0104 135.635 22.3437C136.244 22.6719 136.718 23.1719 137.057 23.8437C137.395 24.5104 137.564 25.3542 137.564 26.375V34H135.721V26.5C135.721 25.5573 135.476 24.8229 134.986 24.2969C134.497 23.7656 133.825 23.5 132.971 23.5C132.382 23.5 131.856 23.6276 131.393 23.8828C130.934 24.138 130.572 24.5104 130.307 25C130.041 25.4896 129.908 26.0833 129.908 26.7812ZM149.434 24.6875L147.777 25.1562C147.673 24.8802 147.52 24.612 147.316 24.3516C147.118 24.0859 146.848 23.8672 146.504 23.6953C146.16 23.5234 145.72 23.4375 145.184 23.4375C144.449 23.4375 143.837 23.6068 143.348 23.9453C142.863 24.2786 142.621 24.7031 142.621 25.2187C142.621 25.6771 142.788 26.0391 143.121 26.3047C143.454 26.5703 143.975 26.7917 144.684 26.9687L146.465 27.4063C147.538 27.6667 148.337 28.0651 148.863 28.6016C149.389 29.1328 149.652 29.8177 149.652 30.6562C149.652 31.3437 149.454 31.9583 149.059 32.5C148.668 33.0417 148.121 33.4688 147.418 33.7813C146.715 34.0938 145.897 34.25 144.965 34.25C143.741 34.25 142.728 33.9844 141.926 33.4531C141.124 32.9219 140.616 32.1458 140.402 31.125L142.152 30.6875C142.319 31.3333 142.634 31.8177 143.098 32.1406C143.566 32.4635 144.178 32.625 144.934 32.625C145.793 32.625 146.475 32.4427 146.98 32.0781C147.491 31.7083 147.746 31.2656 147.746 30.75C147.746 30.3333 147.6 29.9844 147.309 29.7031C147.017 29.4167 146.569 29.2031 145.965 29.0625L143.965 28.5937C142.866 28.3333 142.059 27.9297 141.543 27.3828C141.033 26.8307 140.777 26.1406 140.777 25.3125C140.777 24.6354 140.967 24.0365 141.348 23.5156C141.733 22.9948 142.257 22.5859 142.918 22.2891C143.585 21.9922 144.34 21.8438 145.184 21.8438C146.371 21.8438 147.303 22.1042 147.98 22.625C148.663 23.1458 149.147 23.8333 149.434 24.6875ZM171.74 23H169.803C169.688 22.4427 169.488 21.9531 169.201 21.5312C168.92 21.1094 168.576 20.7552 168.17 20.4688C167.769 20.1771 167.324 19.9583 166.834 19.8125C166.344 19.6667 165.834 19.5937 165.303 19.5937C164.334 19.5937 163.456 19.8385 162.67 20.3281C161.889 20.8177 161.266 21.5391 160.803 22.4922C160.344 23.4453 160.115 24.6146 160.115 26C160.115 27.3854 160.344 28.5547 160.803 29.5078C161.266 30.4609 161.889 31.1823 162.67 31.6719C163.456 32.1615 164.334 32.4062 165.303 32.4062C165.834 32.4062 166.344 32.3333 166.834 32.1875C167.324 32.0417 167.769 31.8255 168.17 31.5391C168.576 31.2474 168.92 30.8906 169.201 30.4687C169.488 30.0417 169.688 29.5521 169.803 29H171.74C171.594 29.8177 171.329 30.5495 170.943 31.1953C170.558 31.8411 170.079 32.3906 169.506 32.8437C168.933 33.2917 168.29 33.6328 167.576 33.8672C166.868 34.1016 166.11 34.2187 165.303 34.2187C163.938 34.2187 162.725 33.8854 161.662 33.2188C160.6 32.5521 159.764 31.6042 159.154 30.375C158.545 29.1458 158.24 27.6875 158.24 26C158.24 24.3125 158.545 22.8542 159.154 21.625C159.764 20.3958 160.6 19.4479 161.662 18.7812C162.725 18.1146 163.938 17.7812 165.303 17.7812C166.11 17.7812 166.868 17.8984 167.576 18.1328C168.29 18.3672 168.933 18.7109 169.506 19.1641C170.079 19.612 170.558 20.1589 170.943 20.8047C171.329 21.4453 171.594 22.1771 171.74 23ZM176.465 18V34H174.621V18H176.465ZM183.373 34.2813C182.613 34.2813 181.923 34.138 181.303 33.8516C180.683 33.5599 180.191 33.1406 179.826 32.5938C179.462 32.0417 179.279 31.375 179.279 30.5937C179.279 29.9062 179.415 29.349 179.686 28.9219C179.956 28.4896 180.318 28.151 180.771 27.9062C181.225 27.6615 181.725 27.4792 182.271 27.3594C182.824 27.2344 183.378 27.1354 183.936 27.0625C184.665 26.9687 185.256 26.8984 185.709 26.8516C186.167 26.7995 186.501 26.7135 186.709 26.5937C186.923 26.474 187.029 26.2656 187.029 25.9687V25.9062C187.029 25.1354 186.818 24.5365 186.396 24.1094C185.98 23.6823 185.347 23.4687 184.498 23.4687C183.618 23.4687 182.928 23.6615 182.428 24.0469C181.928 24.4323 181.576 24.8437 181.373 25.2812L179.623 24.6562C179.936 23.9271 180.352 23.3594 180.873 22.9531C181.399 22.5417 181.972 22.2552 182.592 22.0937C183.217 21.9271 183.831 21.8438 184.436 21.8438C184.821 21.8438 185.264 21.8906 185.764 21.9844C186.269 22.0729 186.756 22.2578 187.225 22.5391C187.699 22.8203 188.092 23.2448 188.404 23.8125C188.717 24.3802 188.873 25.1406 188.873 26.0938V34H187.029V32.375H186.936C186.811 32.6354 186.602 32.9141 186.311 33.2109C186.019 33.5078 185.631 33.7604 185.146 33.9687C184.662 34.1771 184.071 34.2813 183.373 34.2813ZM183.654 32.625C184.383 32.625 184.998 32.4818 185.498 32.1953C186.003 31.9089 186.383 31.5391 186.639 31.0859C186.899 30.6328 187.029 30.1562 187.029 29.6562V27.9687C186.951 28.0625 186.779 28.1484 186.514 28.2266C186.253 28.2995 185.951 28.3646 185.607 28.4219C185.269 28.474 184.938 28.5208 184.615 28.5625C184.298 28.599 184.04 28.6302 183.842 28.6562C183.363 28.7187 182.915 28.8203 182.498 28.9609C182.087 29.0964 181.753 29.3021 181.498 29.5781C181.248 29.849 181.123 30.2187 181.123 30.6875C181.123 31.3281 181.36 31.8125 181.834 32.1406C182.313 32.4635 182.92 32.625 183.654 32.625ZM200.738 24.6875L199.082 25.1562C198.978 24.8802 198.824 24.612 198.621 24.3516C198.423 24.0859 198.152 23.8672 197.809 23.6953C197.465 23.5234 197.025 23.4375 196.488 23.4375C195.754 23.4375 195.142 23.6068 194.652 23.9453C194.168 24.2786 193.926 24.7031 193.926 25.2187C193.926 25.6771 194.092 26.0391 194.426 26.3047C194.759 26.5703 195.28 26.7917 195.988 26.9687L197.77 27.4063C198.842 27.6667 199.642 28.0651 200.168 28.6016C200.694 29.1328 200.957 29.8177 200.957 30.6562C200.957 31.3437 200.759 31.9583 200.363 32.5C199.973 33.0417 199.426 33.4688 198.723 33.7813C198.02 34.0938 197.202 34.25 196.27 34.25C195.046 34.25 194.033 33.9844 193.23 33.4531C192.428 32.9219 191.921 32.1458 191.707 31.125L193.457 30.6875C193.624 31.3333 193.939 31.8177 194.402 32.1406C194.871 32.4635 195.483 32.625 196.238 32.625C197.098 32.625 197.78 32.4427 198.285 32.0781C198.796 31.7083 199.051 31.2656 199.051 30.75C199.051 30.3333 198.905 29.9844 198.613 29.7031C198.322 29.4167 197.874 29.2031 197.27 29.0625L195.27 28.5937C194.171 28.3333 193.363 27.9297 192.848 27.3828C192.337 26.8307 192.082 26.1406 192.082 25.3125C192.082 24.6354 192.272 24.0365 192.652 23.5156C193.038 22.9948 193.561 22.5859 194.223 22.2891C194.889 21.9922 195.645 21.8438 196.488 21.8438C197.676 21.8438 198.608 22.1042 199.285 22.625C199.967 23.1458 200.452 23.8333 200.738 24.6875ZM212.232 24.6875L210.576 25.1562C210.472 24.8802 210.318 24.612 210.115 24.3516C209.917 24.0859 209.646 23.8672 209.303 23.6953C208.959 23.5234 208.519 23.4375 207.982 23.4375C207.248 23.4375 206.636 23.6068 206.146 23.9453C205.662 24.2786 205.42 24.7031 205.42 25.2187C205.42 25.6771 205.587 26.0391 205.92 26.3047C206.253 26.5703 206.774 26.7917 207.482 26.9687L209.264 27.4063C210.337 27.6667 211.136 28.0651 211.662 28.6016C212.188 29.1328 212.451 29.8177 212.451 30.6562C212.451 31.3437 212.253 31.9583 211.857 32.5C211.467 33.0417 210.92 33.4688 210.217 33.7813C209.514 34.0938 208.696 34.25 207.764 34.25C206.54 34.25 205.527 33.9844 204.725 33.4531C203.923 32.9219 203.415 32.1458 203.201 31.125L204.951 30.6875C205.118 31.3333 205.433 31.8177 205.896 32.1406C206.365 32.4635 206.977 32.625 207.732 32.625C208.592 32.625 209.274 32.4427 209.779 32.0781C210.29 31.7083 210.545 31.2656 210.545 30.75C210.545 30.3333 210.399 29.9844 210.107 29.7031C209.816 29.4167 209.368 29.2031 208.764 29.0625L206.764 28.5937C205.665 28.3333 204.857 27.9297 204.342 27.3828C203.831 26.8307 203.576 26.1406 203.576 25.3125C203.576 24.6354 203.766 24.0365 204.146 23.5156C204.532 22.9948 205.055 22.5859 205.717 22.2891C206.383 21.9922 207.139 21.8438 207.982 21.8438C209.17 21.8438 210.102 22.1042 210.779 22.625C211.462 23.1458 211.946 23.8333 212.232 24.6875ZM215.227 34V22H217.07V34H215.227ZM216.164 20C215.805 20 215.495 19.8776 215.234 19.6328C214.979 19.388 214.852 19.0938 214.852 18.75C214.852 18.4063 214.979 18.112 215.234 17.8672C215.495 17.6224 215.805 17.5 216.164 17.5C216.523 17.5 216.831 17.6224 217.086 17.8672C217.346 18.112 217.477 18.4063 217.477 18.75C217.477 19.0938 217.346 19.388 217.086 19.6328C216.831 19.8776 216.523 20 216.164 20ZM225.322 34.25C224.197 34.25 223.229 33.9844 222.416 33.4531C221.604 32.9219 220.979 32.1901 220.541 31.2578C220.104 30.3255 219.885 29.2604 219.885 28.0625C219.885 26.8437 220.109 25.7682 220.557 24.8359C221.01 23.8984 221.64 23.1667 222.447 22.6406C223.26 22.1094 224.208 21.8438 225.291 21.8438C226.135 21.8438 226.895 22 227.572 22.3125C228.249 22.625 228.804 23.0625 229.236 23.625C229.669 24.1875 229.937 24.8437 230.041 25.5937H228.197C228.057 25.0469 227.744 24.5625 227.26 24.1406C226.781 23.7135 226.135 23.5 225.322 23.5C224.604 23.5 223.973 23.6875 223.432 24.0625C222.895 24.4323 222.476 24.9557 222.174 25.6328C221.877 26.3047 221.729 27.0937 221.729 28C221.729 28.9271 221.874 29.7344 222.166 30.4219C222.463 31.1094 222.88 31.6432 223.416 32.0234C223.958 32.4036 224.593 32.5938 225.322 32.5938C225.801 32.5938 226.236 32.5104 226.627 32.3437C227.018 32.1771 227.348 31.9375 227.619 31.625C227.89 31.3125 228.083 30.9375 228.197 30.5H230.041C229.937 31.2083 229.679 31.8464 229.268 32.4141C228.861 32.9766 228.322 33.4245 227.65 33.7578C226.984 34.0859 226.208 34.25 225.322 34.25Z" fill="white"/>
<path d="M40.667 19.5L30 31.5399L19.333 19.5H40.667Z" stroke="white" stroke-width="3"/>
</svg>
