<svg width="318" height="51" viewBox="0 0 318 51" fill="none" xmlns="http://www.w3.org/2000/svg">
<rect width="318" height="51" rx="5" fill="#F62228"/>
<path d="M81.9375 18H84.25L89.6875 31.2812H89.875L95.3125 18H97.625V34H95.8125V21.8438H95.6563L90.6562 34H88.9063L83.9063 21.8438H83.75V34H81.9375V18ZM101.26 34V22H103.104V34H101.26ZM102.197 20C101.838 20 101.528 19.8776 101.268 19.6328C101.012 19.388 100.885 19.0938 100.885 18.75C100.885 18.4063 101.012 18.112 101.268 17.8672C101.528 17.6224 101.838 17.5 102.197 17.5C102.557 17.5 102.864 17.6224 103.119 17.8672C103.38 18.112 103.51 18.4063 103.51 18.75C103.51 19.0938 103.38 19.388 103.119 19.6328C102.864 19.8776 102.557 20 102.197 20ZM107.855 22L110.73 26.9062L113.605 22H115.73L111.855 28L115.73 34H113.605L110.73 29.3437L107.855 34H105.73L109.543 28L105.73 22H107.855ZM122.898 34.25C121.742 34.25 120.745 33.9948 119.906 33.4844C119.073 32.9688 118.43 32.25 117.977 31.3281C117.529 30.401 117.305 29.3229 117.305 28.0938C117.305 26.8646 117.529 25.7812 117.977 24.8437C118.43 23.901 119.06 23.1667 119.867 22.6406C120.68 22.1094 121.628 21.8438 122.711 21.8438C123.336 21.8438 123.953 21.9479 124.563 22.1562C125.172 22.3646 125.727 22.7031 126.227 23.1719C126.727 23.6354 127.125 24.25 127.422 25.0156C127.719 25.7812 127.867 26.724 127.867 27.8437V28.625H118.617V27.0312H125.992C125.992 26.3542 125.857 25.75 125.586 25.2187C125.32 24.6875 124.94 24.2682 124.445 23.9609C123.956 23.6536 123.378 23.5 122.711 23.5C121.977 23.5 121.341 23.6823 120.805 24.0469C120.273 24.4062 119.865 24.875 119.578 25.4531C119.292 26.0312 119.148 26.651 119.148 27.3125V28.375C119.148 29.2813 119.305 30.0495 119.617 30.6797C119.935 31.3047 120.375 31.7812 120.938 32.1094C121.5 32.4323 122.154 32.5938 122.898 32.5938C123.383 32.5938 123.82 32.526 124.211 32.3906C124.607 32.25 124.948 32.0417 125.234 31.7656C125.521 31.4844 125.742 31.1354 125.898 30.7187L127.68 31.2188C127.492 31.8229 127.177 32.3542 126.734 32.8125C126.292 33.2656 125.745 33.6198 125.094 33.875C124.443 34.125 123.711 34.25 122.898 34.25ZM135.203 34.25C134.203 34.25 133.32 33.9974 132.555 33.4922C131.789 32.9818 131.19 32.263 130.758 31.3359C130.326 30.4036 130.109 29.3021 130.109 28.0313C130.109 26.7708 130.326 25.6771 130.758 24.75C131.19 23.8229 131.792 23.1068 132.563 22.6016C133.333 22.0964 134.224 21.8438 135.234 21.8438C136.016 21.8438 136.633 21.974 137.086 22.2344C137.544 22.4896 137.893 22.7812 138.133 23.1094C138.378 23.4323 138.568 23.6979 138.703 23.9062H138.859V18H140.703V34H138.922V32.1562H138.703C138.568 32.375 138.375 32.651 138.125 32.9844C137.875 33.3125 137.518 33.6068 137.055 33.8672C136.591 34.1224 135.974 34.25 135.203 34.25ZM135.453 32.5938C136.193 32.5938 136.818 32.401 137.328 32.0156C137.839 31.625 138.227 31.0859 138.492 30.3984C138.758 29.7057 138.891 28.9062 138.891 28C138.891 27.1042 138.76 26.3203 138.5 25.6484C138.24 24.9714 137.854 24.4453 137.344 24.0703C136.833 23.6901 136.203 23.5 135.453 23.5C134.672 23.5 134.021 23.7005 133.5 24.1016C132.984 24.4974 132.596 25.0365 132.336 25.7187C132.081 26.3958 131.953 27.1562 131.953 28C131.953 28.8542 132.083 29.6302 132.344 30.3281C132.609 31.0208 133 31.5729 133.516 31.9844C134.036 32.3906 134.682 32.5938 135.453 32.5938ZM150.773 34V18H160.367V19.7187H152.711V25.125H159.648V26.8437H152.711V34H150.773ZM170.246 29.0937V22H172.09V34H170.246V31.9687H170.121C169.84 32.5781 169.402 33.0964 168.809 33.5234C168.215 33.9453 167.465 34.1563 166.559 34.1563C165.809 34.1563 165.142 33.9922 164.559 33.6641C163.975 33.3307 163.517 32.8307 163.184 32.1641C162.85 31.4922 162.684 30.6458 162.684 29.625V22H164.527V29.5C164.527 30.375 164.772 31.0729 165.262 31.5938C165.757 32.1146 166.387 32.375 167.152 32.375C167.611 32.375 168.077 32.2578 168.551 32.0234C169.03 31.7891 169.431 31.4297 169.754 30.9453C170.082 30.4609 170.246 29.8437 170.246 29.0937ZM177.311 26.7812V34H175.467V22H177.248V23.875H177.404C177.686 23.2656 178.113 22.776 178.686 22.4063C179.258 22.0313 179.998 21.8438 180.904 21.8438C181.717 21.8438 182.428 22.0104 183.037 22.3437C183.646 22.6719 184.12 23.1719 184.459 23.8437C184.798 24.5104 184.967 25.3542 184.967 26.375V34H183.123V26.5C183.123 25.5573 182.878 24.8229 182.389 24.2969C181.899 23.7656 181.227 23.5 180.373 23.5C179.785 23.5 179.258 23.6276 178.795 23.8828C178.337 24.138 177.975 24.5104 177.709 25C177.443 25.4896 177.311 26.0833 177.311 26.7812ZM194.773 34V18H196.711V32.2812H204.148V34H194.773ZM211.93 34.25C210.773 34.25 209.776 33.9948 208.937 33.4844C208.104 32.9688 207.461 32.25 207.008 31.3281C206.56 30.401 206.336 29.3229 206.336 28.0938C206.336 26.8646 206.56 25.7812 207.008 24.8437C207.461 23.901 208.091 23.1667 208.898 22.6406C209.711 22.1094 210.659 21.8438 211.742 21.8438C212.367 21.8438 212.984 21.9479 213.594 22.1562C214.203 22.3646 214.758 22.7031 215.258 23.1719C215.758 23.6354 216.156 24.25 216.453 25.0156C216.75 25.7812 216.898 26.724 216.898 27.8437V28.625H207.648V27.0312H215.023C215.023 26.3542 214.888 25.75 214.617 25.2187C214.352 24.6875 213.971 24.2682 213.477 23.9609C212.987 23.6536 212.409 23.5 211.742 23.5C211.008 23.5 210.372 23.6823 209.836 24.0469C209.305 24.4062 208.896 24.875 208.609 25.4531C208.323 26.0312 208.18 26.651 208.18 27.3125V28.375C208.18 29.2813 208.336 30.0495 208.648 30.6797C208.966 31.3047 209.406 31.7812 209.969 32.1094C210.531 32.4323 211.185 32.5938 211.93 32.5938C212.414 32.5938 212.852 32.526 213.242 32.3906C213.638 32.25 213.979 32.0417 214.266 31.7656C214.552 31.4844 214.773 31.1354 214.93 30.7187L216.711 31.2188C216.523 31.8229 216.208 32.3542 215.766 32.8125C215.323 33.2656 214.776 33.6198 214.125 33.875C213.474 34.125 212.742 34.25 211.93 34.25ZM223.234 34.2813C222.474 34.2813 221.784 34.138 221.164 33.8516C220.544 33.5599 220.052 33.1406 219.688 32.5938C219.323 32.0417 219.141 31.375 219.141 30.5937C219.141 29.9062 219.276 29.349 219.547 28.9219C219.818 28.4896 220.18 28.151 220.633 27.9062C221.086 27.6615 221.586 27.4792 222.133 27.3594C222.685 27.2344 223.24 27.1354 223.797 27.0625C224.526 26.9687 225.117 26.8984 225.57 26.8516C226.029 26.7995 226.362 26.7135 226.57 26.5937C226.784 26.474 226.891 26.2656 226.891 25.9687V25.9062C226.891 25.1354 226.68 24.5365 226.258 24.1094C225.841 23.6823 225.208 23.4687 224.359 23.4687C223.479 23.4687 222.789 23.6615 222.289 24.0469C221.789 24.4323 221.438 24.8437 221.234 25.2812L219.484 24.6562C219.797 23.9271 220.214 23.3594 220.734 22.9531C221.26 22.5417 221.833 22.2552 222.453 22.0937C223.078 21.9271 223.693 21.8438 224.297 21.8438C224.682 21.8438 225.125 21.8906 225.625 21.9844C226.13 22.0729 226.617 22.2578 227.086 22.5391C227.56 22.8203 227.953 23.2448 228.266 23.8125C228.578 24.3802 228.734 25.1406 228.734 26.0938V34H226.891V32.375H226.797C226.672 32.6354 226.464 32.9141 226.172 33.2109C225.88 33.5078 225.492 33.7604 225.008 33.9687C224.523 34.1771 223.932 34.2813 223.234 34.2813ZM223.516 32.625C224.245 32.625 224.859 32.4818 225.359 32.1953C225.865 31.9089 226.245 31.5391 226.5 31.0859C226.76 30.6328 226.891 30.1562 226.891 29.6562V27.9687C226.813 28.0625 226.641 28.1484 226.375 28.2266C226.115 28.2995 225.812 28.3646 225.469 28.4219C225.13 28.474 224.799 28.5208 224.477 28.5625C224.159 28.599 223.901 28.6302 223.703 28.6562C223.224 28.7187 222.776 28.8203 222.359 28.9609C221.948 29.0964 221.615 29.3021 221.359 29.5781C221.109 29.849 220.984 30.2187 220.984 30.6875C220.984 31.3281 221.221 31.8125 221.695 32.1406C222.174 32.4635 222.781 32.625 223.516 32.625ZM236.943 38.75C236.053 38.75 235.287 38.6354 234.646 38.4063C234.006 38.1823 233.472 37.8854 233.045 37.5156C232.623 37.151 232.287 36.7604 232.037 36.3438L233.506 35.3125C233.673 35.5313 233.883 35.7813 234.139 36.0625C234.394 36.349 234.743 36.5964 235.186 36.8047C235.633 37.0182 236.219 37.125 236.943 37.125C237.912 37.125 238.712 36.8906 239.342 36.4219C239.972 35.9531 240.287 35.2187 240.287 34.2187V31.7812H240.131C239.995 32 239.803 32.2708 239.553 32.5938C239.308 32.9115 238.954 33.1953 238.49 33.4453C238.032 33.6901 237.412 33.8125 236.631 33.8125C235.662 33.8125 234.792 33.5833 234.021 33.125C233.256 32.6667 232.649 32 232.201 31.125C231.758 30.25 231.537 29.1875 231.537 27.9375C231.537 26.7083 231.753 25.638 232.186 24.7266C232.618 23.8099 233.219 23.1016 233.99 22.6016C234.761 22.0964 235.652 21.8438 236.662 21.8438C237.443 21.8438 238.063 21.974 238.521 22.2344C238.985 22.4896 239.339 22.7812 239.584 23.1094C239.834 23.4323 240.027 23.6979 240.162 23.9062H240.35V22H242.131V34.3438C242.131 35.375 241.896 36.2135 241.428 36.8594C240.964 37.5104 240.339 37.987 239.553 38.2891C238.771 38.5964 237.902 38.75 236.943 38.75ZM236.881 32.1562C237.62 32.1562 238.245 31.987 238.756 31.6484C239.266 31.3099 239.654 30.8229 239.92 30.1875C240.186 29.5521 240.318 28.7917 240.318 27.9062C240.318 27.0417 240.188 26.2786 239.928 25.6172C239.667 24.9557 239.282 24.4375 238.771 24.0625C238.261 23.6875 237.631 23.5 236.881 23.5C236.1 23.5 235.449 23.6979 234.928 24.0937C234.412 24.4896 234.024 25.0208 233.764 25.6875C233.508 26.3542 233.381 27.0937 233.381 27.9062C233.381 28.7396 233.511 29.4766 233.771 30.1172C234.037 30.7526 234.428 31.2526 234.943 31.6172C235.464 31.9766 236.11 32.1562 236.881 32.1562ZM253.068 29.0937V22H254.912V34H253.068V31.9687H252.943C252.662 32.5781 252.225 33.0964 251.631 33.5234C251.037 33.9453 250.287 34.1563 249.381 34.1563C248.631 34.1563 247.964 33.9922 247.381 33.6641C246.798 33.3307 246.339 32.8307 246.006 32.1641C245.673 31.4922 245.506 30.6458 245.506 29.625V22H247.35V29.5C247.35 30.375 247.594 31.0729 248.084 31.5938C248.579 32.1146 249.209 32.375 249.975 32.375C250.433 32.375 250.899 32.2578 251.373 32.0234C251.852 31.7891 252.253 31.4297 252.576 30.9453C252.904 30.4609 253.068 29.8437 253.068 29.0937ZM263.32 34.25C262.164 34.25 261.167 33.9948 260.328 33.4844C259.495 32.9688 258.852 32.25 258.398 31.3281C257.951 30.401 257.727 29.3229 257.727 28.0938C257.727 26.8646 257.951 25.7812 258.398 24.8437C258.852 23.901 259.482 23.1667 260.289 22.6406C261.102 22.1094 262.049 21.8438 263.133 21.8438C263.758 21.8438 264.375 21.9479 264.984 22.1562C265.594 22.3646 266.148 22.7031 266.648 23.1719C267.148 23.6354 267.547 24.25 267.844 25.0156C268.141 25.7812 268.289 26.724 268.289 27.8437V28.625H259.039V27.0312H266.414C266.414 26.3542 266.279 25.75 266.008 25.2187C265.742 24.6875 265.362 24.2682 264.867 23.9609C264.378 23.6536 263.799 23.5 263.133 23.5C262.398 23.5 261.763 23.6823 261.227 24.0469C260.695 24.4062 260.286 24.875 260 25.4531C259.714 26.0312 259.57 26.651 259.57 27.3125V28.375C259.57 29.2813 259.727 30.0495 260.039 30.6797C260.357 31.3047 260.797 31.7812 261.359 32.1094C261.922 32.4323 262.576 32.5938 263.32 32.5938C263.805 32.5938 264.242 32.526 264.633 32.3906C265.029 32.25 265.37 32.0417 265.656 31.7656C265.943 31.4844 266.164 31.1354 266.32 30.7187L268.102 31.2188C267.914 31.8229 267.599 32.3542 267.156 32.8125C266.714 33.2656 266.167 33.6198 265.516 33.875C264.865 34.125 264.133 34.25 263.32 34.25Z" fill="white"/>
<path d="M41.8215 17.5L31 30.6404L20.1785 17.5H41.8215Z" stroke="white" stroke-width="3"/>
</svg>
