<svg width="318" height="51" viewBox="0 0 318 51" fill="none" xmlns="http://www.w3.org/2000/svg">
<rect width="318" height="51" rx="5" fill="#F62228"/>
<path d="M61.9375 34V18H63.875V25.9375H64.0625L71.25 18H73.7813L67.0625 25.2187L73.7813 34H71.4375L65.875 26.5625L63.875 28.8125V34H61.9375ZM76.791 34V22H78.6348V34H76.791ZM77.7285 20C77.3691 20 77.0592 19.8776 76.7988 19.6328C76.5436 19.388 76.416 19.0938 76.416 18.75C76.416 18.4063 76.5436 18.112 76.7988 17.8672C77.0592 17.6224 77.3691 17.5 77.7285 17.5C78.0879 17.5 78.3952 17.6224 78.6504 17.8672C78.9108 18.112 79.041 18.4063 79.041 18.75C79.041 19.0938 78.9108 19.388 78.6504 19.6328C78.3952 19.8776 78.0879 20 77.7285 20ZM86.543 34.25C85.543 34.25 84.6602 33.9974 83.8945 33.4922C83.1289 32.9818 82.5299 32.263 82.0977 31.3359C81.6654 30.4036 81.4492 29.3021 81.4492 28.0313C81.4492 26.7708 81.6654 25.6771 82.0977 24.75C82.5299 23.8229 83.1315 23.1068 83.9023 22.6016C84.6732 22.0964 85.5638 21.8438 86.5742 21.8438C87.3555 21.8438 87.9727 21.974 88.4258 22.2344C88.8841 22.4896 89.2331 22.7812 89.4727 23.1094C89.7174 23.4323 89.9076 23.6979 90.043 23.9062H90.1992V18H92.043V34H90.2617V32.1562H90.043C89.9076 32.375 89.7148 32.651 89.4648 32.9844C89.2148 33.3125 88.8581 33.6068 88.3945 33.8672C87.931 34.1224 87.3138 34.25 86.543 34.25ZM86.793 32.5938C87.5326 32.5938 88.1576 32.401 88.668 32.0156C89.1784 31.625 89.5664 31.0859 89.832 30.3984C90.0977 29.7057 90.2305 28.9062 90.2305 28C90.2305 27.1042 90.1003 26.3203 89.8398 25.6484C89.5794 24.9714 89.194 24.4453 88.6836 24.0703C88.1732 23.6901 87.543 23.5 86.793 23.5C86.0117 23.5 85.3607 23.7005 84.8398 24.1016C84.3242 24.4974 83.9362 25.0365 83.6758 25.7187C83.4206 26.3958 83.293 27.1562 83.293 28C83.293 28.8542 83.4232 29.6302 83.6836 30.3281C83.9492 31.0208 84.3398 31.5729 84.8555 31.9844C85.3763 32.3906 86.0221 32.5938 86.793 32.5938ZM97.3008 18V19.4062C97.3008 19.8333 97.2227 20.2891 97.0664 20.7734C96.9154 21.2526 96.6914 21.7187 96.3945 22.1719C96.1029 22.6198 95.7487 23.0104 95.332 23.3438L94.332 22.5313C94.6602 22.0625 94.944 21.5755 95.1836 21.0703C95.4284 20.5599 95.5508 20.0156 95.5508 19.4375V18H97.3008ZM106.539 24.6875L104.883 25.1562C104.779 24.8802 104.625 24.612 104.422 24.3516C104.224 24.0859 103.953 23.8672 103.609 23.6953C103.266 23.5234 102.826 23.4375 102.289 23.4375C101.555 23.4375 100.943 23.6068 100.453 23.9453C99.9688 24.2786 99.7266 24.7031 99.7266 25.2187C99.7266 25.6771 99.8932 26.0391 100.227 26.3047C100.56 26.5703 101.081 26.7917 101.789 26.9687L103.57 27.4063C104.643 27.6667 105.443 28.0651 105.969 28.6016C106.495 29.1328 106.758 29.8177 106.758 30.6562C106.758 31.3437 106.56 31.9583 106.164 32.5C105.773 33.0417 105.227 33.4688 104.523 33.7813C103.82 34.0938 103.003 34.25 102.07 34.25C100.846 34.25 99.8333 33.9844 99.0313 33.4531C98.2292 32.9219 97.7214 32.1458 97.5078 31.125L99.2578 30.6875C99.4245 31.3333 99.7396 31.8177 100.203 32.1406C100.672 32.4635 101.284 32.625 102.039 32.625C102.898 32.625 103.581 32.4427 104.086 32.0781C104.596 31.7083 104.852 31.2656 104.852 30.75C104.852 30.3333 104.706 29.9844 104.414 29.7031C104.122 29.4167 103.674 29.2031 103.07 29.0625L101.07 28.5937C99.9714 28.3333 99.1641 27.9297 98.6484 27.3828C98.138 26.8307 97.8828 26.1406 97.8828 25.3125C97.8828 24.6354 98.0729 24.0365 98.4531 23.5156C98.8385 22.9948 99.362 22.5859 100.023 22.2891C100.69 21.9922 101.445 21.8438 102.289 21.8438C103.477 21.8438 104.409 22.1042 105.086 22.625C105.768 23.1458 106.253 23.8333 106.539 24.6875ZM115.971 34V18H121.377C122.632 18 123.658 18.2266 124.455 18.6797C125.257 19.1276 125.851 19.7344 126.236 20.5C126.622 21.2656 126.814 22.1198 126.814 23.0625C126.814 24.0052 126.622 24.862 126.236 25.6328C125.856 26.4036 125.268 27.0182 124.471 27.4766C123.674 27.9297 122.653 28.1562 121.408 28.1562H117.533V26.4375H121.346C122.205 26.4375 122.895 26.2891 123.416 25.9922C123.937 25.6953 124.314 25.2943 124.549 24.7891C124.788 24.2786 124.908 23.7031 124.908 23.0625C124.908 22.4219 124.788 21.849 124.549 21.3437C124.314 20.8385 123.934 20.4427 123.408 20.1562C122.882 19.8646 122.184 19.7187 121.314 19.7187H117.908V34H115.971ZM133.217 34.2813C132.456 34.2813 131.766 34.138 131.146 33.8516C130.527 33.5599 130.035 33.1406 129.67 32.5938C129.305 32.0417 129.123 31.375 129.123 30.5937C129.123 29.9062 129.258 29.349 129.529 28.9219C129.8 28.4896 130.162 28.151 130.615 27.9062C131.068 27.6615 131.568 27.4792 132.115 27.3594C132.667 27.2344 133.222 27.1354 133.779 27.0625C134.508 26.9687 135.1 26.8984 135.553 26.8516C136.011 26.7995 136.344 26.7135 136.553 26.5937C136.766 26.474 136.873 26.2656 136.873 25.9687V25.9062C136.873 25.1354 136.662 24.5365 136.24 24.1094C135.824 23.6823 135.191 23.4687 134.342 23.4687C133.462 23.4687 132.771 23.6615 132.271 24.0469C131.771 24.4323 131.42 24.8437 131.217 25.2812L129.467 24.6562C129.779 23.9271 130.196 23.3594 130.717 22.9531C131.243 22.5417 131.816 22.2552 132.436 22.0937C133.061 21.9271 133.675 21.8438 134.279 21.8438C134.665 21.8438 135.107 21.8906 135.607 21.9844C136.113 22.0729 136.6 22.2578 137.068 22.5391C137.542 22.8203 137.936 23.2448 138.248 23.8125C138.561 24.3802 138.717 25.1406 138.717 26.0938V34H136.873V32.375H136.779C136.654 32.6354 136.446 32.9141 136.154 33.2109C135.863 33.5078 135.475 33.7604 134.99 33.9687C134.506 34.1771 133.915 34.2813 133.217 34.2813ZM133.498 32.625C134.227 32.625 134.842 32.4818 135.342 32.1953C135.847 31.9089 136.227 31.5391 136.482 31.0859C136.743 30.6328 136.873 30.1562 136.873 29.6562V27.9687C136.795 28.0625 136.623 28.1484 136.357 28.2266C136.097 28.2995 135.795 28.3646 135.451 28.4219C135.113 28.474 134.782 28.5208 134.459 28.5625C134.141 28.599 133.883 28.6302 133.686 28.6562C133.206 28.7187 132.758 28.8203 132.342 28.9609C131.93 29.0964 131.597 29.3021 131.342 29.5781C131.092 29.849 130.967 30.2187 130.967 30.6875C130.967 31.3281 131.204 31.8125 131.678 32.1406C132.157 32.4635 132.764 32.625 133.498 32.625ZM142.082 34V22H143.863V23.8125H143.988C144.207 23.2188 144.603 22.737 145.176 22.3672C145.749 21.9974 146.395 21.8125 147.113 21.8125C147.249 21.8125 147.418 21.8151 147.621 21.8203C147.824 21.8255 147.978 21.8333 148.082 21.8438V23.7187C148.02 23.7031 147.876 23.6797 147.652 23.6484C147.434 23.612 147.202 23.5937 146.957 23.5937C146.374 23.5937 145.853 23.7161 145.395 23.9609C144.941 24.2005 144.582 24.5339 144.316 24.9609C144.056 25.3828 143.926 25.8646 143.926 26.4062V34H142.082ZM156.238 22V23.5625H150.02V22H156.238ZM151.832 19.125H153.676V30.5625C153.676 31.0833 153.751 31.474 153.902 31.7344C154.059 31.9896 154.257 32.1615 154.496 32.25C154.741 32.3333 154.999 32.375 155.27 32.375C155.473 32.375 155.639 32.3646 155.77 32.3437C155.9 32.3177 156.004 32.2969 156.082 32.2812L156.457 33.9375C156.332 33.9844 156.158 34.0313 155.934 34.0781C155.71 34.1302 155.426 34.1563 155.082 34.1563C154.561 34.1563 154.051 34.0443 153.551 33.8203C153.056 33.5964 152.645 33.2552 152.316 32.7969C151.993 32.3385 151.832 31.7604 151.832 31.0625V19.125ZM160.199 38.5C159.887 38.5 159.608 38.474 159.363 38.4219C159.118 38.375 158.949 38.3281 158.855 38.2813L159.324 36.6563C159.772 36.7708 160.168 36.8125 160.512 36.7812C160.855 36.75 161.16 36.5964 161.426 36.3203C161.697 36.0495 161.944 35.6094 162.168 35L162.512 34.0625L158.074 22H160.074L163.387 31.5625H163.512L166.824 22H168.824L163.73 35.75C163.501 36.3698 163.217 36.8828 162.879 37.2891C162.54 37.7005 162.147 38.0052 161.699 38.2031C161.257 38.401 160.757 38.5 160.199 38.5ZM177.695 34V18H183.102C184.357 18 185.383 18.2266 186.18 18.6797C186.982 19.1276 187.576 19.7344 187.961 20.5C188.346 21.2656 188.539 22.1198 188.539 23.0625C188.539 24.0052 188.346 24.862 187.961 25.6328C187.581 26.4036 186.992 27.0182 186.195 27.4766C185.398 27.9297 184.378 28.1562 183.133 28.1562H179.258V26.4375H183.07C183.93 26.4375 184.62 26.2891 185.141 25.9922C185.661 25.6953 186.039 25.2943 186.273 24.7891C186.513 24.2786 186.633 23.7031 186.633 23.0625C186.633 22.4219 186.513 21.849 186.273 21.3437C186.039 20.8385 185.659 20.4427 185.133 20.1562C184.607 19.8646 183.909 19.7187 183.039 19.7187H179.633V34H177.695ZM194.941 34.2813C194.181 34.2813 193.491 34.138 192.871 33.8516C192.251 33.5599 191.759 33.1406 191.395 32.5938C191.03 32.0417 190.848 31.375 190.848 30.5937C190.848 29.9062 190.983 29.349 191.254 28.9219C191.525 28.4896 191.887 28.151 192.34 27.9062C192.793 27.6615 193.293 27.4792 193.84 27.3594C194.392 27.2344 194.947 27.1354 195.504 27.0625C196.233 26.9687 196.824 26.8984 197.277 26.8516C197.736 26.7995 198.069 26.7135 198.277 26.5937C198.491 26.474 198.598 26.2656 198.598 25.9687V25.9062C198.598 25.1354 198.387 24.5365 197.965 24.1094C197.548 23.6823 196.915 23.4687 196.066 23.4687C195.186 23.4687 194.496 23.6615 193.996 24.0469C193.496 24.4323 193.145 24.8437 192.941 25.2812L191.191 24.6562C191.504 23.9271 191.921 23.3594 192.441 22.9531C192.967 22.5417 193.54 22.2552 194.16 22.0937C194.785 21.9271 195.4 21.8438 196.004 21.8438C196.389 21.8438 196.832 21.8906 197.332 21.9844C197.837 22.0729 198.324 22.2578 198.793 22.5391C199.267 22.8203 199.66 23.2448 199.973 23.8125C200.285 24.3802 200.441 25.1406 200.441 26.0938V34H198.598V32.375H198.504C198.379 32.6354 198.171 32.9141 197.879 33.2109C197.587 33.5078 197.199 33.7604 196.715 33.9687C196.23 34.1771 195.639 34.2813 194.941 34.2813ZM195.223 32.625C195.952 32.625 196.566 32.4818 197.066 32.1953C197.572 31.9089 197.952 31.5391 198.207 31.0859C198.467 30.6328 198.598 30.1562 198.598 29.6562V27.9687C198.52 28.0625 198.348 28.1484 198.082 28.2266C197.822 28.2995 197.52 28.3646 197.176 28.4219C196.837 28.474 196.507 28.5208 196.184 28.5625C195.866 28.599 195.608 28.6302 195.41 28.6562C194.931 28.7187 194.483 28.8203 194.066 28.9609C193.655 29.0964 193.322 29.3021 193.066 29.5781C192.816 29.849 192.691 30.2187 192.691 30.6875C192.691 31.3281 192.928 31.8125 193.402 32.1406C193.882 32.4635 194.488 32.625 195.223 32.625ZM208.682 34.25C207.557 34.25 206.588 33.9844 205.775 33.4531C204.963 32.9219 204.338 32.1901 203.9 31.2578C203.463 30.3255 203.244 29.2604 203.244 28.0625C203.244 26.8437 203.468 25.7682 203.916 24.8359C204.369 23.8984 204.999 23.1667 205.807 22.6406C206.619 22.1094 207.567 21.8438 208.65 21.8438C209.494 21.8438 210.255 22 210.932 22.3125C211.609 22.625 212.163 23.0625 212.596 23.625C213.028 24.1875 213.296 24.8437 213.4 25.5937H211.557C211.416 25.0469 211.104 24.5625 210.619 24.1406C210.14 23.7135 209.494 23.5 208.682 23.5C207.963 23.5 207.333 23.6875 206.791 24.0625C206.255 24.4323 205.835 24.9557 205.533 25.6328C205.236 26.3047 205.088 27.0937 205.088 28C205.088 28.9271 205.234 29.7344 205.525 30.4219C205.822 31.1094 206.239 31.6432 206.775 32.0234C207.317 32.4036 207.952 32.5938 208.682 32.5938C209.161 32.5938 209.596 32.5104 209.986 32.3437C210.377 32.1771 210.708 31.9375 210.979 31.625C211.249 31.3125 211.442 30.9375 211.557 30.5H213.4C213.296 31.2083 213.038 31.8464 212.627 32.4141C212.221 32.9766 211.682 33.4245 211.01 33.7578C210.343 34.0859 209.567 34.25 208.682 34.25ZM217.814 29.625L217.783 27.3438H218.158L223.408 22H225.689L220.096 27.6562H219.939L217.814 29.625ZM216.096 34V18H217.939V34H216.096ZM223.721 34L219.033 28.0625L220.346 26.7812L226.064 34H223.721ZM231.594 34.2813C230.833 34.2813 230.143 34.138 229.523 33.8516C228.904 33.5599 228.411 33.1406 228.047 32.5938C227.682 32.0417 227.5 31.375 227.5 30.5937C227.5 29.9062 227.635 29.349 227.906 28.9219C228.177 28.4896 228.539 28.151 228.992 27.9062C229.445 27.6615 229.945 27.4792 230.492 27.3594C231.044 27.2344 231.599 27.1354 232.156 27.0625C232.885 26.9687 233.477 26.8984 233.93 26.8516C234.388 26.7995 234.721 26.7135 234.93 26.5937C235.143 26.474 235.25 26.2656 235.25 25.9687V25.9062C235.25 25.1354 235.039 24.5365 234.617 24.1094C234.201 23.6823 233.568 23.4687 232.719 23.4687C231.839 23.4687 231.148 23.6615 230.648 24.0469C230.148 24.4323 229.797 24.8437 229.594 25.2812L227.844 24.6562C228.156 23.9271 228.573 23.3594 229.094 22.9531C229.62 22.5417 230.193 22.2552 230.813 22.0937C231.438 21.9271 232.052 21.8438 232.656 21.8438C233.042 21.8438 233.484 21.8906 233.984 21.9844C234.49 22.0729 234.977 22.2578 235.445 22.5391C235.919 22.8203 236.313 23.2448 236.625 23.8125C236.938 24.3802 237.094 25.1406 237.094 26.0938V34H235.25V32.375H235.156C235.031 32.6354 234.823 32.9141 234.531 33.2109C234.24 33.5078 233.852 33.7604 233.367 33.9687C232.883 34.1771 232.292 34.2813 231.594 34.2813ZM231.875 32.625C232.604 32.625 233.219 32.4818 233.719 32.1953C234.224 31.9089 234.604 31.5391 234.859 31.0859C235.12 30.6328 235.25 30.1562 235.25 29.6562V27.9687C235.172 28.0625 235 28.1484 234.734 28.2266C234.474 28.2995 234.172 28.3646 233.828 28.4219C233.49 28.474 233.159 28.5208 232.836 28.5625C232.518 28.599 232.26 28.6302 232.063 28.6562C231.583 28.7187 231.135 28.8203 230.719 28.9609C230.307 29.0964 229.974 29.3021 229.719 29.5781C229.469 29.849 229.344 30.2187 229.344 30.6875C229.344 31.3281 229.581 31.8125 230.055 32.1406C230.534 32.4635 231.141 32.625 231.875 32.625ZM245.303 38.75C244.412 38.75 243.646 38.6354 243.006 38.4063C242.365 38.1823 241.831 37.8854 241.404 37.5156C240.982 37.151 240.646 36.7604 240.396 36.3438L241.865 35.3125C242.032 35.5313 242.243 35.7813 242.498 36.0625C242.753 36.349 243.102 36.5964 243.545 36.8047C243.993 37.0182 244.579 37.125 245.303 37.125C246.271 37.125 247.071 36.8906 247.701 36.4219C248.331 35.9531 248.646 35.2187 248.646 34.2187V31.7812H248.49C248.355 32 248.162 32.2708 247.912 32.5938C247.667 32.9115 247.313 33.1953 246.85 33.4453C246.391 33.6901 245.771 33.8125 244.99 33.8125C244.021 33.8125 243.152 33.5833 242.381 33.125C241.615 32.6667 241.008 32 240.561 31.125C240.118 30.25 239.896 29.1875 239.896 27.9375C239.896 26.7083 240.113 25.638 240.545 24.7266C240.977 23.8099 241.579 23.1016 242.35 22.6016C243.12 22.0964 244.011 21.8438 245.021 21.8438C245.803 21.8438 246.423 21.974 246.881 22.2344C247.344 22.4896 247.699 22.7812 247.943 23.1094C248.193 23.4323 248.386 23.6979 248.521 23.9062H248.709V22H250.49V34.3438C250.49 35.375 250.256 36.2135 249.787 36.8594C249.324 37.5104 248.699 37.987 247.912 38.2891C247.131 38.5964 246.261 38.75 245.303 38.75ZM245.24 32.1562C245.98 32.1562 246.605 31.987 247.115 31.6484C247.626 31.3099 248.014 30.8229 248.279 30.1875C248.545 29.5521 248.678 28.7917 248.678 27.9062C248.678 27.0417 248.548 26.2786 248.287 25.6172C248.027 24.9557 247.641 24.4375 247.131 24.0625C246.62 23.6875 245.99 23.5 245.24 23.5C244.459 23.5 243.808 23.6979 243.287 24.0937C242.771 24.4896 242.383 25.0208 242.123 25.6875C241.868 26.3542 241.74 27.0937 241.74 27.9062C241.74 28.7396 241.87 29.4766 242.131 30.1172C242.396 30.7526 242.787 31.2526 243.303 31.6172C243.824 31.9766 244.469 32.1562 245.24 32.1562ZM258.896 34.25C257.74 34.25 256.743 33.9948 255.904 33.4844C255.071 32.9688 254.428 32.25 253.975 31.3281C253.527 30.401 253.303 29.3229 253.303 28.0938C253.303 26.8646 253.527 25.7812 253.975 24.8437C254.428 23.901 255.058 23.1667 255.865 22.6406C256.678 22.1094 257.626 21.8438 258.709 21.8438C259.334 21.8438 259.951 21.9479 260.561 22.1562C261.17 22.3646 261.725 22.7031 262.225 23.1719C262.725 23.6354 263.123 24.25 263.42 25.0156C263.717 25.7812 263.865 26.724 263.865 27.8437V28.625H254.615V27.0312H261.99C261.99 26.3542 261.855 25.75 261.584 25.2187C261.318 24.6875 260.938 24.2682 260.443 23.9609C259.954 23.6536 259.376 23.5 258.709 23.5C257.975 23.5 257.339 23.6823 256.803 24.0469C256.271 24.4062 255.863 24.875 255.576 25.4531C255.29 26.0312 255.146 26.651 255.146 27.3125V28.375C255.146 29.2813 255.303 30.0495 255.615 30.6797C255.933 31.3047 256.373 31.7812 256.936 32.1094C257.498 32.4323 258.152 32.5938 258.896 32.5938C259.381 32.5938 259.818 32.526 260.209 32.3906C260.605 32.25 260.946 32.0417 261.232 31.7656C261.519 31.4844 261.74 31.1354 261.896 30.7187L263.678 31.2188C263.49 31.8229 263.175 32.3542 262.732 32.8125C262.29 33.2656 261.743 33.6198 261.092 33.875C260.441 34.125 259.709 34.25 258.896 34.25ZM273.764 34H271.732L277.607 18H279.607L285.482 34H283.451L278.67 20.5312H278.545L273.764 34ZM274.514 27.75H282.701V29.4687H274.514V27.75Z" fill="white"/>
<path d="M41.8215 18.5L31 31.6404L20.1785 18.5H41.8215Z" stroke="white" stroke-width="3"/>
</svg>
