<svg width="73" height="55" viewBox="0 0 73 55" fill="none" xmlns="http://www.w3.org/2000/svg">
<path d="M70.9428 8.62952C70.5325 6.96418 69.7334 5.45635 68.6304 4.26662C67.4962 3.0401 66.1061 2.16282 64.5913 1.71747C58.9221 0.0170574 36.2089 0.0170579 36.2089 0.0170579C26.74 -0.105631 17.2734 0.433609 7.86271 1.63158C6.34787 2.10991 4.96037 3.00675 3.82361 4.2425C2.70668 5.46545 1.89764 6.97365 1.47502 8.62608C0.459788 14.8501 -0.0334805 21.1698 0.00186313 27.5C-0.034362 33.8246 0.457696 40.1421 1.47502 46.3739C1.88859 48.0194 2.6946 49.5207 3.81456 50.7333C4.93452 51.9461 6.32919 52.8221 7.86271 53.2858C13.6075 54.9829 36.2089 54.9829 36.2089 54.9829C45.6897 55.1057 55.1684 54.5665 64.5913 53.3683C66.1061 52.9229 67.4962 52.0456 68.6304 50.8192C69.7331 49.6296 70.5312 48.1218 70.9397 46.4563C71.9815 40.2348 72.488 33.9124 72.4521 27.579C72.5305 21.2187 72.0247 14.8666 70.9428 8.62608V8.62952ZM28.988 39.2627V15.7407L47.8854 27.5034L28.988 39.2627Z" fill="white"/>
</svg>
